SplineFontDB: 3.2
FontName: applause-Regular
FullName: applause regular
FamilyName: applause
Weight: Regular
Copyright: 
Version: 001.001
ItalicAngle: 0
UnderlinePosition: -100
UnderlineWidth: 50
Ascent: 800
Descent: 200
InvalidEm: 0
sfntRevision: 0x00010000
LayerCount: 2
Layer: 0 0 "Back" 1
Layer: 1 0 "Fore" 0
XUID: [1021 796 -163880829 8174809]
StyleMap: 0x0040
FSType: 4
OS2Version: 3
OS2_WeightWidthSlopeOnly: 0
OS2_UseTypoMetrics: 0
CreationTime: 1464040505
ModificationTime: 1617812479
PfmFamily: 81
TTFWeight: 400
TTFWidth: 5
LineGap: 63
VLineGap: 0
Panose: 0 0 0 0 0 0 0 0 0 0
OS2TypoAscent: 737
OS2TypoAOffset: 0
OS2TypoDescent: -170
OS2TypoDOffset: 0
OS2TypoLinegap: 63
OS2WinAscent: 1013
OS2WinAOffset: 0
OS2WinDescent: 170
OS2WinDOffset: 0
HheadAscent: 737
HheadAOffset: 0
HheadDescent: -170
HheadDOffset: 0
OS2SubXSize: 700
OS2SubYSize: 650
OS2SubXOff: 0
OS2SubYOff: 140
OS2SupXSize: 700
OS2SupYSize: 650
OS2SupXOff: 0
OS2SupYOff: 477
OS2StrikeYSize: 50
OS2StrikeYPos: 250
OS2CapHeight: 737
OS2XHeight: 566
OS2FamilyClass: 2048
OS2Vendor: 'PYRS'
OS2CodePages: 00000001.00000000
OS2UnicodeRanges: 80000027.00000040.00000000.00000000
Lookup: 258 0 0 "'kern' Horizontal Kerning lookup 0" { "'kern' Horizontal Kerning lookup 0 subtable"  } ['kern' ('DFLT' <'dflt' > ) ]
MarkAttachClasses: 1
DEI: 91125
LangName: 1033
LangName: 1033
Encoding: UnicodeBmp
UnicodeInterp: none
NameList: AGL For New Fonts
DisplaySize: -48
AntiAlias: 1
FitToEm: 0
WinInfo: 44 22 5
BeginPrivate: 5
BlueValues 21 [0 0 567 567 737 737]
OtherBlues 11 [-170 -170]
StdHW 5 [113]
StdVW 5 [113]
StemSnapV 9 [113 136]
EndPrivate
BeginChars: 65537 173

StartChar: exclam
Encoding: 33 33 4
Width: 276
Flags: HMW
LayerCount: 2
UndoRedoHistory
Layer: 1
Undoes
EndUndoes
Redoes
RedoOperation
Index: 0
Type: 3
WasModified: 0
WasOrder2: 0
Layer: 2
EndRedoOperation
EndRedoes
EndUndoRedoHistory
Fore
SplineSet
63 126 m 0
 28 126 0 98 0 63 c 0
 0 28 28 0 63 0 c 0
 98 0 126 28 126 63 c 0
 126 98 98 126 63 126 c 0
35 737 m 2
 91 737 l 2
 100 737 107 729 107 720 c 2
 76 233 l 2
 75 226 70 221 63 221 c 0
 56 221 51 226 50 233 c 2
 19 720 l 2
 19 729 26 737 35 737 c 2
EndSplineSet
EndChar

StartChar: quotedbl
Encoding: 34 34 5
Width: 313
Flags: HMW
LayerCount: 2
UndoRedoHistory
Layer: 1
Undoes
EndUndoes
Redoes
RedoOperation
Index: 0
Type: 3
WasModified: 0
WasOrder2: 0
Layer: 2
EndRedoOperation
EndRedoes
EndUndoRedoHistory
Fore
SplineSet
63 599 m 2
 63 591 57 585 49 585 c 2
 14 585 l 2
 6 585 0 591 0 599 c 2
 0 723 l 2
 0 731 6 737 14 737 c 2
 49 737 l 2
 57 737 63 731 63 723 c 2
 63 599 l 2
163 599 m 2
 163 591 157 585 149 585 c 2
 114 585 l 2
 106 585 100 591 100 599 c 2
 100 723 l 2
 100 731 106 737 114 737 c 2
 149 737 l 2
 157 737 163 731 163 723 c 2
 163 599 l 2
EndSplineSet
EndChar

StartChar: numbersign
Encoding: 35 35 6
Width: 770
Flags: HMW
LayerCount: 2
UndoRedoHistory
Layer: 1
Undoes
EndUndoes
Redoes
RedoOperation
Index: 0
Type: 3
WasModified: 0
WasOrder2: 0
Layer: 2
EndRedoOperation
EndRedoes
EndUndoRedoHistory
Fore
SplineSet
348 18 m 2
 383 214 l 1
 179 214 l 1
 146 26 l 2
 143 11 130 0 115 0 c 2
 98 0 l 2
 88 0 81 9 83 18 c 2
 117 214 l 1
 16 214 l 2
 7 214 0 221 0 229 c 2
 0 261 l 2
 0 270 7 277 16 277 c 2
 128 277 l 1
 164 479 l 1
 63 479 l 2
 54 479 47 486 47 495 c 2
 47 526 l 2
 47 535 54 542 63 542 c 2
 175 542 l 1
 206 711 l 2
 208 726 221 737 237 737 c 2
 254 737 l 2
 263 737 271 728 269 718 c 2
 237 542 l 1
 441 542 l 1
 471 711 l 2
 474 726 487 737 502 737 c 2
 519 737 l 2
 529 737 536 728 535 718 c 2
 503 542 l 1
 604 542 l 2
 613 542 620 535 620 526 c 2
 620 495 l 2
 620 486 613 479 604 479 c 2
 491 479 l 1
 456 277 l 1
 557 277 l 2
 565 277 572 270 572 261 c 2
 572 229 l 2
 572 221 565 214 557 214 c 2
 445 214 l 1
 412 26 l 2
 409 11 396 0 381 0 c 2
 364 0 l 2
 354 0 347 9 348 18 c 2
190 277 m 1
 394 277 l 1
 429 479 l 1
 226 479 l 1
 190 277 l 1
EndSplineSet
EndChar

StartChar: dollar
Encoding: 36 36 7
Width: 530
Flags: HMW
LayerCount: 2
UndoRedoHistory
Layer: 1
Undoes
EndUndoes
Redoes
RedoOperation
Index: 0
Type: 3
WasModified: 0
WasOrder2: 0
Layer: 2
EndRedoOperation
EndRedoes
EndUndoRedoHistory
Fore
SplineSet
152 16 m 2xaa
 152 101 l 1
 29 101 l 2
 21 101 14 108 14 116 c 2x6e
 14 132 l 2
 14 150 28 164 45 164 c 2
 220 164 l 2
 244 164 267 173 285 189 c 0
 304 206 315 229 316 253 c 0
 317 280 308 304 290 323 c 0
 272 342 247 353 221 353 c 2
 162 353 l 2
 119 353 77 370 46 401 c 0
 16 432 0 471 1 513 c 0
 2 549 15 584 38 611 c 0
 61 639 92 657 127 665 c 2
 152 670 l 1
 152 721 l 2
 152 730 159 737 168 737 c 2
 199 737 l 2
 208 737 215 730 215 721 c 2xaf
 215 668 l 1
 300 668 l 2
 309 668 316 661 316 652 c 2xb3
 316 636 l 2
 316 619 302 605 284 605 c 2
 160 605 l 2
 136 605 113 596 95 579 c 0
 76 562 65 540 64 515 c 0
 63 489 72 464 90 445 c 0
 108 426 133 416 158 416 c 2
 221 416 l 2
 263 416 302 400 332 370 c 0
 361 341 378 302 379 261 c 0
 380 223 366 186 340 156 c 0
 315 127 280 108 242 103 c 2
 215 99 l 1x6f
 215 16 l 2
 215 7 208 0 199 0 c 2
 168 0 l 2
 159 0 152 7 152 16 c 2xaa
EndSplineSet
EndChar

StartChar: percent
Encoding: 37 37 8
Width: 673
Flags: HMW
LayerCount: 2
UndoRedoHistory
Layer: 1
Undoes
EndUndoes
Redoes
RedoOperation
Index: 0
Type: 3
WasModified: 0
WasOrder2: 0
Layer: 2
EndRedoOperation
EndRedoes
EndUndoRedoHistory
Fore
SplineSet
239 617 m 0
 239 551 186 498 120 498 c 0
 54 498 0 551 0 617 c 0
 0 683 54 737 120 737 c 0
 186 737 239 683 239 617 c 0
41 617 m 0
 41 574 76 539 120 539 c 0
 163 539 198 574 198 617 c 0
 198 661 163 696 120 696 c 0
 76 696 41 661 41 617 c 0
403 239 m 0
 469 239 523 186 523 120 c 0
 523 54 469 0 403 0 c 0
 337 0 283 54 283 120 c 0
 283 186 337 239 403 239 c 0
403 41 m 0
 447 41 482 76 482 120 c 0
 482 163 447 198 403 198 c 0
 360 198 324 163 324 120 c 0
 324 76 360 41 403 41 c 0
407 737 m 2
 418 737 426 726 422 716 c 2
 164 10 l 2
 162 4 156 0 149 0 c 2
 116 0 l 2
 105 0 97 11 101 21 c 2
 359 727 l 2
 361 733 367 737 373 737 c 2
 407 737 l 2
EndSplineSet
EndChar

StartChar: ampersand
Encoding: 38 38 9
Width: 693
Flags: HMW
LayerCount: 2
UndoRedoHistory
Layer: 1
Undoes
EndUndoes
Redoes
RedoOperation
Index: 0
Type: 3
WasModified: 0
WasOrder2: 0
Layer: 2
EndRedoOperation
EndRedoes
EndUndoRedoHistory
Fore
SplineSet
453 428 m 1
 527 428 l 2
 536 428 543 421 543 413 c 2
 543 381 l 2
 543 372 536 365 527 365 c 2
 453 365 l 1
 453 182 l 2
 453 82 372 0 271 0 c 2
 183 0 l 2
 82 0 0 82 0 183 c 2
 0 246 l 2
 0 292 23 337 64 373 c 2
 92 397 l 1
 64 421 l 2
 23 456 0 502 0 548 c 2
 0 554 l 2
 0 655 82 737 183 737 c 2
 311 737 l 2
 320 737 327 730 327 721 c 2
 327 705 l 2
 327 688 312 674 295 674 c 2
 183 674 l 2
 117 674 63 620 63 554 c 2
 63 548 l 2
 63 482 117 428 183 428 c 2
 390 428 l 1
 390 485 l 2
 390 502 405 517 422 517 c 2
 438 517 l 2
 446 517 453 509 453 501 c 2
 453 428 l 1
390 182 m 2
 390 365 l 1
 183 365 l 2
 117 365 63 312 63 246 c 2
 63 183 l 2
 63 117 117 63 183 63 c 2
 271 63 l 2
 337 63 390 117 390 182 c 2
EndSplineSet
EndChar

StartChar: quotesingle
Encoding: 39 39 10
Width: 213
Flags: HMW
LayerCount: 2
UndoRedoHistory
Layer: 1
Undoes
EndUndoes
Redoes
RedoOperation
Index: 0
Type: 3
WasModified: 0
WasOrder2: 0
Layer: 2
EndRedoOperation
EndRedoes
EndUndoRedoHistory
Fore
SplineSet
63 599 m 2
 63 591 57 585 49 585 c 2
 14 585 l 2
 6 585 0 591 0 599 c 2
 0 723 l 2
 0 731 6 737 14 737 c 2
 49 737 l 2
 57 737 63 731 63 723 c 2
 63 599 l 2
EndSplineSet
EndChar

StartChar: parenleft
Encoding: 40 40 11
Width: 379
Flags: HMW
LayerCount: 2
UndoRedoHistory
Layer: 1
Undoes
EndUndoes
Redoes
RedoOperation
Index: 0
Type: 3
WasModified: 0
WasOrder2: 0
Layer: 2
EndRedoOperation
EndRedoes
EndUndoRedoHistory
Fore
SplineSet
163 726 m 0
 131 680 107 626 90 566 c 0
 72 504 63 437 63 368 c 0
 63 300 72 233 90 171 c 0
 107 111 131 57 163 11 c 0
 181 -16 202 -40 224 -60 c 0
 233 -69 227 -85 214 -85 c 2
 171 -85 l 2
 163 -85 156 -82 150 -76 c 0
 136 -60 123 -43 110 -24 c 0
 39 81 0 221 0 368 c 0
 0 516 39 656 110 761 c 0
 123 780 136 797 150 813 c 0
 156 819 163 822 171 822 c 2
 214 822 l 2
 227 822 233 806 224 797 c 0
 202 777 181 753 163 726 c 0
EndSplineSet
EndChar

StartChar: parenright
Encoding: 41 41 12
Width: 379
Flags: HMW
LayerCount: 2
UndoRedoHistory
Layer: 1
Undoes
EndUndoes
Redoes
RedoOperation
Index: 0
Type: 3
WasModified: 0
WasOrder2: 0
Layer: 2
EndRedoOperation
EndRedoes
EndUndoRedoHistory
Fore
SplineSet
66 726 m 0
 48 753 27 777 5 797 c 0
 -4 806 2 822 15 822 c 2
 58 822 l 2
 66 822 73 819 79 813 c 0
 93 797 106 780 119 761 c 0
 190 656 229 516 229 368 c 0
 229 221 190 81 119 -24 c 0
 106 -43 93 -60 79 -76 c 0
 73 -82 66 -85 58 -85 c 2
 15 -85 l 2
 2 -85 -4 -69 5 -60 c 0
 27 -40 48 -16 66 11 c 0
 98 57 122 111 139 171 c 0
 157 233 166 300 166 368 c 0
 166 437 157 504 139 566 c 0
 122 626 98 680 66 726 c 0
EndSplineSet
EndChar

StartChar: asterisk
Encoding: 42 42 13
Width: 467
Flags: HMW
LayerCount: 2
UndoRedoHistory
Layer: 1
Undoes
EndUndoes
Redoes
RedoOperation
Index: 0
Type: 3
WasModified: 0
WasOrder2: 0
Layer: 2
EndRedoOperation
EndRedoes
EndUndoRedoHistory
Fore
SplineSet
316 614 m 2
 319 604 314 594 305 591 c 2
 222 564 l 2
 214 562 212 553 216 547 c 2
 267 476 l 2
 273 468 271 457 263 451 c 2
 244 437 l 2
 236 431 225 433 219 441 c 2
 168 512 l 2
 163 518 154 518 150 512 c 2
 98 441 l 2
 92 433 81 431 73 437 c 2
 54 451 l 2
 46 457 44 468 50 476 c 2
 101 547 l 2
 105 553 103 562 95 564 c 2
 12 591 l 2
 3 594 -2 604 1 614 c 2
 8 636 l 2
 11 646 21 651 31 648 c 2
 114 621 l 2
 121 619 129 624 129 632 c 2
 129 719 l 2
 129 729 137 737 147 737 c 2
 170 737 l 2
 180 737 189 729 189 719 c 2
 189 632 l 2
 189 624 196 619 203 621 c 2
 286 648 l 2
 296 651 306 646 309 636 c 2
 316 614 l 2
EndSplineSet
EndChar

StartChar: plus
Encoding: 43 43 14
Width: 717
Flags: HMW
LayerCount: 2
UndoRedoHistory
Layer: 1
Undoes
EndUndoes
Redoes
RedoOperation
Index: 0
Type: 3
WasModified: 0
WasOrder2: 0
Layer: 2
EndRedoOperation
EndRedoes
EndUndoRedoHistory
Fore
SplineSet
553 315 m 2
 561 315 567 309 567 301 c 2
 567 266 l 2
 567 258 561 252 553 252 c 2
 315 252 l 1
 315 14 l 2
 315 6 309 0 301 0 c 2
 266 0 l 2
 258 0 252 6 252 14 c 2
 252 252 l 1
 14 252 l 2
 6 252 0 258 0 266 c 2
 0 301 l 2
 0 309 6 315 14 315 c 2
 252 315 l 1
 252 553 l 2
 252 561 258 567 266 567 c 2
 301 567 l 2
 309 567 315 561 315 553 c 2
 315 315 l 1
 553 315 l 2
EndSplineSet
EndChar

StartChar: comma
Encoding: 44 44 15
Width: 238
Flags: HMW
LayerCount: 2
UndoRedoHistory
Layer: 1
Undoes
EndUndoes
Redoes
RedoOperation
Index: 0
Type: 3
WasModified: 0
WasOrder2: 0
Layer: 2
EndRedoOperation
EndRedoes
EndUndoRedoHistory
Fore
SplineSet
88 32 m 0
 88 10 85 -19 56 -62 c 1
 42 -53 l 1
 42 -53 53 -27 53 0 c 1
 50 0 47 0 44 0 c 0
 20 0 0 19 0 44 c 0
 0 68 20 88 44 88 c 0
 68 88 88 67 88 32 c 0
EndSplineSet
EndChar

StartChar: hyphen
Encoding: 45 45 16
Width: 482
Flags: HMW
LayerCount: 2
UndoRedoHistory
Layer: 1
Undoes
EndUndoes
Redoes
RedoOperation
Index: 0
Type: 3
WasModified: 0
WasOrder2: 0
Layer: 2
EndRedoOperation
EndRedoes
EndUndoRedoHistory
Fore
SplineSet
332 281 m 2
 332 258 l 2
 332 247 323 238 312 238 c 2
 20 238 l 2
 9 238 0 247 0 258 c 2
 0 281 l 2
 0 292 9 301 20 301 c 2
 312 301 l 2
 323 301 332 292 332 281 c 2
EndSplineSet
EndChar

StartChar: period
Encoding: 46 46 17
Width: 238
Flags: HMW
LayerCount: 2
UndoRedoHistory
Layer: 1
Undoes
EndUndoes
Redoes
RedoOperation
Index: 0
Type: 3
WasModified: 0
WasOrder2: 0
Layer: 2
EndRedoOperation
EndRedoes
EndUndoRedoHistory
Fore
SplineSet
44 0 m 0
 20 0 0 19 0 44 c 0
 0 68 20 88 44 88 c 0
 68 88 88 68 88 44 c 0
 88 19 68 0 44 0 c 0
EndSplineSet
EndChar

StartChar: slash
Encoding: 47 47 18
Width: 475
Flags: HMW
LayerCount: 2
UndoRedoHistory
Layer: 1
Undoes
EndUndoes
Redoes
RedoOperation
Index: 0
Type: 3
WasModified: 0
WasOrder2: 0
Layer: 2
EndRedoOperation
EndRedoes
EndUndoRedoHistory
Fore
SplineSet
15 0 m 6
 5 0 -2 10 2 19 c 6
 260 728 l 6
 262 733 267 737 273 737 c 6
 310 737 l 6
 320 737 327 727 323 718 c 6
 65 9 l 6
 63 4 58 0 52 0 c 6
 15 0 l 6
EndSplineSet
EndChar

StartChar: zero
Encoding: 48 48 19
Width: 616
Flags: HMW
LayerCount: 2
UndoRedoHistory
Layer: 1
Undoes
EndUndoes
Redoes
RedoOperation
Index: 0
Type: 3
WasModified: 1
WasOrder2: 0
Layer: 2
EndRedoOperation
EndRedoes
EndUndoRedoHistory
Fore
SplineSet
77 0 m 6
 67 0 60 10 64 19 c 6
 322 728 l 6
 324 733 329 737 335 737 c 6
 372 737 l 6
 382 737 389 727 385 718 c 6
 127 9 l 6
 125 4 120 0 114 0 c 6
 77 0 l 6
220 0 m 2
 99 0 0 99 0 220 c 2
 0 516 l 2
 0 638 99 737 220 737 c 2
 246 737 l 2
 367 737 466 638 466 516 c 2
 466 220 l 2
 466 99 367 0 246 0 c 2
 220 0 l 2
220 674 m 2
 134 674 63 603 63 516 c 2
 63 220 l 2
 63 134 134 63 220 63 c 2
 246 63 l 2
 332 63 403 134 403 220 c 2
 403 516 l 2
 403 603 332 674 246 674 c 2
 220 674 l 2
EndSplineSet
EndChar

StartChar: one
Encoding: 49 49 20
Width: 368
Flags: HMW
LayerCount: 2
UndoRedoHistory
Layer: 1
Undoes
EndUndoes
Redoes
RedoOperation
Index: 0
Type: 3
WasModified: 0
WasOrder2: 0
Layer: 2
EndRedoOperation
EndRedoes
EndUndoRedoHistory
Fore
SplineSet
155 16 m 2xb0
 155 669 l 1xb0
 60 581 l 2
 55 575 47 572 39 572 c 1
 39 572 39 572 39 572 c 1
 30 572 22 576 16 582 c 2
 5 594 l 2
 -1 600 0 610 6 616 c 2xd0
 127 729 l 2
 133 734 140 737 148 737 c 2
 202 737 l 2
 211 737 218 730 218 721 c 2
 218 16 l 2
 218 7 211 0 202 0 c 2
 171 0 l 2
 162 0 155 7 155 16 c 2xb0
EndSplineSet
EndChar

StartChar: two
Encoding: 50 50 21
Width: 616
Flags: HMW
LayerCount: 2
UndoRedoHistory
Layer: 1
Undoes
EndUndoes
Redoes
RedoOperation
Index: 0
Type: 3
WasModified: 0
WasOrder2: 0
Layer: 2
EndRedoOperation
EndRedoes
EndUndoRedoHistory
Fore
SplineSet
31 0 m 2
 14 0 0 14 0 31 c 2
 0 208 l 2
 0 309 82 391 183 391 c 2
 283 391 l 2
 350 391 403 444 403 510 c 2
 403 554 l 2
 403 620 350 674 283 674 c 2
 183 674 l 2
 117 674 63 620 63 554 c 0
 63 537 49 523 31 523 c 2
 16 523 l 2
 7 523 0 530 0 539 c 2
 0 554 l 2
 0 655 82 737 183 737 c 2
 283 737 l 2
 384 737 466 655 466 554 c 2
 466 510 l 2
 466 409 384 328 283 328 c 2
 183 328 l 2
 117 328 63 274 63 208 c 2
 63 63 l 1
 435 63 l 2
 452 63 466 49 466 31 c 2
 466 16 l 2
 466 7 459 0 450 0 c 2
 31 0 l 2
EndSplineSet
EndChar

StartChar: three
Encoding: 51 51 22
Width: 591
Flags: HMW
LayerCount: 2
UndoRedoHistory
Layer: 1
Undoes
EndUndoes
Redoes
RedoOperation
Index: 0
Type: 3
WasModified: 0
WasOrder2: 0
Layer: 2
EndRedoOperation
EndRedoes
EndUndoRedoHistory
Fore
SplineSet
349 397 m 1xf4
 403 378 441 306 441 246 c 2
 441 183 l 2
 441 82 359 0 258 0 c 2
 158 0 l 2
 57 0 -25 82 -25 183 c 2
 -25 198 l 2
 -25 207 -18 214 -9 214 c 2
 6 214 l 2
 24 214 38 200 38 182 c 0xf4
 38 117 92 63 158 63 c 2
 258 63 l 2
 325 63 378 117 378 183 c 2
 378 246 l 2
 378 312 325 365 258 365 c 2
 205 365 l 2
 196 365 189 372 189 381 c 2
 189 397 l 2
 189 414 203 428 221 428 c 2
 258 428 l 2
 325 428 378 463 378 529 c 2
 378 554 l 2
 378 620 325 674 258 674 c 2
 170 674 l 2
 102 674 47 617 51 548 c 1
 51 544 l 2
 51 536 44 529 35 529 c 2
 3 529 l 2
 -5 529 -12 536 -12 545 c 2
 -12 554 l 2xec
 -12 655 69 737 170 737 c 2
 258 737 l 2
 359 737 441 655 441 554 c 2
 441 529 l 2
 441 483 403 412 349 397 c 1xf4
EndSplineSet
EndChar

StartChar: four
Encoding: 52 52 23
Width: 604
Flags: HMW
LayerCount: 2
UndoRedoHistory
Layer: 1
Undoes
EndUndoes
Redoes
RedoOperation
Index: 0
Type: 3
WasModified: 1
WasOrder2: 0
Layer: 2
EndRedoOperation
EndRedoes
EndUndoRedoHistory
Fore
SplineSet
438 277 m 2
 447 277 454 270 454 261 c 2
 454 230 l 2
 454 221 447 214 438 214 c 2
 365 214 l 1
 365 16 l 2
 365 7 358 0 350 0 c 2
 318 0 l 2
 309 0 302 7 302 16 c 2
 302 214 l 1
 25 214 l 2
 -9 214 -33 248 -21 281 c 2
 4 717 l 2
 9 729 21 737 34 737 c 2
 57 737 l 2
 68 737 75 726 71 716 c 2
 45 277 l 1
 302 277 l 1
 302 532 l 6
 302 549 316 563 334 563 c 6
 350 563 l 6
 358 563 365 556 365 548 c 6
 365 277 l 1
 438 277 l 2
EndSplineSet
EndChar

StartChar: five
Encoding: 53 53 24
Width: 616
Flags: HMW
LayerCount: 2
UndoRedoHistory
Layer: 1
Undoes
EndUndoes
Redoes
RedoOperation
Index: 0
Type: 3
WasModified: 0
WasOrder2: 0
Layer: 2
EndRedoOperation
EndRedoes
EndUndoRedoHistory
Fore
SplineSet
183 0 m 2
 82 0 0 82 0 183 c 2
 0 198 l 2
 0 207 7 214 16 214 c 2
 31 214 l 2
 49 214 63 200 63 182 c 0
 63 117 117 63 183 63 c 2
 283 63 l 2
 350 63 403 117 403 183 c 2
 403 271 l 2
 403 337 350 391 283 391 c 2
 63 391 l 2
 28 391 0 419 0 453 c 2
 0 705 l 2
 0 723 14 737 31 737 c 2
 413 737 l 2
 421 737 428 730 428 721 c 2
 428 705 l 2
 428 688 414 674 397 674 c 2
 63 674 l 1
 63 453 l 1
 283 453 l 2
 384 453 466 372 466 271 c 2
 466 183 l 2
 466 82 384 0 283 0 c 2
 183 0 l 2
EndSplineSet
EndChar

StartChar: six
Encoding: 54 54 25
Width: 616
Flags: HMW
LayerCount: 2
UndoRedoHistory
Layer: 1
Undoes
EndUndoes
Redoes
RedoOperation
Index: 0
Type: 3
WasModified: 0
WasOrder2: 0
Layer: 2
EndRedoOperation
EndRedoes
EndUndoRedoHistory
Fore
SplineSet
183 0 m 2xf4
 82 0 0 82 0 183 c 2
 0 542 l 2
 0 596 19 645 53 681 c 0
 87 717 133 737 183 737 c 2
 258 737 l 2
 359 737 441 655 441 554 c 2
 441 551 l 2
 441 542 434 535 425 535 c 2
 397 535 l 2
 386 535 378 544 378 554 c 0xf8
 378 620 324 674 258 674 c 2
 183 674 l 2
 149 674 118 660 96 635 c 0
 75 611 63 578 63 542 c 2
 63 399 l 1
 63 399 103 453 183 453 c 2
 283 453 l 2
 384 453 466 372 466 271 c 2
 466 183 l 2
 466 82 384 0 283 0 c 2
 183 0 l 2xf4
183 391 m 2
 117 391 63 337 63 271 c 2
 63 183 l 2
 63 117 117 63 183 63 c 2
 283 63 l 2
 349 63 403 117 403 183 c 2
 403 271 l 2
 403 337 349 391 283 391 c 2
 183 391 l 2
EndSplineSet
EndChar

StartChar: seven
Encoding: 55 55 26
Width: 491
Flags: HMW
LayerCount: 2
UndoRedoHistory
Layer: 1
Undoes
EndUndoes
Redoes
RedoOperation
Index: 0
Type: 3
WasModified: 1
WasOrder2: 0
Layer: 2
EndRedoOperation
EndRedoes
EndUndoRedoHistory
Fore
SplineSet
354 342 m 2
 51 344 l 6
 42.00390625 344.05078125 35 351 35 360 c 6
 35 375 l 6
 35 393 49 407 66 407 c 6
 360 407 l 2
 377 407 383.142578125 378.884765625 374 368 c 2
 370 350 l 2
 369.70703125 348.682617188 358 342 354 342 c 2
54 22 m 2
 333 674 l 1
 -59 674 l 2
 -68 674 -75 681 -75 690 c 2
 -75 705 l 2
 -75 723 -61 737 -44 737 c 2
 360 737 l 2
 377 737 391 723 391 705 c 2
 391 655 l 2
 391 651 390 647 389 643 c 2
 121 19 l 2
 116 8 105 0 92 0 c 2
 68 0 l 2
 57 0 49 11 54 22 c 2
EndSplineSet
EndChar

StartChar: eight
Encoding: 56 56 27
Width: 616
Flags: HMW
LayerCount: 2
UndoRedoHistory
Layer: 1
Undoes
EndUndoes
Redoes
RedoOperation
Index: 0
Type: 3
WasModified: 0
WasOrder2: 0
Layer: 2
EndRedoOperation
EndRedoes
EndUndoRedoHistory
Fore
SplineSet
346 405 m 1xf2
 395 405 466 352 466 246 c 2
 466 165 l 2
 466 74 392 0 301 0 c 2
 165 0 l 2
 74 0 0 74 0 165 c 2
 0 246 l 2xf2
 0 352 71 405 120 405 c 1
 69 417 25 465 25 548 c 2
 25 554 l 2
 25 655 107 737 208 737 c 2
 258 737 l 2
 359 737 441 655 441 554 c 2
 441 548 l 2xec
 441 465 397 417 346 405 c 1xf2
88 548 m 2xec
 88 482 142 428 208 428 c 2
 258 428 l 2
 324 428 378 482 378 548 c 2
 378 554 l 2
 378 620 324 674 258 674 c 2
 208 674 l 2
 142 674 88 620 88 554 c 2
 88 548 l 2xec
403 172 m 2xf2
 403 246 l 2
 403 312 349 365 283 365 c 2
 183 365 l 2
 117 365 63 312 63 246 c 2
 63 172 l 2
 63 112 112 63 172 63 c 2
 294 63 l 2
 354 63 403 112 403 172 c 2xf2
EndSplineSet
EndChar

StartChar: nine
Encoding: 57 57 28
Width: 616
Flags: HMW
LayerCount: 2
UndoRedoHistory
Layer: 1
Undoes
EndUndoes
Redoes
RedoOperation
Index: 0
Type: 3
WasModified: 0
WasOrder2: 0
Layer: 2
EndRedoOperation
EndRedoes
EndUndoRedoHistory
Fore
SplineSet
283 737 m 2xf4
 384 737 466 655 466 554 c 2
 466 195 l 2
 466 141 447 92 413 56 c 0
 379 20 333 0 283 0 c 2
 208 0 l 2
 107 0 25 82 25 183 c 2
 25 186 l 2
 25 194 32 202 41 202 c 2
 69 202 l 2
 80 202 88 193 88 183 c 0xec
 88 117 142 63 208 63 c 2
 283 63 l 2
 317 63 348 77 370 102 c 0
 391 126 403 159 403 195 c 2
 403 357 l 1
 403 357 363 302 283 302 c 2
 183 302 l 2
 82 302 0 384 0 485 c 2
 0 554 l 2
 0 655 82 737 183 737 c 2
 283 737 l 2xf4
283 365 m 2
 349 365 403 419 403 485 c 2
 403 554 l 2
 403 620 349 674 283 674 c 2
 183 674 l 2
 117 674 63 620 63 554 c 2
 63 485 l 2
 63 419 117 365 183 365 c 2
 283 365 l 2
EndSplineSet
EndChar

StartChar: colon
Encoding: 58 58 29
Width: 238
Flags: HMW
LayerCount: 2
UndoRedoHistory
Layer: 1
Undoes
UndoOperation
Index: 0
Type: 1
WasModified: 1
WasOrder2: 0
Layer: 2
Width: 238
VWidth: 1000
LBearingChange: 0
UnicodeEnc: 0
InstructionsLength: 0
SplineSet
114 284.299804688 m 4
 75.599609375 284.299804688 43.599609375 314.700195312 43.599609375 354.700195312 c 4
 43.599609375 393.099609375 75.599609375 425.099609375 114 425.099609375 c 4
 152.400390625 425.099609375 184.400390625 393.099609375 184.400390625 354.700195312 c 4
 184.400390625 314.700195312 152.400390625 284.299804688 114 284.299804688 c 4
114 13.900390625 m 4
 75.599609375 13.900390625 43.599609375 44.2998046875 43.599609375 84.2998046875 c 4
 43.599609375 122.700195312 75.599609375 154.700195312 114 154.700195312 c 4
 152.400390625 154.700195312 184.400390625 122.700195312 184.400390625 84.2998046875 c 4
 184.400390625 44.2998046875 152.400390625 13.900390625 114 13.900390625 c 4
EndSplineSet
EndUndoOperation
EndUndoes
Redoes
EndRedoes
EndUndoRedoHistory
Fore
SplineSet
114 274.299804688 m 4
 75.599609375 274.299804688 43.599609375 304.700195312 43.599609375 344.700195312 c 4
 43.599609375 383.099609375 75.599609375 415.099609375 114 415.099609375 c 4
 152.400390625 415.099609375 184.400390625 383.099609375 184.400390625 344.700195312 c 4
 184.400390625 304.700195312 152.400390625 274.299804688 114 274.299804688 c 4
114 3.900390625 m 4
 75.599609375 3.900390625 43.599609375 34.2998046875 43.599609375 74.2998046875 c 4
 43.599609375 112.700195312 75.599609375 144.700195312 114 144.700195312 c 4
 152.400390625 144.700195312 184.400390625 112.700195312 184.400390625 74.2998046875 c 4
 184.400390625 34.2998046875 152.400390625 3.900390625 114 3.900390625 c 4
EndSplineSet
EndChar

StartChar: semicolon
Encoding: 59 59 30
Width: 238
Flags: HMW
LayerCount: 2
UndoRedoHistory
Layer: 1
Undoes
UndoOperation
Index: 0
Type: 1
WasModified: 1
WasOrder2: 0
Layer: 2
Width: 238
VWidth: 1000
LBearingChange: 0
UnicodeEnc: 0
InstructionsLength: 0
SplineSet
174.400390625 62.400390625 m 4
 174.400390625 27.2001953125 169.599609375 -19.2001953125 123.200195312 -88 c 5
 100.799804688 -73.599609375 l 5
 100.799804688 -73.599609375 118.400390625 -32 118.400390625 11.2001953125 c 5
 113.599609375 11.2001953125 108.799804688 11.2001953125 104 11.2001953125 c 4
 65.599609375 11.2001953125 33.599609375 41.599609375 33.599609375 81.599609375 c 4
 33.599609375 120 65.599609375 152 104 152 c 4
 142.400390625 152 174.400390625 118.400390625 174.400390625 62.400390625 c 4
104 283.200195312 m 4
 65.599609375 283.200195312 33.599609375 313.599609375 33.599609375 353.599609375 c 4
 33.599609375 392 65.599609375 424 104 424 c 4
 142.400390625 424 174.400390625 392 174.400390625 353.599609375 c 4
 174.400390625 313.599609375 142.400390625 283.200195312 104 283.200195312 c 4
EndSplineSet
EndUndoOperation
EndUndoes
Redoes
EndRedoes
EndUndoRedoHistory
Fore
SplineSet
174.400390625 52.400390625 m 4
 174.400390625 17.2001953125 169.599609375 -29.2001953125 123.200195312 -98 c 5
 100.799804688 -83.599609375 l 5
 100.799804688 -83.599609375 118.400390625 -42 118.400390625 1.2001953125 c 5
 113.599609375 1.2001953125 108.799804688 1.2001953125 104 1.2001953125 c 4
 65.599609375 1.2001953125 33.599609375 31.599609375 33.599609375 71.599609375 c 4
 33.599609375 110 65.599609375 142 104 142 c 4
 142.400390625 142 174.400390625 108.400390625 174.400390625 52.400390625 c 4
104 273.200195312 m 4
 65.599609375 273.200195312 33.599609375 303.599609375 33.599609375 343.599609375 c 4
 33.599609375 382 65.599609375 414 104 414 c 4
 142.400390625 414 174.400390625 382 174.400390625 343.599609375 c 4
 174.400390625 303.599609375 142.400390625 273.200195312 104 273.200195312 c 4
EndSplineSet
EndChar

StartChar: less
Encoding: 60 60 31
Width: 660
Flags: HMW
LayerCount: 2
UndoRedoHistory
Layer: 1
Undoes
EndUndoes
Redoes
RedoOperation
Index: 0
Type: 3
WasModified: 0
WasOrder2: 0
Layer: 2
EndRedoOperation
EndRedoes
EndUndoRedoHistory
Fore
SplineSet
467 20 m 2
 18 335 l 2
 -5 352 -5 385 18 402 c 2
 467 717 l 2
 473 722 482 720 487 714 c 2
 507 686 l 2
 511 679 510 670 503 666 c 2
 81 368 l 1
 503 71 l 2
 510 67 511 58 507 51 c 2
 487 23 l 2
 482 17 473 15 467 20 c 2
EndSplineSet
EndChar

StartChar: equal
Encoding: 61 61 32
Width: 536
Flags: HMW
LayerCount: 2
UndoRedoHistory
Layer: 1
Undoes
EndUndoes
Redoes
RedoOperation
Index: 0
Type: 3
WasModified: 0
WasOrder2: 0
Layer: 2
EndRedoOperation
EndRedoes
EndUndoRedoHistory
Fore
SplineSet
372 230 m 2
 379 230 386 224 386 216 c 2
 386 182 l 2
 386 174 379 167 372 167 c 2
 14 167 l 2
 6 167 0 174 0 182 c 2
 0 216 l 2
 0 224 6 230 14 230 c 2
 372 230 l 2
372 399 m 2
 379 399 386 393 386 385 c 2
 386 351 l 2
 386 343 379 336 372 336 c 2
 14 336 l 2
 6 336 0 343 0 351 c 2
 0 385 l 2
 0 393 6 399 14 399 c 2
 372 399 l 2
EndSplineSet
EndChar

StartChar: greater
Encoding: 62 62 33
Width: 660
Flags: HMW
LayerCount: 2
UndoRedoHistory
Layer: 1
Undoes
EndUndoes
Redoes
RedoOperation
Index: 0
Type: 3
WasModified: 0
WasOrder2: 0
Layer: 2
EndRedoOperation
EndRedoes
EndUndoRedoHistory
Fore
SplineSet
492 335 m 2
 43 20 l 2
 37 15 28 17 23 23 c 2
 3 51 l 2
 -1 58 0 67 7 71 c 2
 429 368 l 1
 7 666 l 2
 0 670 -1 679 3 686 c 2
 23 714 l 2
 28 720 37 722 43 717 c 2
 492 402 l 2
 515 385 515 352 492 335 c 2
EndSplineSet
EndChar

StartChar: question
Encoding: 63 63 34
Width: 579
Flags: HMW
LayerCount: 2
UndoRedoHistory
Layer: 1
Undoes
EndUndoes
Redoes
RedoOperation
Index: 0
Type: 3
WasModified: 0
WasOrder2: 0
Layer: 2
EndRedoOperation
EndRedoes
EndUndoRedoHistory
Fore
SplineSet
195 0 m 0xfa
 160 0 132 28 132 63 c 0
 132 98 160 126 195 126 c 0
 230 126 258 98 258 63 c 0
 258 28 230 0 195 0 c 0xfa
164 224 m 2xf6
 164 355 l 2
 164 371 177 384 193 384 c 2
 218 384 l 2
 257 384 296 400 324 429 c 0
 351 456 366 493 365 532 c 0
 365 570 349 605 322 632 c 0
 295 659 259 674 220 674 c 2
 208 674 l 2
 128 674 63 609 63 529 c 2
 63 517 l 2
 63 500 50 486 32 485 c 0
 15 484 0 499 0 516 c 2
 0 529 l 2
 0 644 93 737 208 737 c 2
 216 737 l 2
 332 737 427 645 428 532 c 0
 429 437 366 353 275 329 c 2
 227 318 l 1
 227 224 l 2
 227 215 220 208 211 208 c 2
 179 208 l 2
 171 208 164 215 164 224 c 2xf6
EndSplineSet
EndChar

StartChar: at
Encoding: 64 64 35
Width: 856
Flags: HMW
LayerCount: 2
UndoRedoHistory
Layer: 1
Undoes
UndoOperation
Index: 0
Type: 1
WasModified: 1
WasOrder2: 0
Layer: 2
Width: 856
VWidth: 1000
LBearingChange: 0
UnicodeEnc: 0
InstructionsLength: 0
SplineSet
366 -155 m 6
 314.844726562 -155 264.580078125 -145.06640625 217.115234375 -124.80078125 c 4
 172.372070312 -105.697265625 130.928710938 -78.1630859375 96.3154296875 -42.5244140625 c 4
 60.900390625 -7.087890625 33.83203125 34.59375 15.1416015625 80.2529296875 c 4
 -3.6845703125 124.869140625 -14.068359375 172.516601562 -14.068359375 222.166015625 c 4
 -14.068359375 328.146484375 25.8681640625 423.208007812 100.555664062 495.762695312 c 4
 135.943359375 530.109375 177.559570312 557.154296875 223.252929688 575.858398438 c 4
 270.004882812 595.5859375 319.947265625 606 371 606 c 6
 486 606 l 6
 616.342773438 606 721 500.185546875 721 370 c 6
 721 65 l 6
 721 41.431640625 702.780273438 21 678 21 c 6
 366 21 l 6
 310.952148438 21 259.030273438 42.685546875 220.17578125 82.619140625 c 4
 183.541015625 121.346679688 161.963867188 171.5625 161.963867188 225.349609375 c 4
 161.963867188 282.190429688 185.143554688 332.4453125 224.62109375 370.826171875 c 4
 264.422851562 408.4765625 316.09375 429 370 429 c 6
 504 429 l 6
 526.7421875 429 545 411.462890625 545 389 c 6
 545 89 l 5
 654 89 l 5
 654 370 l 6
 654 462.721679688 578.721679688 538 486 538 c 6
 366 538 l 6
 270.610351562 538 194.009765625 496.478515625 143.778320312 444.572265625 c 4
 114.927734375 414.759765625 92.1318359375 381.43359375 76.8623046875 343.264648438 c 4
 61.5458984375 306.325195312 53.9169921875 267.831054688 53.9169921875 227.481445312 c 4
 53.9169921875 139.287109375 87.1884765625 62.0419921875 149.427734375 1.7783203125 c 4
 208.548828125 -55.435546875 287.823242188 -87 371 -87 c 6
 625 -87 l 6
 650.534179688 -87 671 -108.052734375 671 -134 c 4
 671 -141.212890625 667.510742188 -146.4140625 663.51953125 -149.853515625 c 4
 660.262695312 -152.659179688 655.819335938 -155 650 -155 c 6
 366 -155 l 6
366 361 m 6
 291.21484375 361 230 300.6796875 230 225 c 4
 230 150.302734375 291.302734375 89 366 89 c 6
 477 89 l 5
 477 361 l 5
 366 361 l 6
EndSplineSet
EndUndoOperation
EndUndoes
Redoes
EndRedoes
EndUndoRedoHistory
Fore
SplineSet
366 -165 m 6
 314.844726562 -165 264.580078125 -155.06640625 217.115234375 -134.80078125 c 4
 172.372070312 -115.697265625 130.928710938 -88.1630859375 96.3154296875 -52.5244140625 c 4
 60.900390625 -17.087890625 33.83203125 24.59375 15.1416015625 70.2529296875 c 4
 -3.6845703125 114.869140625 -14.068359375 162.516601562 -14.068359375 212.166015625 c 4
 -14.068359375 318.146484375 25.8681640625 413.208007812 100.555664062 485.762695312 c 4
 135.943359375 520.109375 177.559570312 547.154296875 223.252929688 565.858398438 c 4
 270.004882812 585.5859375 319.947265625 596 371 596 c 6
 486 596 l 6
 616.342773438 596 721 490.185546875 721 360 c 6
 721 55 l 6
 721 31.431640625 702.780273438 11 678 11 c 6
 366 11 l 6
 310.952148438 11 259.030273438 32.685546875 220.17578125 72.619140625 c 4
 183.541015625 111.346679688 161.963867188 161.5625 161.963867188 215.349609375 c 4
 161.963867188 272.190429688 185.143554688 322.4453125 224.62109375 360.826171875 c 4
 264.422851562 398.4765625 316.09375 419 370 419 c 6
 504 419 l 6
 526.7421875 419 545 401.462890625 545 379 c 6
 545 79 l 5
 654 79 l 5
 654 360 l 6
 654 452.721679688 578.721679688 528 486 528 c 6
 366 528 l 6
 270.610351562 528 194.009765625 486.478515625 143.778320312 434.572265625 c 4
 114.927734375 404.759765625 92.1318359375 371.43359375 76.8623046875 333.264648438 c 4
 61.5458984375 296.325195312 53.9169921875 257.831054688 53.9169921875 217.481445312 c 4
 53.9169921875 129.287109375 87.1884765625 52.0419921875 149.427734375 -8.2216796875 c 4
 208.548828125 -65.435546875 287.823242188 -97 371 -97 c 6
 625 -97 l 6
 650.534179688 -97 671 -118.052734375 671 -144 c 4
 671 -151.212890625 667.510742188 -156.4140625 663.51953125 -159.853515625 c 4
 660.262695312 -162.659179688 655.819335938 -165 650 -165 c 6
 366 -165 l 6
366 351 m 6
 291.21484375 351 230 290.6796875 230 215 c 4
 230 140.302734375 291.302734375 79 366 79 c 6
 477 79 l 5
 477 351 l 5
 366 351 l 6
EndSplineSet
EndChar

StartChar: A
Encoding: 65 65 36
Width: 616
Flags: HMW
LayerCount: 2
UndoRedoHistory
Layer: 1
Undoes
EndUndoes
Redoes
RedoOperation
Index: 0
Type: 3
WasModified: 0
WasOrder2: 0
Layer: 2
EndRedoOperation
EndRedoes
EndUndoRedoHistory
Fore
SplineSet
435 0 m 2
 417 0 403 14 403 31 c 2
 403 290 l 1
 63 290 l 1
 63 31 l 2
 63 14 49 0 31 0 c 2
 16 0 l 2
 7 0 0 7 0 16 c 2
 0 579 l 2
 0 666 70 737 157 737 c 2
 309 737 l 2
 396 737 466 666 466 579 c 2
 466 16 l 2
 466 7 459 0 450 0 c 2
 435 0 l 2
157 674 m 2
 105 674 63 632 63 579 c 2
 63 353 l 1
 403 353 l 1
 403 579 l 2
 403 632 361 674 309 674 c 2
 157 674 l 2
EndSplineSet
EndChar

StartChar: B
Encoding: 66 66 37
Width: 627
Flags: HMW
LayerCount: 2
UndoRedoHistory
Layer: 1
Undoes
EndUndoes
Redoes
RedoOperation
Index: 0
Type: 3
WasModified: 0
WasOrder2: 0
Layer: 2
EndRedoOperation
EndRedoes
EndUndoRedoHistory
Fore
SplineSet
381 397 m 1xf4
 452 364 502 291 502 208 c 0xf4
 502 93 409 0 294 0 c 2
 31 0 l 2
 14 0 0 14 0 31 c 2
 0 706 l 2
 0 723 14 737 31 737 c 2
 262 737 l 2
 315 737 364 721 400 692 c 0
 441 658 464 609 464 554 c 0xf8
 464 491 431 434 381 397 c 1xf4
63 674 m 1
 63 416 l 1
 262 416 l 2
 339 416 401 478 401 554 c 0xf8
 401 631 339 674 262 674 c 2
 63 674 l 1
294 63 m 2
 374 63 439 128 439 208 c 0
 439 288 374 353 294 353 c 2
 63 353 l 1
 63 63 l 1
 294 63 l 2
EndSplineSet
EndChar

StartChar: C
Encoding: 67 67 38
Width: 591
Flags: HMW
LayerCount: 2
UndoRedoHistory
Layer: 1
Undoes
EndUndoes
Redoes
RedoOperation
Index: 0
Type: 3
WasModified: 0
WasOrder2: 0
Layer: 2
EndRedoOperation
EndRedoes
EndUndoRedoHistory
Fore
SplineSet
157 0 m 2
 70 0 0 70 0 157 c 2
 0 579 l 2
 0 666 70 737 157 737 c 2
 309 737 l 2
 396 737 466 666 466 579 c 2
 466 564 l 2
 466 555 459 548 450 548 c 2
 419 548 l 2
 410 548 403 555 403 564 c 2
 403 579 l 2
 403 632 361 674 309 674 c 2
 157 674 l 2
 105 674 63 632 63 579 c 2
 63 157 l 2
 63 105 105 63 157 63 c 2
 309 63 l 2
 361 63 403 105 403 157 c 2
 403 195 l 2
 403 213 417 227 435 227 c 2
 450 227 l 2
 459 227 466 220 466 211 c 2
 466 157 l 2
 466 70 396 0 309 0 c 2
 157 0 l 2
EndSplineSet
EndChar

StartChar: D
Encoding: 68 68 39
Width: 616
Flags: HMW
LayerCount: 2
UndoRedoHistory
Layer: 1
Undoes
EndUndoes
Redoes
RedoOperation
Index: 0
Type: 3
WasModified: 0
WasOrder2: 0
Layer: 2
EndRedoOperation
EndRedoes
EndUndoRedoHistory
Fore
SplineSet
31 0 m 2
 14 0 0 14 0 31 c 2
 0 705 l 2
 0 723 14 737 31 737 c 2
 309 737 l 2
 395 737 466 666 466 579 c 2
 466 157 l 2
 466 71 395 0 309 0 c 2
 31 0 l 2
63 63 m 1
 309 63 l 2
 361 63 403 105 403 157 c 2
 403 579 l 2
 403 632 361 674 309 674 c 2
 63 674 l 1
 63 63 l 1
EndSplineSet
EndChar

StartChar: E
Encoding: 69 69 40
Width: 596
Flags: HMW
LayerCount: 2
UndoRedoHistory
Layer: 1
Undoes
EndUndoes
Redoes
RedoOperation
Index: 0
Type: 3
WasModified: 0
WasOrder2: 0
Layer: 2
EndRedoOperation
EndRedoes
EndUndoRedoHistory
Fore
SplineSet
31 0 m 2
 14 0 0 14 0 31 c 2
 0 705 l 2
 0 723 14 737 31 737 c 2
 450 737 l 2
 459 737 466 730 466 721 c 2
 466 705 l 2
 466 688 452 674 435 674 c 2
 63 674 l 1
 63 416 l 1
 359 416 l 2
 376 416 391 402 391 384 c 2
 391 368 l 2
 391 360 383 353 375 353 c 2
 63 353 l 1
 63 63 l 1
 435 63 l 2
 452 63 466 49 466 31 c 2
 466 16 l 2
 466 7 459 0 450 0 c 2
 31 0 l 2
EndSplineSet
EndChar

StartChar: F
Encoding: 70 70 41
Width: 556
Flags: HMW
LayerCount: 2
UndoRedoHistory
Layer: 1
Undoes
EndUndoes
Redoes
RedoOperation
Index: 0
Type: 3
WasModified: 0
WasOrder2: 0
Layer: 2
EndRedoOperation
EndRedoes
EndUndoRedoHistory
Fore
SplineSet
0 16 m 2
 0 705 l 2
 0 723 14 737 31 737 c 2
 450 737 l 2
 459 737 466 730 466 721 c 2
 466 705 l 2
 466 688 452 674 435 674 c 2
 63 674 l 1
 63 416 l 1
 359 416 l 2
 376 416 391 402 391 384 c 2
 391 368 l 2
 391 360 383 353 375 353 c 2
 63 353 l 1
 63 16 l 2
 63 7 56 0 47 0 c 2
 16 0 l 2
 7 0 0 7 0 16 c 2
EndSplineSet
EndChar

StartChar: G
Encoding: 71 71 42
Width: 616
Flags: HMW
LayerCount: 2
UndoRedoHistory
Layer: 1
Undoes
EndUndoes
Redoes
RedoOperation
Index: 0
Type: 3
WasModified: 0
WasOrder2: 0
Layer: 2
EndRedoOperation
EndRedoes
EndUndoRedoHistory
Fore
SplineSet
157 0 m 2
 70 0 0 70 0 157 c 2
 0 579 l 2
 0 666 70 737 157 737 c 2
 309 737 l 2
 396 737 466 666 466 579 c 2
 466 570 l 2
 466 561 459 554 450 554 c 2
 419 554 l 2
 410 554 403 561 403 570 c 2
 403 579 l 2
 403 632 361 674 309 674 c 2
 157 674 l 2
 105 674 63 632 63 579 c 2
 63 157 l 2
 63 105 105 63 157 63 c 2
 309 63 l 2
 361 63 403 105 403 157 c 2
 403 353 l 1
 283 353 l 2
 266 353 252 367 252 384 c 2
 252 400 l 2
 252 409 259 416 268 416 c 2
 435 416 l 2
 452 416 466 402 466 384 c 2
 466 157 l 2
 466 70 396 0 309 0 c 2
 157 0 l 2
EndSplineSet
EndChar

StartChar: H
Encoding: 72 72 43
Width: 616
Flags: HMW
LayerCount: 2
UndoRedoHistory
Layer: 1
Undoes
EndUndoes
Redoes
RedoOperation
Index: 0
Type: 3
WasModified: 0
WasOrder2: 0
Layer: 2
EndRedoOperation
EndRedoes
EndUndoRedoHistory
Fore
SplineSet
435 0 m 2
 417 0 403 14 403 31 c 2
 403 353 l 1
 63 353 l 1
 63 31 l 2
 63 14 49 0 31 0 c 2
 16 0 l 2
 7 0 0 7 0 16 c 2
 0 721 l 2
 0 730 7 737 16 737 c 2
 31 737 l 2
 49 737 63 723 63 705 c 2
 63 416 l 1
 403 416 l 1
 403 705 l 2
 403 723 417 737 435 737 c 2
 450 737 l 2
 459 737 466 730 466 721 c 2
 466 16 l 2
 466 7 459 0 450 0 c 2
 435 0 l 2
EndSplineSet
EndChar

StartChar: I
Encoding: 73 73 44
Width: 213
Flags: HMW
LayerCount: 2
UndoRedoHistory
Layer: 1
Undoes
EndUndoes
Redoes
RedoOperation
Index: 0
Type: 3
WasModified: 0
WasOrder2: 0
Layer: 2
EndRedoOperation
EndRedoes
EndUndoRedoHistory
Fore
SplineSet
0 16 m 2
 0 721 l 2
 0 730 7 737 16 737 c 2
 31 737 l 2
 49 737 63 723 63 705 c 2
 63 16 l 2
 63 7 56 0 47 0 c 2
 16 0 l 2
 7 0 0 7 0 16 c 2
EndSplineSet
EndChar

StartChar: J
Encoding: 74 74 45
Width: 566
Flags: HMW
LayerCount: 2
UndoRedoHistory
Layer: 1
Undoes
EndUndoes
Redoes
RedoOperation
Index: 0
Type: 3
WasModified: 0
WasOrder2: 0
Layer: 2
EndRedoOperation
EndRedoes
EndUndoRedoHistory
Fore
SplineSet
107 0 m 2
 20 0 -50 70 -50 157 c 2
 -50 236 l 2
 -50 245 -43 252 -34 252 c 2
 -19 252 l 2
 -1 252 13 238 13 220 c 2
 13 157 l 2
 13 105 55 63 107 63 c 2
 259 63 l 2
 311 63 353 105 353 157 c 2
 353 674 l 1
 208 674 l 2
 191 674 177 688 177 705 c 2
 177 721 l 2
 177 730 184 737 192 737 c 2
 385 737 l 2
 402 737 416 723 416 705 c 2
 416 157 l 2
 416 70 346 0 259 0 c 2
 107 0 l 2
EndSplineSet
EndChar

StartChar: K
Encoding: 75 75 46
Width: 609
Flags: HMW
LayerCount: 2
UndoRedoHistory
Layer: 1
Undoes
EndUndoes
Redoes
RedoOperation
Index: 0
Type: 3
WasModified: 0
WasOrder2: 0
Layer: 2
EndRedoOperation
EndRedoes
EndUndoRedoHistory
Fore
SplineSet
462 0 m 2
 452 0 443 5 437 13 c 2
 218 322 l 2
 208 337 190 346 172 346 c 2
 63 346 l 1
 63 31 l 2
 63 14 49 0 31 0 c 2
 16 0 l 2
 7 0 0 7 0 16 c 2
 0 721 l 2
 0 730 7 737 16 737 c 2
 31 737 l 2
 49 737 63 723 63 705 c 2
 63 409 l 1
 163 409 l 2
 182 409 199 418 209 433 c 2
 414 724 l 2
 420 732 430 737 440 737 c 2
 470 737 l 2
 483 737 491 723 483 712 c 2
 252 384 l 1
 506 25 l 2
 513 14 506 0 493 0 c 2
 462 0 l 2
EndSplineSet
EndChar

StartChar: L
Encoding: 76 76 47
Width: 486
Flags: HMW
LayerCount: 2
UndoRedoHistory
Layer: 1
Undoes
EndUndoes
Redoes
RedoOperation
Index: 0
Type: 3
WasModified: 0
WasOrder2: 0
Layer: 2
EndRedoOperation
EndRedoes
EndUndoRedoHistory
Fore
SplineSet
31 0 m 2
 14 0 0 14 0 31 c 2
 0 721 l 2
 0 730 7 737 16 737 c 2
 31 737 l 2
 49 737 63 723 63 705 c 2
 63 63 l 1
 384 63 l 2
 402 63 416 49 416 31 c 2
 416 16 l 2
 416 7 409 0 400 0 c 2
 31 0 l 2
EndSplineSet
EndChar

StartChar: M
Encoding: 77 77 48
Width: 742
Flags: HMW
LayerCount: 2
UndoRedoHistory
Layer: 1
Undoes
EndUndoes
Redoes
RedoOperation
Index: 0
Type: 3
WasModified: 0
WasOrder2: 0
Layer: 2
EndRedoOperation
EndRedoes
EndUndoRedoHistory
Fore
SplineSet
539 737 m 2
 576 737 l 2
 585 737 592 730 592 721 c 2
 592 16 l 2
 592 7 585 0 576 0 c 2
 561 0 l 2
 543 0 529 14 529 31 c 2
 529 612 l 1
 342 275 l 2
 337 264 326 258 314 258 c 2
 278 258 l 2
 266 258 255 264 250 275 c 2
 63 612 l 1
 63 31 l 2
 63 14 49 0 31 0 c 2
 16 0 l 2
 7 0 0 7 0 16 c 2
 0 721 l 2
 0 730 7 737 16 737 c 2
 53 737 l 2
 65 737 76 730 81 720 c 2
 296 329 l 1
 511 720 l 2
 516 730 527 737 539 737 c 2
EndSplineSet
EndChar

StartChar: N
Encoding: 78 78 49
Width: 616
Flags: HMW
LayerCount: 2
UndoRedoHistory
Layer: 1
Undoes
EndUndoes
Redoes
RedoOperation
Index: 0
Type: 3
WasModified: 0
WasOrder2: 0
Layer: 2
EndRedoOperation
EndRedoes
EndUndoRedoHistory
Fore
SplineSet
413 0 m 2
 401 0 390 6 385 17 c 2
 63 612 l 1
 63 31 l 2
 63 14 49 0 31 0 c 2
 16 0 l 2
 7 0 0 7 0 16 c 2
 0 721 l 2
 0 730 7 737 16 737 c 2
 53 737 l 2
 65 737 76 730 81 720 c 2
 403 125 l 1
 403 705 l 2
 403 723 417 737 435 737 c 2
 450 737 l 2
 459 737 466 730 466 721 c 2
 466 16 l 2
 466 7 459 0 450 0 c 2
 413 0 l 2
EndSplineSet
EndChar

StartChar: O
Encoding: 79 79 50
Width: 616
Flags: HMW
LayerCount: 2
UndoRedoHistory
Layer: 1
Undoes
EndUndoes
Redoes
RedoOperation
Index: 0
Type: 3
WasModified: 0
WasOrder2: 0
Layer: 2
EndRedoOperation
EndRedoes
EndUndoRedoHistory
Fore
SplineSet
157 0 m 2
 71 0 0 71 0 157 c 2
 0 579 l 2
 0 666 71 737 157 737 c 2
 309 737 l 2
 395 737 466 666 466 579 c 2
 466 157 l 2
 466 71 395 0 309 0 c 2
 157 0 l 2
157 674 m 2
 105 674 63 632 63 579 c 2
 63 157 l 2
 63 105 105 63 157 63 c 2
 309 63 l 2
 361 63 403 105 403 157 c 2
 403 579 l 2
 403 632 361 674 309 674 c 2
 157 674 l 2
EndSplineSet
EndChar

StartChar: P
Encoding: 80 80 51
Width: 591
Flags: HMW
LayerCount: 2
UndoRedoHistory
Layer: 1
Undoes
EndUndoes
Redoes
RedoOperation
Index: 0
Type: 3
WasModified: 0
WasOrder2: 0
Layer: 2
EndRedoOperation
EndRedoes
EndUndoRedoHistory
Fore
SplineSet
0 16 m 2
 0 705 l 2
 0 723 14 737 31 737 c 2
 309 737 l 2
 396 737 466 666 466 579 c 2
 466 447 l 2
 466 360 396 290 309 290 c 2
 63 290 l 1
 63 31 l 2
 63 14 49 0 31 0 c 2
 16 0 l 2
 7 0 0 7 0 16 c 2
63 353 m 1
 309 353 l 2
 361 353 403 395 403 447 c 2
 403 579 l 2
 403 632 361 674 309 674 c 2
 63 674 l 1
 63 353 l 1
EndSplineSet
EndChar

StartChar: Q
Encoding: 81 81 52
Width: 616
Flags: HMW
LayerCount: 2
UndoRedoHistory
Layer: 1
Undoes
EndUndoes
Redoes
RedoOperation
Index: 0
Type: 3
WasModified: 0
WasOrder2: 0
Layer: 2
EndRedoOperation
EndRedoes
EndUndoRedoHistory
Fore
SplineSet
202 -85 m 2
 202 0 l 1
 157 0 l 2
 70 0 0 70 0 157 c 2
 0 579 l 2
 0 666 70 737 157 737 c 2
 309 737 l 2
 396 737 466 666 466 579 c 2
 466 157 l 2
 466 70 396 0 309 0 c 2
 265 0 l 1
 265 -69 l 2
 265 -87 250 -101 233 -101 c 2
 217 -101 l 2
 209 -101 202 -94 202 -85 c 2
265 63 m 1
 309 63 l 2
 361 63 403 105 403 157 c 2
 403 579 l 2
 403 632 361 674 309 674 c 2
 157 674 l 2
 105 674 63 632 63 579 c 2
 63 157 l 2
 63 105 105 63 157 63 c 2
 202 63 l 1
 202 132 l 2
 202 150 216 164 233 164 c 2
 249 164 l 2
 257 164 265 157 265 148 c 2
 265 63 l 1
EndSplineSet
EndChar

StartChar: R
Encoding: 82 82 53
Width: 596
Flags: HMW
LayerCount: 2
UndoRedoHistory
Layer: 1
Undoes
EndUndoes
Redoes
RedoOperation
Index: 0
Type: 3
WasModified: 0
WasOrder2: 0
Layer: 2
EndRedoOperation
EndRedoes
EndUndoRedoHistory
Fore
SplineSet
417 0 m 2
 405 0 394 6 389 17 c 2
 248 290 l 1
 63 290 l 1
 63 31 l 2
 63 14 49 0 31 0 c 2
 16 0 l 2
 7 0 0 7 0 16 c 2
 0 705 l 2
 0 723 14 737 31 737 c 2
 309 737 l 2
 396 737 466 666 466 579 c 2
 466 447 l 2
 466 413 455 381 435 353 c 0
 416 327 388 307 357 297 c 2
 321 286 l 1
 457 23 l 2
 462 12 454 0 443 0 c 2
 417 0 l 2
63 353 m 1
 309 353 l 2
 361 353 403 395 403 447 c 2
 403 579 l 2
 403 632 361 674 309 674 c 2
 63 674 l 1
 63 353 l 1
EndSplineSet
EndChar

StartChar: S
Encoding: 83 83 54
Width: 606
Flags: HMW
LayerCount: 2
UndoRedoHistory
Layer: 1
Undoes
EndUndoes
Redoes
RedoOperation
Index: 0
Type: 3
WasModified: 0
WasOrder2: 0
Layer: 2
EndRedoOperation
EndRedoes
EndUndoRedoHistory
Fore
SplineSet
147 0 m 2xf4
 60 0 -10 70 -10 157 c 2
 -10 211 l 2
 -10 220 -3 227 6 227 c 2
 21 227 l 2
 39 227 53 213 53 195 c 2
 53 157 l 2
 53 105 95 63 147 63 c 2
 299 63 l 2
 351 63 393 105 393 157 c 2
 393 258 l 2
 393 310 351 353 299 353 c 2xf4
 147 353 l 2
 60 353 -10 423 -10 510 c 2
 -10 579 l 2
 -10 666 60 737 147 737 c 2
 273 737 l 2
 360 737 431 666 431 579 c 2
 431 564 l 2
 431 555 424 548 415 548 c 2
 384 548 l 2
 375 548 368 555 368 564 c 2
 368 579 l 2
 368 632 326 674 273 674 c 2xf8
 147 674 l 2
 95 674 53 632 53 579 c 2
 53 510 l 2
 53 458 95 416 147 416 c 2
 299 416 l 2
 386 416 456 345 456 258 c 2
 456 157 l 2
 456 70 386 0 299 0 c 2
 147 0 l 2xf4
EndSplineSet
EndChar

StartChar: T
Encoding: 84 84 55
Width: 556
Flags: HMW
LayerCount: 2
UndoRedoHistory
Layer: 1
Undoes
EndUndoes
Redoes
RedoOperation
Index: 0
Type: 3
WasModified: 0
WasOrder2: 0
Layer: 2
EndRedoOperation
EndRedoes
EndUndoRedoHistory
Fore
SplineSet
162 16 m 2
 162 674 l 1
 -39 674 l 2
 -56 674 -70 688 -70 705 c 2
 -70 721 l 2
 -70 730 -63 737 -54 737 c 2
 440 737 l 2
 449 737 456 730 456 721 c 2
 456 705 l 2
 456 688 442 674 425 674 c 2
 225 674 l 1
 225 16 l 2
 225 7 217 0 209 0 c 2
 177 0 l 2
 169 0 162 7 162 16 c 2
EndSplineSet
EndChar

StartChar: U
Encoding: 85 85 56
Width: 616
Flags: HMW
LayerCount: 2
UndoRedoHistory
Layer: 1
Undoes
EndUndoes
Redoes
RedoOperation
Index: 0
Type: 3
WasModified: 0
WasOrder2: 0
Layer: 2
EndRedoOperation
EndRedoes
EndUndoRedoHistory
Fore
SplineSet
157 0 m 2
 70 0 0 70 0 157 c 2
 0 721 l 2
 0 730 7 737 16 737 c 2
 31 737 l 2
 49 737 63 723 63 705 c 2
 63 157 l 2
 63 105 105 63 157 63 c 2
 309 63 l 2
 361 63 403 105 403 157 c 2
 403 705 l 2
 403 723 417 737 435 737 c 2
 450 737 l 2
 459 737 466 730 466 721 c 2
 466 157 l 2
 466 70 396 0 309 0 c 2
 157 0 l 2
EndSplineSet
EndChar

StartChar: V
Encoding: 86 86 57
Width: 618
Flags: HMW
LayerCount: 2
UndoRedoHistory
Layer: 1
Undoes
EndUndoes
Redoes
RedoOperation
Index: 0
Type: 3
WasModified: 0
WasOrder2: 0
Layer: 2
EndRedoOperation
EndRedoes
EndUndoRedoHistory
Fore
SplineSet
212 0 m 2xb0
 198 0 186 9 182 22 c 2
 -24 717 l 2
 -27 727 -20 737 -9 737 c 2
 12 737 l 2
 26 737 38 728 42 714 c 2
 234 68 l 1x70
 426 714 l 2
 430 728 442 737 456 737 c 2
 477 737 l 2
 488 737 495 727 492 717 c 2
 286 22 l 2
 282 9 270 0 256 0 c 2
 212 0 l 2xb0
EndSplineSet
EndChar

StartChar: W
Encoding: 87 87 58
Width: 903
Flags: HMW
LayerCount: 2
UndoRedoHistory
Layer: 1
Undoes
EndUndoes
Redoes
RedoOperation
Index: 0
Type: 3
WasModified: 0
WasOrder2: 0
Layer: 2
EndRedoOperation
EndRedoes
EndUndoRedoHistory
Fore
SplineSet
716 715 m 2
 719 728 730 737 744 737 c 2
 768 737 l 2
 777 737 784 728 782 720 c 2
 619 22 l 2
 616 9 604 0 591 0 c 2
 566 0 l 2
 553 0 542 8 539 20 c 2
 377 581 l 1
 214 20 l 2
 211 8 200 0 187 0 c 2
 162 0 l 2
 149 0 137 9 134 22 c 2
 -29 720 l 2
 -31 728 -24 737 -15 737 c 2
 9 737 l 2
 23 737 34 728 37 715 c 2
 177 117 l 1
 338 674 l 2
 341 686 352 695 365 695 c 2
 388 695 l 2
 401 695 412 686 415 674 c 2
 576 117 l 1
 716 715 l 2
EndSplineSet
EndChar

StartChar: X
Encoding: 88 88 59
Width: 601
Flags: HMW
LayerCount: 2
UndoRedoHistory
Layer: 1
Undoes
EndUndoes
Redoes
RedoOperation
Index: 0
Type: 3
WasModified: 0
WasOrder2: 0
Layer: 2
EndRedoOperation
EndRedoes
EndUndoRedoHistory
Fore
SplineSet
498 22 m 2
 505 13 498 0 487 0 c 2
 453 0 l 2
 443 0 434 5 429 13 c 2
 231 311 l 1
 33 13 l 2
 27 5 19 0 9 0 c 2
 -25 0 l 2
 -36 0 -43 13 -37 22 c 2
 193 368 l 1
 -37 715 l 2
 -43 724 -36 737 -25 737 c 2
 9 737 l 2
 19 737 27 732 33 724 c 2
 231 425 l 1
 429 724 l 2
 434 732 443 737 453 737 c 2
 487 737 l 2
 498 737 505 724 498 715 c 2
 269 368 l 1
 498 22 l 2
EndSplineSet
EndChar

StartChar: Y
Encoding: 89 89 60
Width: 546
Flags: HMW
LayerCount: 2
UndoRedoHistory
Layer: 1
Undoes
EndUndoes
Redoes
RedoOperation
Index: 0
Type: 3
WasModified: 0
WasOrder2: 0
Layer: 2
EndRedoOperation
EndRedoes
EndUndoRedoHistory
Fore
SplineSet
464 716 m 2
 229 271 l 1
 229 16 l 2
 229 7 222 0 213 0 c 2
 181 0 l 2
 173 0 166 7 166 16 c 2
 166 271 l 1
 -68 716 l 2
 -73 726 -67 737 -56 737 c 2
 -25 737 l 2
 -15 737 -5 731 0 722 c 2
 198 346 l 1
 396 722 l 2
 401 731 411 737 421 737 c 2
 452 737 l 2
 462 737 469 726 464 716 c 2
EndSplineSet
EndChar

StartChar: Z
Encoding: 90 90 61
Width: 524
Flags: HMW
LayerCount: 2
UndoRedoHistory
Layer: 1
Undoes
UndoOperation
Index: 0
Type: 1
WasModified: 1
WasOrder2: 0
Layer: 2
Width: 566
VWidth: 1000
LBearingChange: 0
UnicodeEnc: 0
InstructionsLength: 0
SplineSet
324 344 m 2
 50 344 l 6
 49.3212890625 344 51 362.63671875 51 375 c 6
 51 391 l 6
 51 400 58 407 67 407 c 6
 354 407 l 2
 394 407 385 375 385 375 c 2
 386 393 l 2
 386 393 420.36328125 344 324 344 c 2
-9 0 m 2
 -18 0 -25 7 -25 16 c 2
 -25 57 l 2
 -25 76 -20 94 -9 109 c 2
 380 674 l 1
 32 674 l 2
 14 674 0 688 0 705 c 2
 0 721 l 2
 0 730 7 737 16 737 c 2
 410 737 l 2
 427 737 441 723 441 705 c 2
 441 681 l 2
 441 662 436 644 425 628 c 2
 36 63 l 1
 410 63 l 2
 427 63 441 49 441 31 c 2
 441 16 l 2
 441 7 434 0 425 0 c 2
 -9 0 l 2
EndSplineSet
EndUndoOperation
EndUndoes
Redoes
EndRedoes
EndUndoRedoHistory
Fore
SplineSet
324 344 m 2
 51 344 l 6
 50.3212890625 344 52 362.63671875 52 375 c 6
 52 391 l 6
 52 400 59 407 68 407 c 6
 354 407 l 2
 394 407 385 375 385 375 c 2
 386 393 l 2
 386 393 420.36328125 344 324 344 c 2
-9 0 m 2
 -18 0 -25 7 -25 16 c 2
 -25 57 l 2
 -25 76 -20 94 -9 109 c 2
 380 674 l 1
 32 674 l 2
 14 674 0 688 0 705 c 2
 0 721 l 2
 0 730 7 737 16 737 c 2
 410 737 l 2
 427 737 441 723 441 705 c 2
 441 681 l 2
 441 662 436 644 425 628 c 2
 36 63 l 1
 410 63 l 2
 427 63 441 49 441 31 c 2
 441 16 l 2
 441 7 434 0 425 0 c 2
 -9 0 l 2
EndSplineSet
EndChar

StartChar: bracketleft
Encoding: 91 91 62
Width: 340
Flags: HMW
LayerCount: 2
UndoRedoHistory
Layer: 1
Undoes
EndUndoes
Redoes
RedoOperation
Index: 0
Type: 3
WasModified: 0
WasOrder2: 0
Layer: 2
EndRedoOperation
EndRedoes
EndUndoRedoHistory
Fore
SplineSet
63 745 m 2
 63 -8 l 2
 63 -16 69 -22 77 -22 c 2
 175 -22 l 2
 183 -22 190 -28 190 -36 c 2
 190 -71 l 2
 190 -79 183 -85 175 -85 c 2
 71 -85 l 2
 32 -85 0 -53 0 -14 c 2
 0 751 l 2
 0 790 32 822 71 822 c 2
 175 822 l 2
 183 822 190 816 190 808 c 2
 190 773 l 2
 190 765 183 759 175 759 c 2
 77 759 l 2
 69 759 63 753 63 745 c 2
EndSplineSet
EndChar

StartChar: backslash
Encoding: 92 92 63
Width: 475
Flags: HMW
LayerCount: 2
UndoRedoHistory
Layer: 1
Undoes
EndUndoes
Redoes
RedoOperation
Index: 0
Type: 3
WasModified: 0
WasOrder2: 0
Layer: 2
EndRedoOperation
EndRedoes
EndUndoRedoHistory
Fore
SplineSet
310 0 m 2
 273 0 l 2
 267 0 262 4 260 9 c 2
 2 718 l 2
 -2 727 5 737 15 737 c 2
 52 737 l 2
 58 737 63 733 65 728 c 2
 323 19 l 2
 327 10 320 0 310 0 c 2
EndSplineSet
EndChar

StartChar: bracketright
Encoding: 93 93 64
Width: 340
Flags: HMW
LayerCount: 2
UndoRedoHistory
Layer: 1
Undoes
EndUndoes
Redoes
RedoOperation
Index: 0
Type: 3
WasModified: 0
WasOrder2: 0
Layer: 2
EndRedoOperation
EndRedoes
EndUndoRedoHistory
Fore
SplineSet
127 -8 m 2
 127 745 l 2
 127 753 121 759 113 759 c 2
 15 759 l 2
 7 759 0 765 0 773 c 2
 0 808 l 2
 0 816 7 822 15 822 c 2
 119 822 l 2
 158 822 190 790 190 751 c 2
 190 -14 l 2
 190 -53 158 -85 119 -85 c 2
 15 -85 l 2
 7 -85 0 -79 0 -71 c 2
 0 -36 l 2
 0 -28 7 -22 15 -22 c 2
 113 -22 l 2
 121 -22 127 -16 127 -8 c 2
EndSplineSet
EndChar

StartChar: asciicircum
Encoding: 94 94 65
Width: 431
Flags: HMW
LayerCount: 2
UndoRedoHistory
Layer: 1
Undoes
UndoOperation
Index: 0
Type: 1
WasModified: 1
WasOrder2: 0
Layer: 2
Width: 431
VWidth: 1000
LBearingChange: 0
UnicodeEnc: 0
InstructionsLength: 0
SplineSet
107.599609375 493.599609375 m 6
 103.400390625 489.400390625 99.2001953125 486.599609375 93.599609375 486.599609375 c 6
 22.2001953125 486.599609375 l 6
 15.2001953125 486.599609375 11 496.400390625 16.599609375 500.599609375 c 6
 173.400390625 657.400390625 l 6
 193 678.400390625 226.599609375 678.400390625 247.599609375 657.400390625 c 6
 404.400390625 500.599609375 l 6
 410 496.400390625 405.799804688 486.599609375 398.799804688 486.599609375 c 6
 327.400390625 486.599609375 l 6
 321.799804688 486.599609375 317.599609375 489.400390625 313.400390625 493.599609375 c 6
 226.599609375 580.400390625 l 6
 216.799804688 588.799804688 202.799804688 588.799804688 194.400390625 580.400390625 c 6
 107.599609375 493.599609375 l 6
EndSplineSet
EndUndoOperation
EndUndoes
Redoes
EndRedoes
EndUndoRedoHistory
Fore
SplineSet
107.599609375 503.599609375 m 6
 103.400390625 499.400390625 99.2001953125 496.599609375 93.599609375 496.599609375 c 6
 22.2001953125 496.599609375 l 6
 15.2001953125 496.599609375 11 506.400390625 16.599609375 510.599609375 c 6
 173.400390625 667.400390625 l 6
 193 688.400390625 226.599609375 688.400390625 247.599609375 667.400390625 c 6
 404.400390625 510.599609375 l 6
 410 506.400390625 405.799804688 496.599609375 398.799804688 496.599609375 c 6
 327.400390625 496.599609375 l 6
 321.799804688 496.599609375 317.599609375 499.400390625 313.400390625 503.599609375 c 6
 226.599609375 590.400390625 l 6
 216.799804688 598.799804688 202.799804688 598.799804688 194.400390625 590.400390625 c 6
 107.599609375 503.599609375 l 6
EndSplineSet
EndChar

StartChar: underscore
Encoding: 95 95 66
Width: 729
Flags: HMW
LayerCount: 2
UndoRedoHistory
Layer: 1
Undoes
EndUndoes
Redoes
RedoOperation
Index: 0
Type: 3
WasModified: 0
WasOrder2: 0
Layer: 2
EndRedoOperation
EndRedoes
EndUndoRedoHistory
Fore
SplineSet
579 43 m 2
 579 20 l 2
 579 9 570 0 559 0 c 2
 20 0 l 2
 9 0 0 9 0 20 c 2
 0 43 l 2
 0 54 9 63 20 63 c 2
 559 63 l 2
 570 63 579 54 579 43 c 2
EndSplineSet
EndChar

StartChar: grave
Encoding: 96 96 67
Width: 274
Flags: HMW
LayerCount: 2
UndoRedoHistory
Layer: 1
Undoes
UndoOperation
Index: 0
Type: 1
WasModified: 1
WasOrder2: 0
Layer: 2
Width: 274
VWidth: 1000
LBearingChange: 0
UnicodeEnc: 0
InstructionsLength: 0
SplineSet
217.400390625 541.200195312 m 4
 214.799804688 537.299804688 208.299804688 537.299804688 204.400390625 541.200195312 c 6
 10.7001953125 733.599609375 l 6
 2.900390625 741.400390625 2.900390625 754.400390625 10.7001953125 763.5 c 6
 26.2998046875 777.799804688 l 6
 34.099609375 785.599609375 44.5 790.799804688 54.900390625 790.799804688 c 4
 69.2001953125 790.799804688 80.900390625 784.299804688 88.7001953125 773.900390625 c 6
 221.299804688 594.5 l 6
 234.299804688 577.599609375 231.700195312 555.5 217.400390625 541.200195312 c 4
EndSplineSet
EndUndoOperation
EndUndoes
Redoes
EndRedoes
EndUndoRedoHistory
Fore
SplineSet
227.400390625 541.200195312 m 4
 224.799804688 537.299804688 218.299804688 537.299804688 214.400390625 541.200195312 c 6
 20.7001953125 733.599609375 l 6
 12.900390625 741.400390625 12.900390625 754.400390625 20.7001953125 763.5 c 6
 36.2998046875 777.799804688 l 6
 44.099609375 785.599609375 54.5 790.799804688 64.900390625 790.799804688 c 4
 79.2001953125 790.799804688 90.900390625 784.299804688 98.7001953125 773.900390625 c 6
 231.299804688 594.5 l 6
 244.299804688 577.599609375 241.700195312 555.5 227.400390625 541.200195312 c 4
EndSplineSet
EndChar

StartChar: a
Encoding: 97 97 68
Width: 541
Flags: HW
LayerCount: 2
UndoRedoHistory
Layer: 1
Undoes
EndUndoes
Redoes
RedoOperation
Index: 0
Type: 3
WasModified: 0
WasOrder2: 0
Layer: 2
EndRedoOperation
EndRedoes
EndUndoRedoHistory
Fore
SplineSet
107 -1 m 2
 20 -1 -50 70 -50 157 c 2
 -50 182 l 2
 -50 269 20 339 107 339 c 2
 328 339 l 1
 328 409 l 2
 328 461 286 503 233 503 c 2
 70 503 l 2
 52 503 38 517 38 535 c 2
 38 550 l 2
 38 559 45 566 54 566 c 2
 233 566 l 2
 320 566 391 496 391 409 c 2
 391 31 l 2
 391 13 377 -1 359 -1 c 2
 107 -1 l 2
107 276 m 2
 55 276 13 234 13 182 c 2
 13 157 l 2
 13 105 55 62 107 62 c 2
 328 62 l 1
 328 276 l 1
 107 276 l 2
EndSplineSet
EndChar

StartChar: b
Encoding: 98 98 69
Width: 591
Flags: HW
LayerCount: 2
UndoRedoHistory
Layer: 1
Undoes
EndUndoes
Redoes
RedoOperation
Index: 0
Type: 3
WasModified: 0
WasOrder2: 0
Layer: 2
EndRedoOperation
EndRedoes
EndUndoRedoHistory
Fore
SplineSet
0 15 m 2
 0 721 l 2
 0 729 7 736 16 736 c 2
 31 736 l 2
 49 736 63 722 63 705 c 2
 63 566 l 1
 283 566 l 2
 370 566 441 496 441 409 c 2
 441 157 l 2
 441 70 370 -1 283 -1 c 2
 16 -1 l 2
 7 -1 0 6 0 15 c 2
63 62 m 1
 283 62 l 2
 336 62 378 105 378 157 c 2
 378 409 l 2
 378 461 336 503 283 503 c 2
 63 503 l 1
 63 62 l 1
EndSplineSet
EndChar

StartChar: c
Encoding: 99 99 70
Width: 549
Flags: HW
LayerCount: 2
UndoRedoHistory
Layer: 1
Undoes
EndUndoes
Redoes
RedoOperation
Index: 0
Type: 3
WasModified: 0
WasOrder2: 0
Layer: 2
EndRedoOperation
EndRedoes
EndUndoRedoHistory
Fore
SplineSet
157 -1 m 2
 70 -1 0 70 0 157 c 2
 0 409 l 2
 0 496 70 566 157 566 c 2
 283 566 l 2
 321 566 358 553 386 528 c 0
 407 510 423 487 432 461 c 0
 436 451 428 440 417 440 c 2
 384 440 l 2
 377 440 371 444 369 450 c 0
 353 482 320 503 283 503 c 2
 157 503 l 2
 105 503 63 461 63 409 c 2
 63 157 l 2
 63 105 105 62 157 62 c 2
 283 62 l 2
 320 62 353 84 369 116 c 0
 371 122 377 125 383 125 c 2
 417 125 l 2
 428 125 436 115 432 104 c 0
 423 79 407 56 386 38 c 0
 358 13 321 -1 283 -1 c 2
 157 -1 l 2
EndSplineSet
EndChar

StartChar: d
Encoding: 100 100 71
Width: 591
Flags: HW
LayerCount: 2
UndoRedoHistory
Layer: 1
Undoes
EndUndoes
Redoes
RedoOperation
Index: 0
Type: 3
WasModified: 0
WasOrder2: 0
Layer: 2
EndRedoOperation
EndRedoes
EndUndoRedoHistory
Fore
SplineSet
157 -1 m 2
 70 -1 0 70 0 157 c 2
 0 409 l 2
 0 496 70 566 157 566 c 2
 378 566 l 1
 378 705 l 2
 378 722 392 736 409 736 c 2
 425 736 l 2
 434 736 441 729 441 721 c 2
 441 15 l 2
 441 6 434 -1 425 -1 c 2
 157 -1 l 2
157 503 m 2
 105 503 63 461 63 409 c 2
 63 157 l 2
 63 105 105 62 157 62 c 2
 378 62 l 1
 378 503 l 1
 157 503 l 2
EndSplineSet
EndChar

StartChar: e
Encoding: 101 101 72
Width: 591
Flags: HW
CounterMasks: 1 e0
LayerCount: 2
UndoRedoHistory
Layer: 1
Undoes
EndUndoes
Redoes
RedoOperation
Index: 0
Type: 3
WasModified: 0
WasOrder2: 0
Layer: 2
EndRedoOperation
EndRedoes
EndUndoRedoHistory
Fore
SplineSet
157 -1 m 2
 70 -1 0 70 0 157 c 2
 0 409 l 2
 0 496 70 566 157 566 c 2
 283 566 l 2
 370 566 441 496 441 409 c 2
 441 283 l 2
 441 265 427 251 409 251 c 2
 63 251 l 1
 63 157 l 2
 63 105 105 62 157 62 c 2
 283 62 l 2
 320 62 353 84 369 116 c 0
 371 122 377 125 383 125 c 2
 417 125 l 2
 428 125 436 115 432 104 c 0
 423 79 407 56 386 38 c 0
 358 13 321 -1 283 -1 c 2
 157 -1 l 2
157 503 m 2
 105 503 63 461 63 409 c 2
 63 314 l 1
 378 314 l 1
 378 409 l 2
 378 461 336 503 283 503 c 2
 157 503 l 2
EndSplineSet
EndChar

StartChar: f
Encoding: 102 102 73
Width: 402
Flags: W
LayerCount: 2
UndoRedoHistory
Layer: 1
Undoes
EndUndoes
Redoes
RedoOperation
Index: 0
Type: 3
WasModified: 0
WasOrder2: 0
Layer: 2
EndRedoOperation
EndRedoes
EndUndoRedoHistory
Fore
SplineSet
0 580 m 2
 0 667 70 737 157 737 c 2
 287 737 l 2
 295 737 302 730 302 722 c 2
 302 706 l 2
 302 688 288 674 271 674 c 2
 157 674 l 2
 105 674 63 632 63 580 c 2
 63 479 l 1
 274 479 l 2
 283 479 290 472 290 463 c 2
 290 448 l 2
 290 430 276 416 258 416 c 2
 63 416 l 1
 63 16 l 2
 63 7 56 0 47 0 c 2
 16 0 l 2
 7 0 0 7 0 16 c 2
 0 580 l 2
EndSplineSet
EndChar

StartChar: g
Encoding: 103 103 74
Width: 591
Flags: HW
LayerCount: 2
UndoRedoHistory
Layer: 1
Undoes
EndUndoes
Redoes
RedoOperation
Index: 0
Type: 3
WasModified: 0
WasOrder2: 0
Layer: 2
EndRedoOperation
EndRedoes
EndUndoRedoHistory
Fore
SplineSet
88 -155 m 2
 88 -139 l 2
 88 -122 102 -108 120 -108 c 2
 283 -108 l 2
 336 -108 378 -65 378 -13 c 2
 378 37 l 1
 157 37 l 2
 70 37 0 108 0 195 c 2
 0 409 l 2
 0 496 70 566 157 566 c 2
 425 566 l 2
 434 566 441 559 441 550 c 2
 441 -13 l 2
 441 -100 370 -171 283 -171 c 2
 104 -171 l 2
 95 -171 88 -164 88 -155 c 2
157 503 m 2
 105 503 63 461 63 409 c 2
 63 195 l 2
 63 142 105 100 157 100 c 2
 378 100 l 1
 378 503 l 1
 157 503 l 2
EndSplineSet
EndChar

StartChar: h
Encoding: 104 104 75
Width: 591
Flags: HW
LayerCount: 2
UndoRedoHistory
Layer: 1
Undoes
EndUndoes
Redoes
RedoOperation
Index: 0
Type: 3
WasModified: 0
WasOrder2: 0
Layer: 2
EndRedoOperation
EndRedoes
EndUndoRedoHistory
Fore
SplineSet
378 15 m 2
 378 409 l 2
 378 461 336 503 283 503 c 2
 63 503 l 1
 63 15 l 2
 63 6 56 -1 47 -1 c 2
 16 -1 l 2
 7 -1 0 6 0 15 c 2
 0 721 l 2
 0 729 7 736 16 736 c 2
 31 736 l 2
 49 736 63 722 63 705 c 2
 63 566 l 1
 283 566 l 2
 370 566 441 496 441 409 c 2
 441 15 l 2
 441 6 434 -1 425 -1 c 2
 394 -1 l 2
 385 -1 378 6 378 15 c 2
EndSplineSet
EndChar

StartChar: i
Encoding: 105 105 76
Width: 213
Flags: HW
LayerCount: 2
UndoRedoHistory
Layer: 1
Undoes
EndUndoes
Redoes
RedoOperation
Index: 0
Type: 3
WasModified: 0
WasOrder2: 0
Layer: 2
EndRedoOperation
EndRedoes
EndUndoRedoHistory
Fore
SplineSet
0 15 m 2
 0 550 l 2
 0 559 7 566 16 566 c 2
 47 566 l 2
 56 566 63 559 63 550 c 2
 63 15 l 2
 63 6 56 -1 47 -1 c 2
 16 -1 l 2
 7 -1 0 6 0 15 c 2
0 683 m 2
 0 714 l 2
 0 723 7 730 16 730 c 2
 31 730 l 2
 49 730 63 716 63 699 c 2
 63 683 l 2
 63 674 56 667 47 667 c 2
 16 667 l 2
 7 667 0 674 0 683 c 2
EndSplineSet
EndChar

StartChar: j
Encoding: 106 106 77
Width: 227
Flags: HW
LayerCount: 2
UndoRedoHistory
Layer: 1
Undoes
EndUndoes
Redoes
RedoOperation
Index: 0
Type: 3
WasModified: 0
WasOrder2: 0
Layer: 2
EndRedoOperation
EndRedoes
EndUndoRedoHistory
Fore
SplineSet
-150 -155 m 2
 -150 -139 l 2
 -150 -122 -136 -108 -119 -108 c 2
 -81 -108 l 2
 -29 -108 14 -65 14 -13 c 2
 14 550 l 2
 14 559 21 566 29 566 c 2
 61 566 l 2
 70 566 77 559 77 550 c 2
 77 -13 l 2
 77 -100 6 -171 -81 -171 c 2
 -134 -171 l 2
 -143 -171 -150 -164 -150 -155 c 2
14 683 m 2
 14 714 l 2
 14 723 21 730 29 730 c 2
 45 730 l 2
 63 730 77 716 77 699 c 2
 77 683 l 2
 77 674 70 667 61 667 c 2
 29 667 l 2
 21 667 14 674 14 683 c 2
EndSplineSet
EndChar

StartChar: k
Encoding: 107 107 78
Width: 543
Flags: HW
LayerCount: 2
UndoRedoHistory
Layer: 1
Undoes
EndUndoes
Redoes
RedoOperation
Index: 0
Type: 3
WasModified: 0
WasOrder2: 0
Layer: 2
EndRedoOperation
EndRedoes
EndUndoRedoHistory
Fore
SplineSet
394 -1 m 2
 385 -1 376 4 370 11 c 2
 180 251 l 1
 63 251 l 1
 63 15 l 2
 63 6 56 -1 47 -1 c 2
 16 -1 l 2
 7 -1 0 6 0 15 c 2
 0 721 l 2
 0 729 7 736 16 736 c 2
 31 736 l 2
 49 736 63 722 63 705 c 2
 63 314 l 1
 176 314 l 1
 346 555 l 2
 352 562 361 566 371 566 c 2
 406 566 l 2
 419 566 426 552 419 541 c 2
 236 282 l 1
 439 25 l 2
 447 14 440 -1 427 -1 c 2
 394 -1 l 2
EndSplineSet
EndChar

StartChar: l
Encoding: 108 108 79
Width: 213
Flags: HW
LayerCount: 2
UndoRedoHistory
Layer: 1
Undoes
EndUndoes
Redoes
RedoOperation
Index: 0
Type: 3
WasModified: 0
WasOrder2: 0
Layer: 2
EndRedoOperation
EndRedoes
EndUndoRedoHistory
Fore
SplineSet
0 16 m 2
 0 721 l 2
 0 730 7 737 16 737 c 2
 31 737 l 2
 49 737 63 723 63 705 c 2
 63 16 l 2
 63 7 56 0 47 0 c 2
 16 0 l 2
 7 0 0 7 0 16 c 2
EndSplineSet
EndChar

StartChar: m
Encoding: 109 109 80
Width: 969
Flags: HW
CounterMasks: 1 38
LayerCount: 2
UndoRedoHistory
Layer: 1
Undoes
EndUndoes
Redoes
RedoOperation
Index: 0
Type: 3
WasModified: 0
WasOrder2: 0
Layer: 2
EndRedoOperation
EndRedoes
EndUndoRedoHistory
Fore
SplineSet
661 567 m 2
 748 567 819 496 819 409 c 2
 819 16 l 2
 819 7 812 0 803 0 c 2
 772 0 l 2
 763 0 756 7 756 16 c 2
 756 409 l 2
 756 462 714 504 661 504 c 2
 535 504 l 1
 535 504 l 1
 483 504 441 461 441 409 c 1
 441 409 441 409 441 409 c 1
 441 16 l 2
 441 7 434 0 425 0 c 1
 425 0 l 1
 394 0 l 1
 394 0 l 1
 385 0 378 7 378 16 c 2
 378 409 l 1
 378 409 378 409 378 409 c 1
 378 462 336 504 283 504 c 2
 63 504 l 1
 63 16 l 2
 63 7 56 0 47 0 c 2
 16 0 l 2
 7 0 0 7 0 16 c 2
 0 551 l 2
 0 560 7 567 16 567 c 2
 283 567 l 2
 335 567 381 542 409 504 c 1
 438 542 483 566 534 567 c 1
 534 567 l 1
 661 567 l 2
EndSplineSet
EndChar

StartChar: n
Encoding: 110 110 81
Width: 591
Flags: HW
LayerCount: 2
UndoRedoHistory
Layer: 1
Undoes
EndUndoes
Redoes
RedoOperation
Index: 0
Type: 3
WasModified: 0
WasOrder2: 0
Layer: 2
EndRedoOperation
EndRedoes
EndUndoRedoHistory
Fore
SplineSet
378 16 m 2
 378 409 l 2
 378 462 336 504 283 504 c 2
 63 504 l 1
 63 16 l 2
 63 7 56 0 47 0 c 2
 16 0 l 2
 7 0 0 7 0 16 c 2
 0 551 l 2
 0 560 7 567 16 567 c 2
 283 567 l 2
 370 567 441 496 441 409 c 2
 441 16 l 2
 441 7 434 0 425 0 c 2
 394 0 l 2
 385 0 378 7 378 16 c 2
EndSplineSet
EndChar

StartChar: o
Encoding: 111 111 82
Width: 591
Flags: HW
LayerCount: 2
UndoRedoHistory
Layer: 1
Undoes
EndUndoes
Redoes
RedoOperation
Index: 0
Type: 3
WasModified: 0
WasOrder2: 0
Layer: 2
EndRedoOperation
EndRedoes
EndUndoRedoHistory
Fore
SplineSet
157 0 m 2
 71 0 0 70 0 157 c 2
 0 409 l 2
 0 496 71 566 157 566 c 2
 283 566 l 2
 370 566 441 496 441 409 c 2
 441 157 l 2
 441 70 370 0 283 0 c 2
 157 0 l 2
157 503 m 2
 105 503 63 461 63 409 c 2
 63 157 l 2
 63 105 105 63 157 63 c 2
 283 63 l 2
 336 63 378 105 378 157 c 2
 378 409 l 2
 378 461 336 503 283 503 c 2
 157 503 l 2
EndSplineSet
EndChar

StartChar: p
Encoding: 112 112 83
Width: 591
Flags: HW
LayerCount: 2
UndoRedoHistory
Layer: 1
Undoes
EndUndoes
Redoes
RedoOperation
Index: 0
Type: 3
WasModified: 0
WasOrder2: 0
Layer: 2
EndRedoOperation
EndRedoes
EndUndoRedoHistory
Fore
SplineSet
0 -155 m 2
 0 551 l 2
 0 559 7 566 16 566 c 2
 283 566 l 2
 370 566 441 496 441 409 c 2
 441 157 l 2
 441 70 370 0 283 0 c 2
 63 0 l 1
 63 -139 l 2
 63 -156 49 -171 31 -171 c 2
 16 -171 l 2
 7 -171 0 -164 0 -155 c 2
63 63 m 1
 283 63 l 2
 336 63 378 105 378 157 c 2
 378 409 l 2
 378 461 336 503 283 503 c 2
 63 503 l 1
 63 63 l 1
EndSplineSet
EndChar

StartChar: q
Encoding: 113 113 84
Width: 591
Flags: HW
LayerCount: 2
UndoRedoHistory
Layer: 1
Undoes
EndUndoes
Redoes
RedoOperation
Index: 0
Type: 3
WasModified: 0
WasOrder2: 0
Layer: 2
EndRedoOperation
EndRedoes
EndUndoRedoHistory
Fore
SplineSet
409 -171 m 2
 392 -171 378 -156 378 -139 c 2
 378 0 l 1
 157 0 l 2
 70 0 0 70 0 157 c 2
 0 409 l 2
 0 496 70 566 157 566 c 2
 425 566 l 2
 434 566 441 559 441 551 c 2
 441 -155 l 2
 441 -164 434 -171 425 -171 c 2
 409 -171 l 2
157 503 m 2
 105 503 63 461 63 409 c 2
 63 157 l 2
 63 105 105 63 157 63 c 2
 378 63 l 1
 378 503 l 1
 157 503 l 2
EndSplineSet
EndChar

StartChar: r
Encoding: 114 114 85
Width: 365
Flags: HW
LayerCount: 2
UndoRedoHistory
Layer: 1
Undoes
EndUndoes
Redoes
RedoOperation
Index: 0
Type: 3
WasModified: 0
WasOrder2: 0
Layer: 2
EndRedoOperation
EndRedoes
EndUndoRedoHistory
Fore
SplineSet
0 15 m 2
 0 409 l 2
 0 496 70 566 157 566 c 2
 249 566 l 2
 257 566 265 559 265 551 c 2
 265 535 l 2
 265 518 250 503 233 503 c 2
 157 503 l 2
 105 503 63 461 63 409 c 2
 63 15 l 2
 63 7 56 0 47 0 c 2
 16 0 l 2
 7 0 0 7 0 15 c 2
EndSplineSet
EndChar

StartChar: s
Encoding: 115 115 86
Width: 533
Flags: HW
LayerCount: 2
UndoRedoHistory
Layer: 1
Undoes
EndUndoes
Redoes
RedoOperation
Index: 0
Type: 3
WasModified: 0
WasOrder2: 0
Layer: 2
EndRedoOperation
EndRedoes
EndUndoRedoHistory
Fore
SplineSet
-24 15 m 2
 -24 31 l 2
 -24 48 -10 63 7 63 c 2
 259 63 l 2
 285 63 310 73 328 92 c 0
 346 111 355 136 354 162 c 0
 353 186 342 209 323 226 c 0
 305 242 282 251 258 251 c 2
 133 251 l 2
 92 251 53 268 23 297 c 0
 -7 326 -23 365 -24 406 c 0
 -25 448 -9 487 21 518 c 0
 52 549 94 566 137 566 c 2
 349 566 l 2
 358 566 365 559 365 551 c 2
 365 535 l 2
 365 518 351 503 333 503 c 2
 133 503 l 2
 108 503 83 493 65 474 c 0
 47 455 38 430 39 404 c 0
 40 380 51 357 70 340 c 0
 88 324 111 314 135 314 c 2
 256 314 l 2
 299 314 341 297 372 266 c 0
 402 235 418 196 417 154 c 0
 416 113 399 74 370 45 c 0
 340 16 301 0 259 0 c 2
 -8 0 l 2
 -17 0 -24 7 -24 15 c 2
EndSplineSet
EndChar

StartChar: t
Encoding: 116 116 87
Width: 365
Flags: HW
LayerCount: 2
UndoRedoHistory
Layer: 1
Undoes
EndUndoes
Redoes
RedoOperation
Index: 0
Type: 3
WasModified: 0
WasOrder2: 0
Layer: 2
EndRedoOperation
EndRedoes
EndUndoRedoHistory
Fore
SplineSet
157 0 m 2
 70 0 0 70 0 157 c 2
 0 661 l 2
 0 669 7 677 16 677 c 2
 47 677 l 2
 56 677 63 669 63 661 c 2
 63 566 l 1
 208 566 l 2
 225 566 239 552 239 535 c 2
 239 519 l 2
 239 511 232 503 224 503 c 2
 63 503 l 1
 63 157 l 2
 63 105 105 63 157 63 c 2
 233 63 l 2
 250 63 265 48 265 31 c 2
 265 15 l 2
 265 7 257 0 249 0 c 2
 157 0 l 2
EndSplineSet
EndChar

StartChar: u
Encoding: 117 117 88
Width: 591
Flags: HW
LayerCount: 2
UndoRedoHistory
Layer: 1
Undoes
EndUndoes
Redoes
RedoOperation
Index: 0
Type: 3
WasModified: 0
WasOrder2: 0
Layer: 2
EndRedoOperation
EndRedoes
EndUndoRedoHistory
Fore
SplineSet
157 0 m 2
 70 0 0 70 0 157 c 2
 0 551 l 2
 0 559 7 566 16 566 c 2
 31 566 l 2
 49 566 63 552 63 535 c 2
 63 157 l 2
 63 105 105 63 157 63 c 2
 283 63 l 2
 336 63 378 105 378 157 c 2
 378 535 l 2
 378 552 392 566 409 566 c 2
 425 566 l 2
 434 566 441 559 441 551 c 2
 441 157 l 2
 441 70 370 0 283 0 c 2
 157 0 l 2
EndSplineSet
EndChar

StartChar: v
Encoding: 118 118 89
Width: 536
Flags: HW
LayerCount: 2
UndoRedoHistory
Layer: 1
Undoes
EndUndoes
Redoes
RedoOperation
Index: 0
Type: 3
WasModified: 0
WasOrder2: 0
Layer: 2
EndRedoOperation
EndRedoes
EndUndoRedoHistory
Fore
SplineSet
174 0 m 2xb0
 161 0 149 8 144 20 c 2
 -48 545 l 2
 -52 556 -44 566 -33 566 c 2
 -11 566 l 2
 2 566 14 558 19 546 c 2
 193 71 l 1x70
 367 546 l 2
 372 558 384 566 397 566 c 2
 419 566 l 2
 430 566 438 556 434 545 c 2
 242 20 l 2
 237 8 225 0 212 0 c 2
 174 0 l 2xb0
EndSplineSet
EndChar

StartChar: w
Encoding: 119 119 90
Width: 876
Flags: HW
LayerCount: 2
UndoRedoHistory
Layer: 1
Undoes
EndUndoes
Redoes
RedoOperation
Index: 0
Type: 3
WasModified: 0
WasOrder2: 0
Layer: 2
EndRedoOperation
EndRedoes
EndUndoRedoHistory
Fore
SplineSet
775 547 m 2xb0
 584 19 l 2
 580 7 570 0 558 0 c 2
 531 0 l 2
 519 0 508 8 504 20 c 2
 368 440 l 1
 232 20 l 2
 229 8 218 0 205 0 c 2
 179 0 l 2
 167 0 156 7 152 19 c 2
 -38 547 l 2
 -42 556 -35 566 -25 566 c 2
 2 566 l 2
 14 566 25 558 29 547 c 2
 191 98 l 1
 329 526 l 2
 333 538 344 546 356 546 c 2
 380 546 l 2
 393 546 404 538 407 526 c 2
 546 98 l 1x70
 708 547 l 2
 712 558 723 566 735 566 c 2
 761 566 l 2
 771 566 778 556 775 547 c 2xb0
EndSplineSet
EndChar

StartChar: x
Encoding: 120 120 91
Width: 557
Flags: HW
LayerCount: 2
UndoRedoHistory
Layer: 1
Undoes
EndUndoes
Redoes
RedoOperation
Index: 0
Type: 3
WasModified: 0
WasOrder2: 0
Layer: 2
EndRedoOperation
EndRedoes
EndUndoRedoHistory
Fore
SplineSet
399 0 m 2
 389 0 380 4 374 12 c 2
 211 230 l 1
 48 12 l 2
 42 4 33 0 23 0 c 2
 -8 0 l 2
 -21 0 -29 14 -21 25 c 2
 172 283 l 1
 -21 541 l 2
 -29 552 -21 566 -8 566 c 2
 23 566 l 2
 33 566 42 562 48 554 c 2
 211 336 l 1
 374 554 l 2
 380 562 389 566 399 566 c 2
 430 566 l 2
 443 566 451 552 443 541 c 2
 250 283 l 1
 443 25 l 2
 451 14 443 0 430 0 c 2
 399 0 l 2
EndSplineSet
EndChar

StartChar: y
Encoding: 121 121 92
Width: 571
Flags: HW
LayerCount: 2
UndoRedoHistory
Layer: 1
Undoes
EndUndoes
Redoes
RedoOperation
Index: 0
Type: 3
WasModified: 0
WasOrder2: 0
Layer: 2
EndRedoOperation
EndRedoes
EndUndoRedoHistory
Fore
SplineSet
137 -149 m 2
 184 -20 l 1
 -23 545 l 2
 -27 556 -19 566 -8 566 c 2
 14 566 l 2
 27 566 39 558 44 546 c 2
 218 71 l 1
 392 546 l 2
 397 558 409 566 422 566 c 2
 444 566 l 2
 455 566 463 556 459 545 c 2
 204 -150 l 2
 199 -162 187 -171 174 -171 c 2
 151 -171 l 2
 141 -171 133 -160 137 -149 c 2
EndSplineSet
EndChar

StartChar: z
Encoding: 122 122 93
Width: 423
Flags: HW
LayerCount: 2
UndoRedoHistory
Layer: 1
Undoes
UndoOperation
Index: 0
Type: 1
WasModified: 1
WasOrder2: 0
Layer: 2
Width: 554
VWidth: 1000
LBearingChange: 0
UnicodeEnc: 0
InstructionsLength: 0
SplineSet
359 262 m 6
 79 263 l 2
 62.001953125 263.045898438 48 278 48 295 c 2
 48 311 l 2
 48 319 55 326 63 326 c 2
 338 326 l 6
 355 326 372.634765625 306.994140625 369 295 c 6
 359 262 l 6
-50 94 m 1
 -50 94 l 1
 -50 94 l 1
 -50 94 l 1
-50 94 m 1
 -50 94 l 1
 -50 94 l 1
 -50 94 l 1
454 472 m 1
 454 472 l 1
 454 472 l 1
 454 472 l 1
454 472 m 1
 454 472 l 1
 454 472 l 1
 454 472 l 1
13 0 m 2
 -4 0 -19 14 -19 31 c 2
 -18 70 l 2
 -18 78 -16 85 -10 91 c 2
 355 503 l 1
 38 503 l 2
 21 503 7 518 7 535 c 2
 7 551 l 2
 7 559 14 566 22 566 c 2
 391 566 l 2
 408 566 422 552 422 535 c 2
 422 496 l 2
 422 488 419 481 414 475 c 2
 49 63 l 1
 391 63 l 2
 408 63 422 48 422 31 c 2
 422 15 l 2
 422 7 415 0 407 0 c 2
 13 0 l 2
EndSplineSet
EndUndoOperation
EndUndoes
Redoes
EndRedoes
EndUndoRedoHistory
Fore
SplineSet
358 262 m 6
 79 263 l 2
 62.001953125 263.045898438 48 278 48 295 c 2
 48 311 l 2
 48 319 55 326 63 326 c 2
 337 326 l 6
 354 326 371.634765625 306.994140625 368 295 c 6
 358 262 l 6
-50 94 m 1
 -50 94 l 1
 -50 94 l 1
 -50 94 l 1
-50 94 m 1
 -50 94 l 1
 -50 94 l 1
 -50 94 l 1
454 472 m 1
 454 472 l 1
 454 472 l 1
 454 472 l 1
454 472 m 1
 454 472 l 1
 454 472 l 1
 454 472 l 1
13 0 m 2
 -4 0 -19 14 -19 31 c 2
 -18 70 l 2
 -18 78 -16 85 -10 91 c 2
 355 503 l 1
 38 503 l 2
 21 503 7 518 7 535 c 2
 7 551 l 2
 7 559 14 566 22 566 c 2
 391 566 l 2
 408 566 422 552 422 535 c 2
 422 496 l 2
 422 488 419 481 414 475 c 2
 49 63 l 1
 391 63 l 2
 408 63 422 48 422 31 c 2
 422 15 l 2
 422 7 415 0 407 0 c 2
 13 0 l 2
EndSplineSet
EndChar

StartChar: braceleft
Encoding: 123 123 94
Width: 447
Flags: HMW
LayerCount: 2
UndoRedoHistory
Layer: 1
Undoes
EndUndoes
Redoes
RedoOperation
Index: 0
Type: 3
WasModified: 0
WasOrder2: 0
Layer: 2
EndRedoOperation
EndRedoes
EndUndoRedoHistory
Fore
SplineSet
171 482 m 2
 171 423 125 374 67 369 c 1
 67 368 l 1
 125 363 171 314 171 255 c 2
 171 45 l 2
 171 8 201 -22 238 -22 c 2
 283 -22 l 2
 291 -22 297 -28 297 -36 c 2
 297 -71 l 2
 297 -79 291 -85 283 -85 c 2
 241 -85 l 2
 167 -85 108 -25 108 48 c 2
 108 229 l 2
 108 259 95 286 76 305 c 0
 59 322 37 333 13 336 c 0
 5 337 0 343 0 350 c 0
 0 361 0 376 0 387 c 0
 0 394 5 400 13 401 c 0
 66 407 108 452 108 508 c 2
 108 689 l 2
 108 762 167 822 241 822 c 2
 283 822 l 2
 291 822 297 816 297 808 c 2
 297 773 l 2
 297 765 291 759 283 759 c 2
 238 759 l 2
 201 759 171 729 171 692 c 2
 171 482 l 2
EndSplineSet
EndChar

StartChar: bar
Encoding: 124 124 95
Width: 213
Flags: HMW
LayerCount: 2
UndoRedoHistory
Layer: 1
Undoes
EndUndoes
Redoes
RedoOperation
Index: 0
Type: 3
WasModified: 0
WasOrder2: 0
Layer: 2
EndRedoOperation
EndRedoes
EndUndoRedoHistory
Fore
SplineSet
63 -143 m 2
 63 -151 57 -157 49 -157 c 2
 14 -157 l 2
 6 -157 0 -151 0 -143 c 2
 0 880 l 2
 0 887 6 894 14 894 c 2
 49 894 l 2
 57 894 63 887 63 880 c 2
 63 -143 l 2
EndSplineSet
EndChar

StartChar: braceright
Encoding: 125 125 96
Width: 447
Flags: HMW
LayerCount: 2
UndoRedoHistory
Layer: 1
Undoes
EndUndoes
Redoes
RedoOperation
Index: 0
Type: 3
WasModified: 0
WasOrder2: 0
Layer: 2
EndRedoOperation
EndRedoes
EndUndoRedoHistory
Fore
SplineSet
126 482 m 2
 126 692 l 2
 126 729 96 759 59 759 c 2
 14 759 l 2
 6 759 0 765 0 773 c 2
 0 808 l 2
 0 816 6 822 14 822 c 2
 56 822 l 2
 130 822 189 762 189 689 c 2
 189 508 l 2
 189 452 231 407 284 401 c 0
 292 400 297 394 297 387 c 0
 297 376 297 361 297 350 c 0
 297 343 292 337 284 336 c 0
 260 333 238 322 221 305 c 0
 202 286 189 259 189 229 c 2
 189 48 l 2
 189 -25 130 -85 56 -85 c 2
 14 -85 l 2
 6 -85 0 -79 0 -71 c 2
 0 -36 l 2
 0 -28 6 -22 14 -22 c 2
 59 -22 l 2
 96 -22 126 8 126 45 c 2
 126 255 l 2
 126 314 172 363 230 368 c 1
 230 369 l 1
 172 374 126 423 126 482 c 2
EndSplineSet
EndChar

StartChar: asciitilde
Encoding: 126 126 97
Width: 451
Flags: HMW
LayerCount: 2
UndoRedoHistory
Layer: 1
Undoes
UndoOperation
Index: 0
Type: 1
WasModified: 1
WasOrder2: 0
Layer: 2
Width: 451
VWidth: 1000
LBearingChange: 0
UnicodeEnc: 0
InstructionsLength: 0
SplineSet
77.2001953125 241.200195312 m 6x60
 38 241.200195312 l 6
 25.400390625 241.200195312 17 255.200195312 21.2001953125 266.400390625 c 5
 21.2001953125 266.400390625 l 5
 33.7998046875 295.799804688 53.400390625 319.599609375 80 336.400390625 c 4
 105.200195312 351.799804688 131.799804688 360.200195312 161.200195312 360.200195312 c 4
 183.599609375 360.200195312 204.599609375 354.599609375 225.599609375 344.799804688 c 6
 264.799804688 326.599609375 l 6
 276 321 288.599609375 318.200195312 299.799804688 318.200195312 c 4
 319.400390625 318.200195312 333.400390625 325.200195312 343.200195312 330.799804688 c 5
 343.200195312 330.799804688 l 5
 348.799804688 335 360 343.400390625 368.400390625 357.400390625 c 5x60
 368.400390625 357.400390625 l 5
 372.599609375 361.599609375 378.200195312 365.799804688 383.799804688 365.799804688 c 6
 423 365.799804688 l 6
 435.599609375 365.799804688 444 353.200195312 439.799804688 340.599609375 c 5
 439.799804688 340.599609375 l 5
 427.200195312 312.599609375 407.599609375 287.400390625 381 270.599609375 c 4
 355.799804688 255.200195312 327.799804688 246.799804688 299.799804688 246.799804688 c 4
 277.400390625 246.799804688 255 252.400390625 235.400390625 262.200195312 c 6
 194.799804688 281.799804688 l 6
 183.599609375 286 172.400390625 288.799804688 161.200195312 288.799804688 c 4xa0
 141.599609375 288.799804688 127.599609375 281.799804688 117.799804688 276.200195312 c 5
 117.799804688 276.200195312 l 5
 110.799804688 272 99.599609375 263.599609375 92.599609375 251 c 5
 92.599609375 251 l 5
 88.400390625 245.400390625 82.7998046875 241.200195312 77.2001953125 241.200195312 c 6x60
EndSplineSet
EndUndoOperation
EndUndoes
Redoes
EndRedoes
EndUndoRedoHistory
Fore
SplineSet
67.2001953125 241.200195312 m 6x60
 28 241.200195312 l 6
 15.400390625 241.200195312 7 255.200195312 11.2001953125 266.400390625 c 5
 11.2001953125 266.400390625 l 5
 23.7998046875 295.799804688 43.400390625 319.599609375 70 336.400390625 c 4
 95.2001953125 351.799804688 121.799804688 360.200195312 151.200195312 360.200195312 c 4
 173.599609375 360.200195312 194.599609375 354.599609375 215.599609375 344.799804688 c 6
 254.799804688 326.599609375 l 6
 266 321 278.599609375 318.200195312 289.799804688 318.200195312 c 4
 309.400390625 318.200195312 323.400390625 325.200195312 333.200195312 330.799804688 c 5
 333.200195312 330.799804688 l 5
 338.799804688 335 350 343.400390625 358.400390625 357.400390625 c 5x60
 358.400390625 357.400390625 l 5
 362.599609375 361.599609375 368.200195312 365.799804688 373.799804688 365.799804688 c 6
 413 365.799804688 l 6
 425.599609375 365.799804688 434 353.200195312 429.799804688 340.599609375 c 5
 429.799804688 340.599609375 l 5
 417.200195312 312.599609375 397.599609375 287.400390625 371 270.599609375 c 4
 345.799804688 255.200195312 317.799804688 246.799804688 289.799804688 246.799804688 c 4
 267.400390625 246.799804688 245 252.400390625 225.400390625 262.200195312 c 6
 184.799804688 281.799804688 l 6
 173.599609375 286 162.400390625 288.799804688 151.200195312 288.799804688 c 4xa0
 131.599609375 288.799804688 117.599609375 281.799804688 107.799804688 276.200195312 c 5
 107.799804688 276.200195312 l 5
 100.799804688 272 89.599609375 263.599609375 82.599609375 251 c 5
 82.599609375 251 l 5
 78.400390625 245.400390625 72.7998046875 241.200195312 67.2001953125 241.200195312 c 6x60
EndSplineSet
EndChar

StartChar: exclamdown
Encoding: 161 161 98
Width: 276
Flags: HMW
LayerCount: 2
UndoRedoHistory
Layer: 1
Undoes
EndUndoes
Redoes
RedoOperation
Index: 0
Type: 3
WasModified: 0
WasOrder2: 0
Layer: 2
EndRedoOperation
EndRedoes
EndUndoRedoHistory
Fore
SplineSet
63 611 m 0
 28 611 0 639 0 674 c 0
 0 709 28 737 63 737 c 0
 98 737 126 709 126 674 c 0
 126 639 98 611 63 611 c 0
91 0 m 2
 35 0 l 2
 26 0 19 8 19 17 c 2
 50 504 l 2
 51 511 56 516 63 516 c 0
 70 516 75 511 76 504 c 2
 107 17 l 2
 107 8 100 0 91 0 c 2
EndSplineSet
EndChar

StartChar: dieresis
Encoding: 168 168 99
Width: 439
Flags: HMW
LayerCount: 2
UndoRedoHistory
Layer: 1
Undoes
EndUndoes
Redoes
RedoOperation
Index: 0
Type: 3
WasModified: 0
WasOrder2: 0
Layer: 2
EndRedoOperation
EndRedoes
EndUndoRedoHistory
Fore
SplineSet
44 648 m 0
 19 648 0 668 0 692 c 0
 0 717 19 737 44 737 c 0
 68 737 88 717 88 692 c 0
 88 668 68 648 44 648 c 0
245 648 m 0
 221 648 201 668 201 692 c 0
 201 717 221 737 245 737 c 0
 270 737 289 717 289 692 c 0
 289 668 270 648 245 648 c 0
EndSplineSet
EndChar

StartChar: degree
Encoding: 176 176 100
Width: 339
Flags: HMW
LayerCount: 2
UndoRedoHistory
Layer: 1
Undoes
EndUndoes
Redoes
RedoOperation
Index: 0
Type: 3
WasModified: 0
WasOrder2: 0
Layer: 2
EndRedoOperation
EndRedoes
EndUndoRedoHistory
Fore
SplineSet
120 498 m 0
 54 498 0 551 0 617 c 0
 0 683 54 737 120 737 c 0
 186 737 239 683 239 617 c 0
 239 551 186 498 120 498 c 0
120 696 m 0
 76 696 41 661 41 617 c 0
 41 574 76 539 120 539 c 0
 163 539 198 574 198 617 c 0
 198 661 163 696 120 696 c 0
EndSplineSet
EndChar

StartChar: plusminus
Encoding: 177 177 101
Width: 536
Flags: HMW
LayerCount: 2
UndoRedoHistory
Layer: 1
Undoes
EndUndoes
Redoes
RedoOperation
Index: 0
Type: 3
WasModified: 0
WasOrder2: 0
Layer: 2
EndRedoOperation
EndRedoes
EndUndoRedoHistory
Fore
SplineSet
372 378 m 2
 380 378 386 372 386 364 c 2
 386 329 l 2
 386 321 380 315 372 315 c 2
 224 315 l 1
 224 167 l 2
 224 159 218 153 210 153 c 2
 175 153 l 2
 167 153 161 159 161 167 c 2
 161 315 l 1
 14 315 l 2
 6 315 0 321 0 329 c 2
 0 364 l 2
 0 372 6 378 14 378 c 2
 161 378 l 1
 161 526 l 2
 161 534 167 540 175 540 c 2
 210 540 l 2
 218 540 224 534 224 526 c 2
 224 378 l 1
 372 378 l 2
372 95 m 2
 379 95 386 89 386 81 c 2
 386 46 l 2
 386 38 379 32 372 32 c 2
 14 32 l 2
 6 32 0 38 0 46 c 2
 0 81 l 2
 0 89 6 95 14 95 c 2
 372 95 l 2
EndSplineSet
EndChar

StartChar: acute
Encoding: 180 180 102
Width: 274
Flags: HMW
LayerCount: 2
UndoRedoHistory
Layer: 1
Undoes
EndUndoes
Redoes
RedoOperation
Index: 0
Type: 3
WasModified: 0
WasOrder2: 0
Layer: 2
EndRedoOperation
EndRedoes
EndUndoRedoHistory
Fore
SplineSet
10 670 m 0
 -1 681 -3 698 7 711 c 2
 109 849 l 2
 115 857 124 862 135 862 c 0
 143 862 151 858 157 852 c 2
 169 841 l 2
 175 834 175 824 169 818 c 2
 20 670 l 2
 17 667 12 667 10 670 c 0
EndSplineSet
EndChar

StartChar: cedilla
Encoding: 184 184 103
Width: 329
Flags: HMW
LayerCount: 2
UndoRedoHistory
Layer: 1
Undoes
EndUndoes
Redoes
RedoOperation
Index: 0
Type: 3
WasModified: 0
WasOrder2: 0
Layer: 2
EndRedoOperation
EndRedoes
EndUndoRedoHistory
Fore
SplineSet
99 -208 m 2
 13 -208 l 2
 6 -208 0 -203 0 -196 c 2
 0 -171 l 2
 0 -164 6 -158 13 -158 c 2
 99 -158 l 2
 115 -158 128 -146 129 -131 c 0
 129 -114 116 -101 100 -101 c 2
 74 -101 l 2
 55 -101 39 -85 39 -65 c 2
 39 27 l 1
 89 27 l 1
 89 -44 l 2
 89 -48 92 -51 96 -51 c 2
 100 -51 l 2
 144 -51 179 -87 179 -131 c 0
 178 -174 142 -208 99 -208 c 2
EndSplineSet
EndChar

StartChar: questiondown
Encoding: 191 191 104
Width: 579
Flags: HMW
LayerCount: 2
UndoRedoHistory
Layer: 1
Undoes
EndUndoes
Redoes
RedoOperation
Index: 0
Type: 3
WasModified: 0
WasOrder2: 0
Layer: 2
EndRedoOperation
EndRedoes
EndUndoRedoHistory
Fore
SplineSet
234 737 m 0xfa
 269 737 297 709 297 674 c 0
 297 639 269 611 234 611 c 0
 199 611 171 639 171 674 c 0
 171 709 199 737 234 737 c 0xfa
265 513 m 2xf6
 265 382 l 2
 265 366 252 353 236 353 c 2
 211 353 l 2
 172 353 133 337 105 308 c 0
 78 281 63 244 64 205 c 0
 64 167 80 132 107 105 c 0
 134 78 170 63 209 63 c 2
 221 63 l 2
 301 63 366 128 366 208 c 2
 366 220 l 2
 366 237 379 251 397 252 c 0
 414 253 429 238 429 221 c 2
 429 208 l 2
 429 93 336 0 221 0 c 2
 213 0 l 2
 97 0 2 92 1 205 c 0
 0 300 63 384 154 408 c 2
 202 419 l 1
 202 513 l 2
 202 522 209 529 218 529 c 2
 250 529 l 2
 258 529 265 522 265 513 c 2xf6
EndSplineSet
EndChar

StartChar: Agrave
Encoding: 192 192 105
Width: 616
Flags: HMW
LayerCount: 2
UndoRedoHistory
Layer: 1
Undoes
EndUndoes
Redoes
RedoOperation
Index: 0
Type: 3
WasModified: 0
WasOrder2: 0
Layer: 2
EndRedoOperation
EndRedoes
EndUndoRedoHistory
Fore
SplineSet
281 763 m 0
 279 760 274 760 271 763 c 2
 122 911 l 2
 116 917 116 927 122 934 c 2
 134 945 l 2
 140 951 148 955 156 955 c 0
 167 955 176 950 182 942 c 2
 284 804 l 2
 294 791 292 774 281 763 c 0
435 0 m 2
 417 0 403 14 403 31 c 2
 403 290 l 1
 63 290 l 1
 63 31 l 2
 63 14 49 0 31 0 c 2
 16 0 l 2
 7 0 0 7 0 16 c 2
 0 579 l 2
 0 666 70 737 157 737 c 2
 309 737 l 2
 396 737 466 666 466 579 c 2
 466 16 l 2
 466 7 459 0 450 0 c 2
 435 0 l 2
157 674 m 2
 105 674 63 632 63 579 c 2
 63 353 l 1
 403 353 l 1
 403 579 l 2
 403 632 361 674 309 674 c 2
 157 674 l 2
EndSplineSet
EndChar

StartChar: Aacute
Encoding: 193 193 106
Width: 616
Flags: HMW
LayerCount: 2
UndoRedoHistory
Layer: 1
Undoes
EndUndoes
Redoes
RedoOperation
Index: 0
Type: 3
WasModified: 0
WasOrder2: 0
Layer: 2
EndRedoOperation
EndRedoes
EndUndoRedoHistory
Fore
SplineSet
209 763 m 0
 198 774 196 791 206 804 c 2
 308 942 l 2
 314 950 323 955 334 955 c 0
 342 955 350 951 356 945 c 2
 368 934 l 2
 374 927 374 917 368 911 c 2
 219 763 l 2
 216 760 211 760 209 763 c 0
435 0 m 2
 417 0 403 14 403 31 c 2
 403 290 l 1
 63 290 l 1
 63 31 l 2
 63 14 49 0 31 0 c 2
 16 0 l 2
 7 0 0 7 0 16 c 2
 0 579 l 2
 0 666 70 737 157 737 c 2
 309 737 l 2
 396 737 466 666 466 579 c 2
 466 16 l 2
 466 7 459 0 450 0 c 2
 435 0 l 2
157 674 m 2
 105 674 63 632 63 579 c 2
 63 353 l 1
 403 353 l 1
 403 579 l 2
 403 632 361 674 309 674 c 2
 157 674 l 2
EndSplineSet
EndChar

StartChar: Acircumflex
Encoding: 194 194 107
Width: 616
Flags: HMW
LayerCount: 2
UndoRedoHistory
Layer: 1
Undoes
EndUndoes
Redoes
RedoOperation
Index: 0
Type: 3
WasModified: 0
WasOrder2: 0
Layer: 2
EndRedoOperation
EndRedoes
EndUndoRedoHistory
Fore
SplineSet
435 0 m 2
 450 0 l 2
 459 0 466 7 466 16 c 2
 466 579 l 2
 466 666 396 737 309 737 c 2
 157 737 l 2
 70 737 0 666 0 579 c 2
 0 16 l 2
 0 7 7 0 16 0 c 2
 31 0 l 2
 49 0 63 14 63 31 c 2
 63 290 l 1
 403 290 l 1
 403 31 l 2
 403 14 417 0 435 0 c 2
157 674 m 2
 309 674 l 2
 361 674 403 632 403 579 c 2
 403 353 l 1
 63 353 l 1
 63 579 l 2
 63 632 105 674 157 674 c 2
155 776 m 2
 152 773 149 771 145 771 c 2
 94 771 l 2
 89 771 86 778 90 781 c 2
 202 893 l 2
 216 908 240 908 255 893 c 2
 367 781 l 2
 371 778 368 771 363 771 c 2
 312 771 l 2
 308 771 305 773 302 776 c 2
 240 838 l 2
 233 844 223 844 217 838 c 2
 155 776 l 2
EndSplineSet
EndChar

StartChar: Atilde
Encoding: 195 195 108
Width: 616
Flags: HMW
LayerCount: 2
UndoRedoHistory
Layer: 1
Undoes
EndUndoes
Redoes
RedoOperation
Index: 0
Type: 3
WasModified: 0
WasOrder2: 0
Layer: 2
EndRedoOperation
EndRedoes
EndUndoRedoHistory
Fore
SplineSet
123 772 m 2xee
 95 772 l 2
 86 772 80 782 83 790 c 1
 83 790 l 1
 92 811 106 828 125 840 c 0
 143 851 162 857 183 857 c 0
 199 857 214 853 229 846 c 2
 257 833 l 2
 265 829 274 827 282 827 c 0
 296 827 306 832 313 836 c 1
 313 836 l 1
 317 839 325 845 331 855 c 1xee
 331 855 l 1
 334 858 338 861 342 861 c 2
 370 861 l 2
 379 861 385 852 382 843 c 1
 382 843 l 1
 373 823 359 805 340 793 c 0
 322 782 302 776 282 776 c 0
 266 776 250 780 236 787 c 2
 207 801 l 2
 199 804 191 806 183 806 c 0xf6
 169 806 159 801 152 797 c 1
 152 797 l 1
 147 794 139 788 134 779 c 1
 134 779 l 1
 131 775 127 772 123 772 c 2xee
435 0 m 2
 417 0 403 14 403 31 c 2
 403 290 l 1
 63 290 l 1
 63 31 l 2
 63 14 49 0 31 0 c 2
 16 0 l 2
 7 0 0 7 0 16 c 2
 0 579 l 2
 0 666 70 737 157 737 c 2
 309 737 l 2
 396 737 466 666 466 579 c 2
 466 16 l 2
 466 7 459 0 450 0 c 2
 435 0 l 2
157 674 m 2
 105 674 63 632 63 579 c 2
 63 353 l 1
 403 353 l 1
 403 579 l 2
 403 632 361 674 309 674 c 2
 157 674 l 2
EndSplineSet
EndChar

StartChar: Adieresis
Encoding: 196 196 109
Width: 616
Flags: HMW
LayerCount: 2
UndoRedoHistory
Layer: 1
Undoes
EndUndoes
Redoes
RedoOperation
Index: 0
Type: 3
WasModified: 0
WasOrder2: 0
Layer: 2
EndRedoOperation
EndRedoes
EndUndoRedoHistory
Fore
SplineSet
133 778 m 0
 108 778 89 798 89 822 c 0
 89 847 108 867 133 867 c 0
 157 867 177 847 177 822 c 0
 177 798 157 778 133 778 c 0
334 778 m 0
 310 778 290 798 290 822 c 0
 290 847 310 867 334 867 c 0
 359 867 378 847 378 822 c 0
 378 798 359 778 334 778 c 0
435 0 m 2
 417 0 403 14 403 31 c 2
 403 290 l 1xff
 63 290 l 1
 63 31 l 2
 63 14 49 0 31 0 c 2
 16 0 l 2
 7 0 0 7 0 16 c 2
 0 579 l 2
 0 666 70 737 157 737 c 2
 309 737 l 2
 396 737 466 666 466 579 c 2
 466 16 l 2
 466 7 459 0 450 0 c 2
 435 0 l 2
157 674 m 2
 105 674 63 632 63 579 c 2
 63 353 l 1
 403 353 l 1
 403 579 l 2
 403 632 361 674 309 674 c 2
 157 674 l 2
EndSplineSet
EndChar

StartChar: Aring
Encoding: 197 197 110
Width: 616
Flags: HMW
LayerCount: 2
UndoRedoHistory
Layer: 1
Undoes
EndUndoes
Redoes
RedoOperation
Index: 0
Type: 3
WasModified: 0
WasOrder2: 0
Layer: 2
EndRedoOperation
EndRedoes
EndUndoRedoHistory
Fore
SplineSet
237 762 m 0
 186 762 144 804 144 856 c 0
 144 907 186 949 237 949 c 0
 289 949 331 907 331 856 c 0
 331 804 289 762 237 762 c 0
237 909 m 0
 208 909 184 885 184 856 c 0
 184 826 208 802 237 802 c 0
 267 802 291 826 291 856 c 0
 291 885 267 909 237 909 c 0
435 0 m 2
 417 0 403 14 403 31 c 2
 403 290 l 1
 63 290 l 1
 63 31 l 2
 63 14 49 0 31 0 c 2
 16 0 l 2
 7 0 0 7 0 16 c 2
 0 579 l 2
 0 666 70 737 157 737 c 2
 309 737 l 2xef80
 396 737 466 666 466 579 c 2
 466 16 l 2
 466 7 459 0 450 0 c 2
 435 0 l 2
157 674 m 2xef80
 105 674 63 632 63 579 c 2
 63 353 l 1
 403 353 l 1
 403 579 l 2
 403 632 361 674 309 674 c 2
 157 674 l 2xef80
EndSplineSet
EndChar

StartChar: Ccedilla
Encoding: 199 199 111
Width: 616
Flags: HMW
LayerCount: 2
UndoRedoHistory
Layer: 1
Undoes
EndUndoes
Redoes
RedoOperation
Index: 0
Type: 3
WasModified: 0
WasOrder2: 0
Layer: 2
EndRedoOperation
EndRedoes
EndUndoRedoHistory
Fore
SplineSet
419 548 m 2
 410 548 403 555 403 564 c 2
 403 579 l 2
 403 632 361 674 309 674 c 2
 157 674 l 2
 105 674 63 632 63 579 c 2
 63 157 l 2
 63 105 105 63 157 63 c 2
 309 63 l 2
 361 63 403 105 403 157 c 2
 403 195 l 2
 403 213 417 227 435 227 c 2
 450 227 l 2
 459 227 466 220 466 211 c 2
 466 157 l 2
 466 70 396 0 309 0 c 2
 238 0 l 1
 238 -44 l 2
 238 -48 241 -51 245 -51 c 2
 249 -51 l 2
 293 -51 328 -87 328 -131 c 0
 327 -174 291 -208 248 -208 c 2
 162 -208 l 2
 155 -208 149 -203 149 -196 c 2
 149 -171 l 2
 149 -164 155 -158 162 -158 c 2
 248 -158 l 2
 264 -158 277 -146 278 -131 c 0
 278 -114 265 -101 249 -101 c 2
 223 -101 l 2
 204 -101 188 -85 188 -65 c 2
 188 0 l 1
 157 0 l 2
 70 0 0 70 0 157 c 2
 0 579 l 2
 0 666 70 737 157 737 c 2
 309 737 l 2
 396 737 466 666 466 579 c 2
 466 564 l 2
 466 555 459 548 450 548 c 2
 419 548 l 2
EndSplineSet
EndChar

StartChar: Egrave
Encoding: 200 200 112
Width: 616
Flags: HMW
LayerCount: 2
UndoRedoHistory
Layer: 1
Undoes
EndUndoes
Redoes
RedoOperation
Index: 0
Type: 3
WasModified: 0
WasOrder2: 0
Layer: 2
EndRedoOperation
EndRedoes
EndUndoRedoHistory
Fore
SplineSet
281 763 m 0
 279 760 274 760 271 763 c 2
 122 911 l 2
 116 917 116 927 122 934 c 2
 134 945 l 2
 140 951 148 955 156 955 c 0
 167 955 176 950 182 942 c 2
 284 804 l 2
 294 791 292 774 281 763 c 0
31 0 m 2
 14 0 0 14 0 31 c 2
 0 705 l 2
 0 723 14 737 31 737 c 2
 450 737 l 2
 459 737 466 730 466 721 c 2
 466 705 l 2
 466 688 452 674 435 674 c 2
 63 674 l 1
 63 416 l 1
 359 416 l 2
 376 416 391 402 391 384 c 2
 391 368 l 2
 391 360 383 353 375 353 c 2
 63 353 l 1
 63 63 l 1
 435 63 l 2
 452 63 466 49 466 31 c 2
 466 16 l 2
 466 7 459 0 450 0 c 2
 31 0 l 2
EndSplineSet
EndChar

StartChar: Eacute
Encoding: 201 201 113
Width: 616
Flags: HMW
LayerCount: 2
UndoRedoHistory
Layer: 1
Undoes
EndUndoes
Redoes
RedoOperation
Index: 0
Type: 3
WasModified: 0
WasOrder2: 0
Layer: 2
EndRedoOperation
EndRedoes
EndUndoRedoHistory
Fore
SplineSet
209 763 m 0
 198 774 196 791 206 804 c 2
 308 942 l 2
 314 950 323 955 334 955 c 0
 342 955 350 951 356 945 c 2
 368 934 l 2
 374 927 374 917 368 911 c 2
 219 763 l 2
 216 760 211 760 209 763 c 0
31 0 m 2
 14 0 0 14 0 31 c 2
 0 705 l 2
 0 723 14 737 31 737 c 2
 450 737 l 2
 459 737 466 730 466 721 c 2
 466 705 l 2
 466 688 452 674 435 674 c 2
 63 674 l 1
 63 416 l 1
 359 416 l 2
 376 416 391 402 391 384 c 2
 391 368 l 2
 391 360 383 353 375 353 c 2
 63 353 l 1
 63 63 l 1
 435 63 l 2
 452 63 466 49 466 31 c 2
 466 16 l 2
 466 7 459 0 450 0 c 2
 31 0 l 2
EndSplineSet
EndChar

StartChar: Ecircumflex
Encoding: 202 202 114
Width: 596
Flags: HMW
LayerCount: 2
UndoRedoHistory
Layer: 1
Undoes
EndUndoes
Redoes
RedoOperation
Index: 0
Type: 3
WasModified: 0
WasOrder2: 0
Layer: 2
EndRedoOperation
EndRedoes
EndUndoRedoHistory
Fore
SplineSet
31 0 m 2
 450 0 l 2
 459 0 466 7 466 16 c 2
 466 31 l 2
 466 49 452 63 435 63 c 2
 63 63 l 1
 63 353 l 1
 375 353 l 2
 383 353 391 360 391 368 c 2
 391 384 l 2
 391 402 376 416 359 416 c 2
 63 416 l 1
 63 674 l 1
 435 674 l 2
 452 674 466 688 466 705 c 2
 466 721 l 2
 466 730 459 737 450 737 c 2
 31 737 l 2
 14 737 0 723 0 705 c 2
 0 31 l 2
 0 14 14 0 31 0 c 2
159 776 m 2
 156 773 153 771 149 771 c 2
 98 771 l 2
 93 771 90 778 94 781 c 2
 206 893 l 2
 220 908 244 908 259 893 c 2
 371 781 l 2
 375 778 372 771 367 771 c 2
 316 771 l 2
 312 771 309 773 306 776 c 2
 244 838 l 2
 237 844 227 844 221 838 c 2
 159 776 l 2
EndSplineSet
EndChar

StartChar: Edieresis
Encoding: 203 203 115
Width: 616
Flags: HMW
LayerCount: 2
UndoRedoHistory
Layer: 1
Undoes
EndUndoes
Redoes
RedoOperation
Index: 0
Type: 3
WasModified: 0
WasOrder2: 0
Layer: 2
EndRedoOperation
EndRedoes
EndUndoRedoHistory
Fore
SplineSet
133 778 m 0
 108 778 89 798 89 822 c 0
 89 847 108 867 133 867 c 0
 157 867 177 847 177 822 c 0
 177 798 157 778 133 778 c 0
334 778 m 0
 310 778 290 798 290 822 c 0
 290 847 310 867 334 867 c 0
 359 867 378 847 378 822 c 0
 378 798 359 778 334 778 c 0
31 0 m 2xe8
 14 0 0 14 0 31 c 2
 0 705 l 2
 0 723 14 737 31 737 c 2
 450 737 l 2
 459 737 466 730 466 721 c 2
 466 705 l 2
 466 688 452 674 435 674 c 2
 63 674 l 1
 63 416 l 1
 359 416 l 2
 376 416 391 402 391 384 c 2
 391 368 l 2
 391 360 383 353 375 353 c 2
 63 353 l 1
 63 63 l 1
 435 63 l 2
 452 63 466 49 466 31 c 2
 466 16 l 2
 466 7 459 0 450 0 c 2
 31 0 l 2xe8
EndSplineSet
EndChar

StartChar: Igrave
Encoding: 204 204 116
Width: 214
Flags: HMW
LayerCount: 2
UndoRedoHistory
Layer: 1
Undoes
EndUndoes
Redoes
RedoOperation
Index: 0
Type: 3
WasModified: 0
WasOrder2: 0
Layer: 2
EndRedoOperation
EndRedoes
EndUndoRedoHistory
Fore
SplineSet
64 763 m 0
 62 760 57 760 54 763 c 2
 -95 911 l 2
 -101 917 -101 927 -95 934 c 2
 -83 945 l 2
 -77 951 -69 955 -61 955 c 0
 -50 955 -41 950 -35 942 c 2
 67 804 l 2
 77 791 75 774 64 763 c 0
2 16 m 2
 2 721 l 2
 2 730 9 737 18 737 c 2
 33 737 l 2
 51 737 65 723 65 705 c 2
 65 16 l 2
 65 7 58 0 49 0 c 2
 18 0 l 2
 9 0 2 7 2 16 c 2
EndSplineSet
EndChar

StartChar: Iacute
Encoding: 205 205 117
Width: 224
Flags: HMW
LayerCount: 2
UndoRedoHistory
Layer: 1
Undoes
EndUndoes
Redoes
RedoOperation
Index: 0
Type: 3
WasModified: 0
WasOrder2: 0
Layer: 2
EndRedoOperation
EndRedoes
EndUndoRedoHistory
Fore
SplineSet
10 763 m 0
 -1 774 -3 791 7 804 c 2
 109 942 l 2
 115 950 124 955 135 955 c 0
 143 955 151 951 157 945 c 2
 169 934 l 2
 175 927 175 917 169 911 c 2
 20 763 l 2
 17 760 12 760 10 763 c 0
1 16 m 2
 1 721 l 2
 1 730 8 737 17 737 c 2
 32 737 l 2
 50 737 64 723 64 705 c 2
 64 16 l 2
 64 7 57 0 48 0 c 2
 17 0 l 2
 8 0 1 7 1 16 c 2
EndSplineSet
EndChar

StartChar: Icircumflex
Encoding: 206 206 118
Width: 211
Flags: HMW
LayerCount: 2
UndoRedoHistory
Layer: 1
Undoes
EndUndoes
Redoes
RedoOperation
Index: 0
Type: 3
WasModified: 0
WasOrder2: 0
Layer: 2
EndRedoOperation
EndRedoes
EndUndoRedoHistory
Fore
SplineSet
0 16 m 2
 0 7 7 0 16 0 c 2
 47 0 l 2
 56 0 63 7 63 16 c 2
 63 705 l 2
 63 723 49 737 31 737 c 2
 16 737 l 2
 7 737 0 730 0 721 c 2
 0 16 l 2
-43 776 m 2
 -46 773 -49 771 -53 771 c 2
 -104 771 l 2
 -109 771 -112 778 -108 781 c 2
 4 893 l 2
 18 908 42 908 57 893 c 2
 169 781 l 2
 173 778 170 771 165 771 c 2
 114 771 l 2
 110 771 107 773 104 776 c 2
 42 838 l 2
 35 844 25 844 19 838 c 2
 -43 776 l 2
EndSplineSet
EndChar

StartChar: Idieresis
Encoding: 207 207 119
Width: 214
Flags: HMW
LayerCount: 2
UndoRedoHistory
Layer: 1
Undoes
EndUndoes
Redoes
RedoOperation
Index: 0
Type: 3
WasModified: 0
WasOrder2: 0
Layer: 2
EndRedoOperation
EndRedoes
EndUndoRedoHistory
Fore
SplineSet
2 16 m 2
 2 721 l 2
 2 730 9 737 18 737 c 2
 33 737 l 2
 51 737 65 723 65 705 c 2
 65 16 l 2
 65 7 58 0 49 0 c 2
 18 0 l 2
 9 0 2 7 2 16 c 2
-66 820 m 0xfc
 -91 820 -110 840 -110 864 c 0
 -110 889 -91 909 -66 909 c 0
 -42 909 -22 889 -22 864 c 0
 -22 840 -42 820 -66 820 c 0xfc
135 820 m 0
 111 820 91 840 91 864 c 0
 91 889 111 909 135 909 c 0
 160 909 179 889 179 864 c 0
 179 840 160 820 135 820 c 0
EndSplineSet
EndChar

StartChar: Ntilde
Encoding: 209 209 120
Width: 616
Flags: HMW
LayerCount: 2
UndoRedoHistory
Layer: 1
Undoes
EndUndoes
Redoes
RedoOperation
Index: 0
Type: 3
WasModified: 0
WasOrder2: 0
Layer: 2
EndRedoOperation
EndRedoes
EndUndoRedoHistory
Fore
SplineSet
123 772 m 2xdc
 95 772 l 2
 86 772 80 782 83 790 c 1
 83 790 l 1
 92 811 106 828 125 840 c 0
 143 851 162 857 183 857 c 0
 199 857 214 853 229 846 c 2
 257 833 l 2
 265 829 274 827 282 827 c 0
 296 827 306 832 313 836 c 1
 313 836 l 1
 317 839 325 845 331 855 c 1xdc
 331 855 l 1
 334 858 338 861 342 861 c 2
 370 861 l 2
 379 861 385 852 382 843 c 1
 382 843 l 1
 373 823 359 805 340 793 c 0
 322 782 302 776 282 776 c 0
 266 776 250 780 236 787 c 2
 207 801 l 2
 199 804 191 806 183 806 c 0xec
 169 806 159 801 152 797 c 1
 152 797 l 1
 147 794 139 788 134 779 c 1
 134 779 l 1
 131 775 127 772 123 772 c 2xdc
413 0 m 2
 401 0 390 6 385 17 c 2
 63 612 l 1
 63 31 l 2
 63 14 49 0 31 0 c 2
 16 0 l 2
 7 0 0 7 0 16 c 2
 0 721 l 2
 0 730 7 737 16 737 c 2
 53 737 l 2
 65 737 76 730 81 720 c 2
 403 125 l 1
 403 705 l 2
 403 723 417 737 435 737 c 2
 450 737 l 2
 459 737 466 730 466 721 c 2
 466 16 l 2
 466 7 459 0 450 0 c 2
 413 0 l 2
EndSplineSet
EndChar

StartChar: Ograve
Encoding: 210 210 121
Width: 616
Flags: HMW
LayerCount: 2
UndoRedoHistory
Layer: 1
Undoes
EndUndoes
Redoes
RedoOperation
Index: 0
Type: 3
WasModified: 0
WasOrder2: 0
Layer: 2
EndRedoOperation
EndRedoes
EndUndoRedoHistory
Fore
SplineSet
281 763 m 0
 279 760 274 760 271 763 c 2
 122 911 l 2
 116 917 116 927 122 934 c 2
 134 945 l 2
 140 951 148 955 156 955 c 0
 167 955 176 950 182 942 c 2
 284 804 l 2
 294 791 292 774 281 763 c 0
157 0 m 2
 71 0 0 71 0 157 c 2
 0 579 l 2
 0 666 71 737 157 737 c 2
 309 737 l 2
 395 737 466 666 466 579 c 2
 466 157 l 2
 466 71 395 0 309 0 c 2
 157 0 l 2
157 674 m 2
 105 674 63 632 63 579 c 2
 63 157 l 2
 63 105 105 63 157 63 c 2
 309 63 l 2
 361 63 403 105 403 157 c 2
 403 579 l 2
 403 632 361 674 309 674 c 2
 157 674 l 2
EndSplineSet
EndChar

StartChar: Oacute
Encoding: 211 211 122
Width: 616
Flags: HMW
LayerCount: 2
UndoRedoHistory
Layer: 1
Undoes
EndUndoes
Redoes
RedoOperation
Index: 0
Type: 3
WasModified: 0
WasOrder2: 0
Layer: 2
EndRedoOperation
EndRedoes
EndUndoRedoHistory
Fore
SplineSet
209 763 m 0
 198 774 196 791 206 804 c 2
 308 942 l 2
 314 950 323 955 334 955 c 0
 342 955 350 951 356 945 c 2
 368 934 l 2
 374 927 374 917 368 911 c 2
 219 763 l 2
 216 760 211 760 209 763 c 0
157 0 m 2
 71 0 0 71 0 157 c 2
 0 579 l 2
 0 666 71 737 157 737 c 2
 309 737 l 2
 395 737 466 666 466 579 c 2
 466 157 l 2
 466 71 395 0 309 0 c 2
 157 0 l 2
157 674 m 2
 105 674 63 632 63 579 c 2
 63 157 l 2
 63 105 105 63 157 63 c 2
 309 63 l 2
 361 63 403 105 403 157 c 2
 403 579 l 2
 403 632 361 674 309 674 c 2
 157 674 l 2
EndSplineSet
EndChar

StartChar: Ocircumflex
Encoding: 212 212 123
Width: 616
Flags: HMW
LayerCount: 2
UndoRedoHistory
Layer: 1
Undoes
EndUndoes
Redoes
RedoOperation
Index: 0
Type: 3
WasModified: 0
WasOrder2: 0
Layer: 2
EndRedoOperation
EndRedoes
EndUndoRedoHistory
Fore
SplineSet
157 0 m 2
 309 0 l 2
 395 0 466 71 466 157 c 2
 466 579 l 2
 466 666 395 737 309 737 c 2
 157 737 l 2
 71 737 0 666 0 579 c 2
 0 157 l 2
 0 71 71 0 157 0 c 2
157 674 m 2
 309 674 l 2
 361 674 403 632 403 579 c 2
 403 157 l 2
 403 105 361 63 309 63 c 2
 157 63 l 2
 105 63 63 105 63 157 c 2
 63 579 l 2
 63 632 105 674 157 674 c 2
157 775 m 2
 154 772 151 770 147 770 c 2
 96 770 l 2
 91 770 88 777 92 780 c 2
 204 892 l 2
 218 907 242 907 257 892 c 2
 369 780 l 2
 373 777 370 770 365 770 c 2
 314 770 l 2
 310 770 307 772 304 775 c 2
 242 837 l 2
 235 843 225 843 219 837 c 2
 157 775 l 2
EndSplineSet
EndChar

StartChar: Otilde
Encoding: 213 213 124
Width: 616
Flags: HMW
LayerCount: 2
UndoRedoHistory
Layer: 1
Undoes
EndUndoes
Redoes
RedoOperation
Index: 0
Type: 3
WasModified: 0
WasOrder2: 0
Layer: 2
EndRedoOperation
EndRedoes
EndUndoRedoHistory
Fore
SplineSet
123 772 m 2xdc
 95 772 l 2
 86 772 80 782 83 790 c 1
 83 790 l 1
 92 811 106 828 125 840 c 0
 143 851 162 857 183 857 c 0
 199 857 214 853 229 846 c 2
 257 833 l 2
 265 829 274 827 282 827 c 0
 296 827 306 832 313 836 c 1
 313 836 l 1
 317 839 325 845 331 855 c 1xdc
 331 855 l 1
 334 858 338 861 342 861 c 2
 370 861 l 2
 379 861 385 852 382 843 c 1
 382 843 l 1
 373 823 359 805 340 793 c 0
 322 782 302 776 282 776 c 0
 266 776 250 780 236 787 c 2
 207 801 l 2
 199 804 191 806 183 806 c 0xec
 169 806 159 801 152 797 c 1
 152 797 l 1
 147 794 139 788 134 779 c 1
 134 779 l 1
 131 775 127 772 123 772 c 2xdc
157 0 m 2
 71 0 0 71 0 157 c 2
 0 579 l 2
 0 666 71 737 157 737 c 2
 309 737 l 2
 395 737 466 666 466 579 c 2
 466 157 l 2
 466 71 395 0 309 0 c 2
 157 0 l 2
157 674 m 2
 105 674 63 632 63 579 c 2
 63 157 l 2
 63 105 105 63 157 63 c 2
 309 63 l 2
 361 63 403 105 403 157 c 2
 403 579 l 2
 403 632 361 674 309 674 c 2
 157 674 l 2
EndSplineSet
EndChar

StartChar: Odieresis
Encoding: 214 214 125
Width: 616
Flags: HMW
LayerCount: 2
UndoRedoHistory
Layer: 1
Undoes
EndUndoes
Redoes
RedoOperation
Index: 0
Type: 3
WasModified: 0
WasOrder2: 0
Layer: 2
EndRedoOperation
EndRedoes
EndUndoRedoHistory
Fore
SplineSet
133 778 m 0
 108 778 89 798 89 822 c 0
 89 847 108 867 133 867 c 0
 157 867 177 847 177 822 c 0
 177 798 157 778 133 778 c 0
334 778 m 0
 310 778 290 798 290 822 c 0
 290 847 310 867 334 867 c 0
 359 867 378 847 378 822 c 0
 378 798 359 778 334 778 c 0
157 0 m 2
 71 0 0 71 0 157 c 2
 0 579 l 2
 0 666 71 737 157 737 c 2
 309 737 l 2
 395 737 466 666 466 579 c 2
 466 157 l 2
 466 71 395 0 309 0 c 2
 157 0 l 2
157 674 m 2
 105 674 63 632 63 579 c 2
 63 157 l 2
 63 105 105 63 157 63 c 2
 309 63 l 2
 361 63 403 105 403 157 c 2
 403 579 l 2
 403 632 361 674 309 674 c 2
 157 674 l 2
EndSplineSet
EndChar

StartChar: multiply
Encoding: 215 215 126
Width: 584
Flags: HMW
LayerCount: 2
UndoRedoHistory
Layer: 1
Undoes
EndUndoes
Redoes
RedoOperation
Index: 0
Type: 3
WasModified: 0
WasOrder2: 0
Layer: 2
EndRedoOperation
EndRedoes
EndUndoRedoHistory
Fore
SplineSet
261 283 m 1
 429 115 l 2
 435 110 435 101 429 95 c 2
 405 71 l 2
 399 65 390 65 385 71 c 2
 217 239 l 1
 49 71 l 2
 43 65 34 65 29 71 c 2
 4 95 l 2
 -1 101 -1 110 4 115 c 2
 172 283 l 1
 4 452 l 2
 -1 457 -1 466 4 472 c 2
 29 496 l 2
 34 502 43 502 49 496 c 2
 217 328 l 1
 385 496 l 2
 390 502 399 502 405 496 c 2
 429 472 l 2
 435 466 435 457 429 452 c 2
 261 283 l 1
EndSplineSet
EndChar

StartChar: Ugrave
Encoding: 217 217 127
Width: 616
Flags: HMW
LayerCount: 2
UndoRedoHistory
Layer: 1
Undoes
EndUndoes
Redoes
RedoOperation
Index: 0
Type: 3
WasModified: 0
WasOrder2: 0
Layer: 2
EndRedoOperation
EndRedoes
EndUndoRedoHistory
Fore
SplineSet
281 763 m 0
 279 760 274 760 271 763 c 2
 122 911 l 2
 116 917 116 927 122 934 c 2
 134 945 l 2
 140 951 148 955 156 955 c 0
 167 955 176 950 182 942 c 2
 284 804 l 2
 294 791 292 774 281 763 c 0
157 0 m 2
 70 0 0 70 0 157 c 2
 0 721 l 2
 0 730 7 737 16 737 c 2
 31 737 l 2
 49 737 63 723 63 705 c 2
 63 157 l 2
 63 105 105 63 157 63 c 2
 309 63 l 2
 361 63 403 105 403 157 c 2
 403 705 l 2
 403 723 417 737 435 737 c 2
 450 737 l 2
 459 737 466 730 466 721 c 2
 466 157 l 2
 466 70 396 0 309 0 c 2
 157 0 l 2
EndSplineSet
EndChar

StartChar: Uacute
Encoding: 218 218 128
Width: 616
Flags: HMW
LayerCount: 2
UndoRedoHistory
Layer: 1
Undoes
EndUndoes
Redoes
RedoOperation
Index: 0
Type: 3
WasModified: 0
WasOrder2: 0
Layer: 2
EndRedoOperation
EndRedoes
EndUndoRedoHistory
Fore
SplineSet
209 763 m 0
 198 774 196 791 206 804 c 2
 308 942 l 2
 314 950 323 955 334 955 c 0
 342 955 350 951 356 945 c 2
 368 934 l 2
 374 927 374 917 368 911 c 2
 219 763 l 2
 216 760 211 760 209 763 c 0
157 0 m 2
 70 0 0 70 0 157 c 2
 0 721 l 2
 0 730 7 737 16 737 c 2
 31 737 l 2
 49 737 63 723 63 705 c 2
 63 157 l 2
 63 105 105 63 157 63 c 2
 309 63 l 2
 361 63 403 105 403 157 c 2
 403 705 l 2
 403 723 417 737 435 737 c 2
 450 737 l 2
 459 737 466 730 466 721 c 2
 466 157 l 2
 466 70 396 0 309 0 c 2
 157 0 l 2
EndSplineSet
EndChar

StartChar: Ucircumflex
Encoding: 219 219 129
Width: 616
Flags: HMW
LayerCount: 2
UndoRedoHistory
Layer: 1
Undoes
EndUndoes
Redoes
RedoOperation
Index: 0
Type: 3
WasModified: 0
WasOrder2: 0
Layer: 2
EndRedoOperation
EndRedoes
EndUndoRedoHistory
Fore
SplineSet
157 0 m 2
 309 0 l 2
 396 0 466 70 466 157 c 2
 466 721 l 2
 466 730 459 737 450 737 c 2
 435 737 l 2
 417 737 403 723 403 705 c 2
 403 157 l 2
 403 105 361 63 309 63 c 2
 157 63 l 2
 105 63 63 105 63 157 c 2
 63 705 l 2
 63 723 49 737 31 737 c 2
 16 737 l 2
 7 737 0 730 0 721 c 2
 0 157 l 2
 0 70 70 0 157 0 c 2
159 776 m 2
 156 773 153 771 149 771 c 2
 98 771 l 2
 93 771 90 778 94 781 c 2
 206 893 l 2
 220 908 244 908 259 893 c 2
 371 781 l 2
 375 778 372 771 367 771 c 2
 316 771 l 2
 312 771 309 773 306 776 c 2
 244 838 l 2
 237 844 227 844 221 838 c 2
 159 776 l 2
EndSplineSet
EndChar

StartChar: Udieresis
Encoding: 220 220 130
Width: 616
Flags: HMW
LayerCount: 2
UndoRedoHistory
Layer: 1
Undoes
EndUndoes
Redoes
RedoOperation
Index: 0
Type: 3
WasModified: 0
WasOrder2: 0
Layer: 2
EndRedoOperation
EndRedoes
EndUndoRedoHistory
Fore
SplineSet
133 778 m 0
 108 778 89 798 89 822 c 0
 89 847 108 867 133 867 c 0
 157 867 177 847 177 822 c 0
 177 798 157 778 133 778 c 0
334 778 m 0
 310 778 290 798 290 822 c 0
 290 847 310 867 334 867 c 0
 359 867 378 847 378 822 c 0
 378 798 359 778 334 778 c 0
157 0 m 2xf2
 70 0 0 70 0 157 c 2
 0 721 l 2
 0 730 7 737 16 737 c 2
 31 737 l 2
 49 737 63 723 63 705 c 2
 63 157 l 2
 63 105 105 63 157 63 c 2
 309 63 l 2
 361 63 403 105 403 157 c 2
 403 705 l 2
 403 723 417 737 435 737 c 2
 450 737 l 2
 459 737 466 730 466 721 c 2
 466 157 l 2
 466 70 396 0 309 0 c 2
 157 0 l 2xf2
EndSplineSet
EndChar

StartChar: Yacute
Encoding: 221 221 131
Width: 586
Flags: HMW
LayerCount: 2
UndoRedoHistory
Layer: 1
Undoes
EndUndoes
Redoes
RedoOperation
Index: 0
Type: 3
WasModified: 0
WasOrder2: 0
Layer: 2
EndRedoOperation
EndRedoes
EndUndoRedoHistory
Fore
SplineSet
484 716 m 2
 249 271 l 1
 249 16 l 2
 249 7 242 0 233 0 c 2
 201 0 l 2
 193 0 186 7 186 16 c 2
 186 271 l 1
 -48 716 l 2
 -53 726 -47 737 -36 737 c 2
 -5 737 l 2
 5 737 15 731 20 722 c 2
 218 346 l 1
 416 722 l 2
 421 731 431 737 441 737 c 2
 472 737 l 2
 482 737 489 726 484 716 c 2
197 842 m 0
 186 853 184 870 194 883 c 2
 296 1021 l 2
 302 1029 311 1034 322 1034 c 0
 330 1034 338 1030 344 1024 c 2
 356 1013 l 2
 362 1006 362 996 356 990 c 2
 207 842 l 2
 204 839 199 839 197 842 c 0
EndSplineSet
EndChar

StartChar: agrave
Encoding: 224 224 132
Width: 541
Flags: HW
LayerCount: 2
UndoRedoHistory
Layer: 1
Undoes
EndUndoes
Redoes
RedoOperation
Index: 0
Type: 3
WasModified: 0
WasOrder2: 0
Layer: 2
EndRedoOperation
EndRedoes
EndUndoRedoHistory
Fore
SplineSet
232 670 m 0
 230 667 225 667 222 670 c 2
 73 818 l 2
 67 824 67 834 73 841 c 2
 85 852 l 2
 91 858 99 862 107 862 c 0
 118 862 127 857 133 849 c 2
 235 711 l 2
 245 698 243 681 232 670 c 0
107 -1 m 2
 20 -1 -50 70 -50 157 c 2
 -50 182 l 2
 -50 269 20 339 107 339 c 2
 328 339 l 1
 328 409 l 2
 328 461 286 503 233 503 c 2
 70 503 l 2
 52 503 38 517 38 535 c 2
 38 550 l 2
 38 559 45 566 54 566 c 2
 233 566 l 2
 320 566 391 496 391 409 c 2
 391 31 l 2
 391 13 377 -1 359 -1 c 2
 107 -1 l 2
107 276 m 2
 55 276 13 234 13 182 c 2
 13 157 l 2
 13 105 55 62 107 62 c 2
 328 62 l 1
 328 276 l 1
 107 276 l 2
EndSplineSet
EndChar

StartChar: aacute
Encoding: 225 225 133
Width: 541
Flags: HW
LayerCount: 2
UndoRedoHistory
Layer: 1
Undoes
EndUndoes
Redoes
RedoOperation
Index: 0
Type: 3
WasModified: 0
WasOrder2: 0
Layer: 2
EndRedoOperation
EndRedoes
EndUndoRedoHistory
Fore
SplineSet
177 670 m 0
 166 681 164 698 174 711 c 2
 276 849 l 2
 282 857 291 862 302 862 c 0
 310 862 318 858 324 852 c 2
 336 841 l 2
 342 834 342 824 336 818 c 2
 187 670 l 2
 184 667 179 667 177 670 c 0
107 -1 m 2
 20 -1 -50 70 -50 157 c 2
 -50 182 l 2
 -50 269 20 339 107 339 c 2
 328 339 l 1
 328 409 l 2
 328 461 286 503 233 503 c 2
 70 503 l 2
 52 503 38 517 38 535 c 2
 38 550 l 2
 38 559 45 566 54 566 c 2
 233 566 l 2
 320 566 391 496 391 409 c 2
 391 31 l 2
 391 13 377 -1 359 -1 c 2
 107 -1 l 2
107 276 m 2
 55 276 13 234 13 182 c 2
 13 157 l 2
 13 105 55 62 107 62 c 2
 328 62 l 1
 328 276 l 1
 107 276 l 2
EndSplineSet
EndChar

StartChar: acircumflex
Encoding: 226 226 134
Width: 541
Flags: HW
LayerCount: 2
UndoRedoHistory
Layer: 1
Undoes
EndUndoes
Redoes
RedoOperation
Index: 0
Type: 3
WasModified: 0
WasOrder2: 0
Layer: 2
EndRedoOperation
EndRedoes
EndUndoRedoHistory
Fore
SplineSet
122 604 m 2xf0
 119 601 116 599 112 599 c 2
 61 599 l 2
 56 599 53 606 57 609 c 2
 169 721 l 2
 183 736 207 736 222 721 c 2
 334 609 l 2
 338 606 335 599 330 599 c 2
 279 599 l 2
 275 599 272 601 269 604 c 2
 207 666 l 2
 200 672 190 672 184 666 c 2
 122 604 l 2xf0
107 -1 m 2
 359 -1 l 2
 377 -1 391 13 391 31 c 2
 391 409 l 2
 391 496 320 566 233 566 c 2
 54 566 l 2
 45 566 38 559 38 550 c 2
 38 535 l 2
 38 517 52 503 70 503 c 2
 233 503 l 2
 286 503 328 461 328 409 c 2
 328 339 l 1
 107 339 l 2
 20 339 -50 269 -50 182 c 2
 -50 157 l 2
 -50 70 20 -1 107 -1 c 2
107 276 m 2xe8
 328 276 l 1
 328 62 l 1
 107 62 l 2
 55 62 13 105 13 157 c 2
 13 182 l 2
 13 234 55 276 107 276 c 2xe8
EndSplineSet
EndChar

StartChar: atilde
Encoding: 227 227 135
Width: 541
Flags: HW
LayerCount: 2
UndoRedoHistory
Layer: 1
Undoes
EndUndoes
Redoes
RedoOperation
Index: 0
Type: 3
WasModified: 0
WasOrder2: 0
Layer: 2
EndRedoOperation
EndRedoes
EndUndoRedoHistory
Fore
SplineSet
61 642 m 2xee
 33 642 l 2
 24 642 18 652 21 660 c 1
 21 660 l 1
 30 681 44 698 63 710 c 0
 81 721 100 727 121 727 c 0
 137 727 152 723 167 716 c 2
 195 703 l 2
 203 699 212 697 220 697 c 0
 234 697 244 702 251 706 c 1
 251 706 l 1
 255 709 263 715 269 725 c 1xee
 269 725 l 1
 272 728 276 731 280 731 c 2
 308 731 l 2
 317 731 323 722 320 713 c 1
 320 713 l 1
 311 693 297 675 278 663 c 0
 260 652 240 646 220 646 c 0
 204 646 188 650 174 657 c 2
 145 671 l 2
 137 674 129 676 121 676 c 0xf6
 107 676 97 671 90 667 c 1
 90 667 l 1
 85 664 77 658 72 649 c 1
 72 649 l 1
 69 645 65 642 61 642 c 2xee
107 -1 m 2
 20 -1 -50 70 -50 157 c 2
 -50 182 l 2
 -50 269 20 339 107 339 c 2
 328 339 l 1
 328 409 l 2
 328 461 286 503 233 503 c 2
 70 503 l 2
 52 503 38 517 38 535 c 2
 38 550 l 2
 38 559 45 566 54 566 c 2
 233 566 l 2
 320 566 391 496 391 409 c 2
 391 31 l 2
 391 13 377 -1 359 -1 c 2
 107 -1 l 2
107 276 m 2
 55 276 13 234 13 182 c 2
 13 157 l 2
 13 105 55 62 107 62 c 2
 328 62 l 1
 328 276 l 1
 107 276 l 2
EndSplineSet
EndChar

StartChar: adieresis
Encoding: 228 228 136
Width: 541
Flags: HW
LayerCount: 2
UndoRedoHistory
Layer: 1
Undoes
EndUndoes
Redoes
RedoOperation
Index: 0
Type: 3
WasModified: 0
WasOrder2: 0
Layer: 2
EndRedoOperation
EndRedoes
EndUndoRedoHistory
Fore
SplineSet
70 648 m 0
 45 648 26 668 26 692 c 0
 26 717 45 737 70 737 c 0
 94 737 114 717 114 692 c 0
 114 668 94 648 70 648 c 0
271 648 m 0
 247 648 227 668 227 692 c 0
 227 717 247 737 271 737 c 0
 296 737 315 717 315 692 c 0
 315 668 296 648 271 648 c 0
107 -1 m 2
 20 -1 -50 70 -50 157 c 2
 -50 182 l 2xff
 -50 269 20 339 107 339 c 2
 328 339 l 1
 328 409 l 2
 328 461 286 503 233 503 c 2
 70 503 l 2
 52 503 38 517 38 535 c 2
 38 550 l 2
 38 559 45 566 54 566 c 2
 233 566 l 2
 320 566 391 496 391 409 c 2
 391 31 l 2
 391 13 377 -1 359 -1 c 2
 107 -1 l 2
107 276 m 2
 55 276 13 234 13 182 c 2
 13 157 l 2
 13 105 55 62 107 62 c 2
 328 62 l 1
 328 276 l 1
 107 276 l 2
EndSplineSet
EndChar

StartChar: aring
Encoding: 229 229 137
Width: 541
Flags: HW
LayerCount: 2
UndoRedoHistory
Layer: 1
Undoes
EndUndoes
Redoes
RedoOperation
Index: 0
Type: 3
WasModified: 0
WasOrder2: 0
Layer: 2
EndRedoOperation
EndRedoes
EndUndoRedoHistory
Fore
SplineSet
195 599 m 0
 144 599 102 641 102 693 c 0
 102 744 144 786 195 786 c 0
 247 786 289 744 289 693 c 0
 289 641 247 599 195 599 c 0
195 746 m 0
 166 746 142 722 142 693 c 0
 142 663 166 639 195 639 c 0
 225 639 249 663 249 693 c 0
 249 722 225 746 195 746 c 0
107 -1 m 2
 20 -1 -50 70 -50 157 c 2
 -50 182 l 2
 -50 269 20 339 107 339 c 2
 328 339 l 1
 328 409 l 2
 328 461 286 503 233 503 c 2
 70 503 l 2
 52 503 38 517 38 535 c 2
 38 550 l 2
 38 559 45 566 54 566 c 2
 233 566 l 2
 320 566 391 496 391 409 c 2
 391 31 l 2
 391 13 377 -1 359 -1 c 2
 107 -1 l 2
107 276 m 2
 55 276 13 234 13 182 c 2
 13 157 l 2
 13 105 55 62 107 62 c 2
 328 62 l 1
 328 276 l 1
 107 276 l 2
EndSplineSet
EndChar

StartChar: ccedilla
Encoding: 231 231 138
Width: 559
Flags: HW
LayerCount: 2
UndoRedoHistory
Layer: 1
Undoes
EndUndoes
Redoes
RedoOperation
Index: 0
Type: 3
WasModified: 0
WasOrder2: 0
Layer: 2
EndRedoOperation
EndRedoes
EndUndoRedoHistory
Fore
SplineSet
417 126 m 2
 428 126 436 116 432 105 c 0
 423 80 407 57 386 39 c 0
 358 14 321 0 283 0 c 2
 216 0 l 1
 216 -44 l 2
 216 -48 219 -51 223 -51 c 2
 227 -51 l 2
 271 -51 306 -87 306 -131 c 0
 305 -174 269 -208 226 -208 c 2
 140 -208 l 2
 133 -208 127 -203 127 -196 c 2
 127 -171 l 2
 127 -164 133 -158 140 -158 c 2
 226 -158 l 2
 242 -158 255 -146 256 -131 c 0
 256 -115 243 -101 227 -101 c 2
 201 -101 l 2
 182 -101 166 -85 166 -65 c 2
 166 0 l 1
 157 0 l 2
 70 0 0 71 0 158 c 2
 0 410 l 2
 0 497 70 567 157 567 c 2
 283 567 l 2
 321 567 358 554 386 529 c 0
 407 511 423 488 432 462 c 0
 436 452 428 441 417 441 c 2
 384 441 l 2
 377 441 371 445 369 451 c 0
 353 483 320 504 283 504 c 2
 157 504 l 2
 105 504 63 462 63 410 c 2
 63 158 l 2
 63 106 105 63 157 63 c 2
 283 63 l 2
 320 63 353 85 369 117 c 0
 371 123 377 126 383 126 c 2
 417 126 l 2
EndSplineSet
EndChar

StartChar: egrave
Encoding: 232 232 139
Width: 591
Flags: HW
CounterMasks: 1 e0
LayerCount: 2
UndoRedoHistory
Layer: 1
Undoes
EndUndoes
Redoes
RedoOperation
Index: 0
Type: 3
WasModified: 0
WasOrder2: 0
Layer: 2
EndRedoOperation
EndRedoes
EndUndoRedoHistory
Fore
SplineSet
282 670 m 0
 280 667 275 667 272 670 c 2
 123 818 l 2
 117 824 117 834 123 841 c 2
 135 852 l 2
 141 858 149 862 157 862 c 0
 168 862 177 857 183 849 c 2
 285 711 l 2
 295 698 293 681 282 670 c 0
157 -1 m 2
 70 -1 0 70 0 157 c 2
 0 409 l 2
 0 496 70 566 157 566 c 2
 283 566 l 2
 370 566 441 496 441 409 c 2
 441 283 l 2
 441 265 427 251 409 251 c 2
 63 251 l 1
 63 157 l 2
 63 105 105 62 157 62 c 2
 283 62 l 2
 320 62 353 84 369 116 c 0
 371 122 377 125 383 125 c 2
 417 125 l 2
 428 125 436 115 432 104 c 0
 423 79 407 56 386 38 c 0
 358 13 321 -1 283 -1 c 2
 157 -1 l 2
157 503 m 2
 105 503 63 461 63 409 c 2
 63 314 l 1
 378 314 l 1
 378 409 l 2
 378 461 336 503 283 503 c 2
 157 503 l 2
EndSplineSet
EndChar

StartChar: eacute
Encoding: 233 233 140
Width: 591
Flags: HW
CounterMasks: 1 e0
LayerCount: 2
UndoRedoHistory
Layer: 1
Undoes
EndUndoes
Redoes
RedoOperation
Index: 0
Type: 3
WasModified: 0
WasOrder2: 0
Layer: 2
EndRedoOperation
EndRedoes
EndUndoRedoHistory
Fore
SplineSet
202 670 m 0
 191 681 189 698 199 711 c 2
 301 849 l 2
 307 857 316 862 327 862 c 0
 335 862 343 858 349 852 c 2
 361 841 l 2
 367 834 367 824 361 818 c 2
 212 670 l 2
 209 667 204 667 202 670 c 0
157 -1 m 2
 70 -1 0 70 0 157 c 2
 0 409 l 2
 0 496 70 566 157 566 c 2
 283 566 l 2
 370 566 441 496 441 409 c 2
 441 283 l 2
 441 265 427 251 409 251 c 2
 63 251 l 1
 63 157 l 2
 63 105 105 62 157 62 c 2
 283 62 l 2
 320 62 353 84 369 116 c 0
 371 122 377 125 383 125 c 2
 417 125 l 2
 428 125 436 115 432 104 c 0
 423 79 407 56 386 38 c 0
 358 13 321 -1 283 -1 c 2
 157 -1 l 2
157 503 m 2
 105 503 63 461 63 409 c 2
 63 314 l 1
 378 314 l 1
 378 409 l 2
 378 461 336 503 283 503 c 2
 157 503 l 2
EndSplineSet
EndChar

StartChar: ecircumflex
Encoding: 234 234 141
Width: 591
Flags: HW
LayerCount: 2
UndoRedoHistory
Layer: 1
Undoes
EndUndoes
Redoes
RedoOperation
Index: 0
Type: 3
WasModified: 0
WasOrder2: 0
Layer: 2
EndRedoOperation
EndRedoes
EndUndoRedoHistory
Fore
SplineSet
147 604 m 2xf0
 144 601 141 599 137 599 c 2
 86 599 l 2
 81 599 78 606 82 609 c 2
 194 721 l 2
 208 736 232 736 247 721 c 2
 359 609 l 2
 363 606 360 599 355 599 c 2
 304 599 l 2
 300 599 297 601 294 604 c 2
 232 666 l 2
 225 672 215 672 209 666 c 2
 147 604 l 2xf0
157 -1 m 2
 283 -1 l 2
 321 -1 358 13 386 38 c 0
 407 56 423 79 432 104 c 0
 436 115 428 125 417 125 c 2
 383 125 l 2
 377 125 371 122 369 116 c 0
 353 84 320 62 283 62 c 2
 157 62 l 2
 105 62 63 105 63 157 c 2
 63 251 l 1xe8
 409 251 l 2
 427 251 441 265 441 283 c 2
 441 409 l 2
 441 496 370 566 283 566 c 2
 157 566 l 2
 70 566 0 496 0 409 c 2
 0 157 l 2
 0 70 70 -1 157 -1 c 2
157 503 m 2xe8
 283 503 l 2
 336 503 378 461 378 409 c 2
 378 314 l 1
 63 314 l 1
 63 409 l 2
 63 461 105 503 157 503 c 2xe8
EndSplineSet
EndChar

StartChar: edieresis
Encoding: 235 235 142
Width: 591
Flags: HW
LayerCount: 2
UndoRedoHistory
Layer: 1
Undoes
EndUndoes
Redoes
RedoOperation
Index: 0
Type: 3
WasModified: 0
WasOrder2: 0
Layer: 2
EndRedoOperation
EndRedoes
EndUndoRedoHistory
Fore
SplineSet
120 648 m 0
 95 648 76 668 76 692 c 0
 76 717 95 737 120 737 c 0
 144 737 164 717 164 692 c 0
 164 668 144 648 120 648 c 0
321 648 m 0
 297 648 277 668 277 692 c 0
 277 717 297 737 321 737 c 0
 346 737 365 717 365 692 c 0
 365 668 346 648 321 648 c 0
157 -1 m 2
 70 -1 0 70 0 157 c 2
 0 409 l 2xff
 0 496 70 566 157 566 c 2
 283 566 l 2
 370 566 441 496 441 409 c 2
 441 283 l 2
 441 265 427 251 409 251 c 2
 63 251 l 1
 63 157 l 2
 63 105 105 62 157 62 c 2
 283 62 l 2
 320 62 353 84 369 116 c 0
 371 122 377 125 383 125 c 2
 417 125 l 2
 428 125 436 115 432 104 c 0
 423 79 407 56 386 38 c 0
 358 13 321 -1 283 -1 c 2
 157 -1 l 2
157 503 m 2
 105 503 63 461 63 409 c 2
 63 314 l 1
 378 314 l 1
 378 409 l 2
 378 461 336 503 283 503 c 2
 157 503 l 2
EndSplineSet
EndChar

StartChar: igrave
Encoding: 236 236 143
Width: 211
Flags: HW
LayerCount: 2
UndoRedoHistory
Layer: 1
Undoes
EndUndoes
Redoes
RedoOperation
Index: 0
Type: 3
WasModified: 0
WasOrder2: 0
Layer: 2
EndRedoOperation
EndRedoes
EndUndoRedoHistory
Fore
SplineSet
-2 15 m 2
 -2 550 l 2
 -2 559 5 566 14 566 c 2
 45 566 l 2
 54 566 61 559 61 550 c 2
 61 15 l 2
 61 6 54 -1 45 -1 c 2
 14 -1 l 2
 5 -1 -2 6 -2 15 c 2
44 670 m 0
 42 667 37 667 34 670 c 2
 -115 818 l 2
 -121 824 -121 834 -115 841 c 2
 -103 852 l 2
 -97 858 -89 862 -81 862 c 0
 -70 862 -61 857 -55 849 c 2
 47 711 l 2
 57 698 55 681 44 670 c 0
EndSplineSet
EndChar

StartChar: iacute
Encoding: 237 237 144
Width: 231
Flags: HW
LayerCount: 2
UndoRedoHistory
Layer: 1
Undoes
EndUndoes
Redoes
RedoOperation
Index: 0
Type: 3
WasModified: 0
WasOrder2: 0
Layer: 2
EndRedoOperation
EndRedoes
EndUndoRedoHistory
Fore
SplineSet
10 15 m 2
 10 550 l 2
 10 559 17 566 26 566 c 2
 57 566 l 2
 66 566 73 559 73 550 c 2
 73 15 l 2
 73 6 66 -1 57 -1 c 2
 26 -1 l 2
 17 -1 10 6 10 15 c 2
27 670 m 0
 16 681 14 698 24 711 c 2
 126 849 l 2
 132 857 141 862 152 862 c 0
 160 862 168 858 174 852 c 2
 186 841 l 2
 192 834 192 824 186 818 c 2
 37 670 l 2
 34 667 29 667 27 670 c 0
EndSplineSet
EndChar

StartChar: icircumflex
Encoding: 238 238 145
Width: 226
Flags: HW
LayerCount: 2
UndoRedoHistory
Layer: 1
Undoes
EndUndoes
Redoes
RedoOperation
Index: 0
Type: 3
WasModified: 0
WasOrder2: 0
Layer: 2
EndRedoOperation
EndRedoes
EndUndoRedoHistory
Fore
SplineSet
-43 604 m 2
 -46 601 -49 599 -53 599 c 2
 -104 599 l 2
 -109 599 -112 606 -108 609 c 2
 4 721 l 2
 18 736 42 736 57 721 c 2
 169 609 l 2
 173 606 170 599 165 599 c 2
 114 599 l 2
 110 599 107 601 104 604 c 2
 42 666 l 2
 35 672 25 672 19 666 c 2
 -43 604 l 2
1 15 m 2
 1 6 8 -1 17 -1 c 2
 48 -1 l 2
 57 -1 64 6 64 15 c 2
 64 550 l 2
 64 559 57 566 48 566 c 2
 17 566 l 2
 8 566 1 559 1 550 c 2
 1 15 l 2
EndSplineSet
EndChar

StartChar: idieresis
Encoding: 239 239 146
Width: 234
Flags: HW
LayerCount: 2
UndoRedoHistory
Layer: 1
Undoes
EndUndoes
Redoes
RedoOperation
Index: 0
Type: 3
WasModified: 0
WasOrder2: 0
Layer: 2
EndRedoOperation
EndRedoes
EndUndoRedoHistory
Fore
SplineSet
-66 648 m 0
 -91 648 -110 668 -110 692 c 0
 -110 717 -91 737 -66 737 c 0
 -42 737 -22 717 -22 692 c 0
 -22 668 -42 648 -66 648 c 0
135 648 m 0
 111 648 91 668 91 692 c 0
 91 717 111 737 135 737 c 0
 160 737 179 717 179 692 c 0
 179 668 160 648 135 648 c 0
4 15 m 2xe8
 4 550 l 2
 4 559 11 566 20 566 c 2
 51 566 l 2
 60 566 67 559 67 550 c 2
 67 15 l 2
 67 6 60 -1 51 -1 c 2
 20 -1 l 2
 11 -1 4 6 4 15 c 2xe8
EndSplineSet
EndChar

StartChar: ntilde
Encoding: 241 241 147
Width: 591
Flags: HW
LayerCount: 2
UndoRedoHistory
Layer: 1
Undoes
EndUndoes
Redoes
RedoOperation
Index: 0
Type: 3
WasModified: 0
WasOrder2: 0
Layer: 2
EndRedoOperation
EndRedoes
EndUndoRedoHistory
Fore
SplineSet
111 642 m 2xdc
 83 642 l 2
 74 642 68 652 71 660 c 1
 71 660 l 1
 80 681 94 698 113 710 c 0
 131 721 150 727 171 727 c 0
 187 727 202 723 217 716 c 2
 245 703 l 2
 253 699 262 697 270 697 c 0
 284 697 294 702 301 706 c 1
 301 706 l 1
 305 709 313 715 319 725 c 1xdc
 319 725 l 1
 322 728 326 731 330 731 c 2
 358 731 l 2
 367 731 373 722 370 713 c 1
 370 713 l 1
 361 693 347 675 328 663 c 0
 310 652 290 646 270 646 c 0
 254 646 238 650 224 657 c 2
 195 671 l 2
 187 674 179 676 171 676 c 0xec
 157 676 147 671 140 667 c 1
 140 667 l 1
 135 664 127 658 122 649 c 1
 122 649 l 1
 119 645 115 642 111 642 c 2xdc
378 16 m 2
 378 409 l 2
 378 462 336 504 283 504 c 2
 63 504 l 1
 63 16 l 2
 63 7 56 0 47 0 c 2
 16 0 l 2
 7 0 0 7 0 16 c 2
 0 551 l 2
 0 560 7 567 16 567 c 2
 283 567 l 2
 370 567 441 496 441 409 c 2
 441 16 l 2
 441 7 434 0 425 0 c 2
 394 0 l 2
 385 0 378 7 378 16 c 2
EndSplineSet
EndChar

StartChar: ograve
Encoding: 242 242 148
Width: 591
Flags: HW
LayerCount: 2
UndoRedoHistory
Layer: 1
Undoes
EndUndoes
Redoes
RedoOperation
Index: 0
Type: 3
WasModified: 0
WasOrder2: 0
Layer: 2
EndRedoOperation
EndRedoes
EndUndoRedoHistory
Fore
SplineSet
282 670 m 0
 280 667 275 667 272 670 c 2
 123 818 l 2
 117 824 117 834 123 841 c 2
 135 852 l 2
 141 858 149 862 157 862 c 0
 168 862 177 857 183 849 c 2
 285 711 l 2
 295 698 293 681 282 670 c 0
157 0 m 2
 71 0 0 70 0 157 c 2
 0 409 l 2
 0 496 71 566 157 566 c 2
 283 566 l 2
 370 566 441 496 441 409 c 2
 441 157 l 2
 441 70 370 0 283 0 c 2
 157 0 l 2
157 503 m 2
 105 503 63 461 63 409 c 2
 63 157 l 2
 63 105 105 63 157 63 c 2
 283 63 l 2
 336 63 378 105 378 157 c 2
 378 409 l 2
 378 461 336 503 283 503 c 2
 157 503 l 2
EndSplineSet
EndChar

StartChar: oacute
Encoding: 243 243 149
Width: 591
Flags: HW
LayerCount: 2
UndoRedoHistory
Layer: 1
Undoes
EndUndoes
Redoes
RedoOperation
Index: 0
Type: 3
WasModified: 0
WasOrder2: 0
Layer: 2
EndRedoOperation
EndRedoes
EndUndoRedoHistory
Fore
SplineSet
202 670 m 0
 191 681 189 698 199 711 c 2
 301 849 l 2
 307 857 316 862 327 862 c 0
 335 862 343 858 349 852 c 2
 361 841 l 2
 367 834 367 824 361 818 c 2
 212 670 l 2
 209 667 204 667 202 670 c 0
157 0 m 2
 71 0 0 70 0 157 c 2
 0 409 l 2
 0 496 71 566 157 566 c 2
 283 566 l 2
 370 566 441 496 441 409 c 2
 441 157 l 2
 441 70 370 0 283 0 c 2
 157 0 l 2
157 503 m 2
 105 503 63 461 63 409 c 2
 63 157 l 2
 63 105 105 63 157 63 c 2
 283 63 l 2
 336 63 378 105 378 157 c 2
 378 409 l 2
 378 461 336 503 283 503 c 2
 157 503 l 2
EndSplineSet
EndChar

StartChar: ocircumflex
Encoding: 244 244 150
Width: 591
Flags: HW
LayerCount: 2
UndoRedoHistory
Layer: 1
Undoes
EndUndoes
Redoes
RedoOperation
Index: 0
Type: 3
WasModified: 0
WasOrder2: 0
Layer: 2
EndRedoOperation
EndRedoes
EndUndoRedoHistory
Fore
SplineSet
147 604 m 2
 144 601 141 599 137 599 c 2
 86 599 l 2
 81 599 78 606 82 609 c 2
 194 721 l 2
 208 736 232 736 247 721 c 2
 359 609 l 2
 363 606 360 599 355 599 c 2
 304 599 l 2
 300 599 297 601 294 604 c 2
 232 666 l 2
 225 672 215 672 209 666 c 2
 147 604 l 2
157 0 m 2
 283 0 l 2
 370 0 441 70 441 157 c 2
 441 409 l 2
 441 496 370 566 283 566 c 2
 157 566 l 2
 71 566 0 496 0 409 c 2
 0 157 l 2
 0 70 71 0 157 0 c 2
157 503 m 2
 283 503 l 2
 336 503 378 461 378 409 c 2
 378 157 l 2
 378 105 336 63 283 63 c 2
 157 63 l 2
 105 63 63 105 63 157 c 2
 63 409 l 2
 63 461 105 503 157 503 c 2
EndSplineSet
EndChar

StartChar: otilde
Encoding: 245 245 151
Width: 591
Flags: HW
LayerCount: 2
UndoRedoHistory
Layer: 1
Undoes
EndUndoes
Redoes
RedoOperation
Index: 0
Type: 3
WasModified: 0
WasOrder2: 0
Layer: 2
EndRedoOperation
EndRedoes
EndUndoRedoHistory
Fore
SplineSet
111 642 m 2xdc
 83 642 l 2
 74 642 68 652 71 660 c 1
 71 660 l 1
 80 681 94 698 113 710 c 0
 131 721 150 727 171 727 c 0
 187 727 202 723 217 716 c 2
 245 703 l 2
 253 699 262 697 270 697 c 0
 284 697 294 702 301 706 c 1
 301 706 l 1
 305 709 313 715 319 725 c 1xdc
 319 725 l 1
 322 728 326 731 330 731 c 2
 358 731 l 2
 367 731 373 722 370 713 c 1
 370 713 l 1
 361 693 347 675 328 663 c 0
 310 652 290 646 270 646 c 0
 254 646 238 650 224 657 c 2
 195 671 l 2
 187 674 179 676 171 676 c 0xec
 157 676 147 671 140 667 c 1
 140 667 l 1
 135 664 127 658 122 649 c 1
 122 649 l 1
 119 645 115 642 111 642 c 2xdc
157 0 m 2
 71 0 0 70 0 157 c 2
 0 409 l 2
 0 496 71 566 157 566 c 2
 283 566 l 2
 370 566 441 496 441 409 c 2
 441 157 l 2
 441 70 370 0 283 0 c 2
 157 0 l 2
157 503 m 2
 105 503 63 461 63 409 c 2
 63 157 l 2
 63 105 105 63 157 63 c 2
 283 63 l 2
 336 63 378 105 378 157 c 2
 378 409 l 2
 378 461 336 503 283 503 c 2
 157 503 l 2
EndSplineSet
EndChar

StartChar: odieresis
Encoding: 246 246 152
Width: 591
Flags: HW
LayerCount: 2
UndoRedoHistory
Layer: 1
Undoes
EndUndoes
Redoes
RedoOperation
Index: 0
Type: 3
WasModified: 0
WasOrder2: 0
Layer: 2
EndRedoOperation
EndRedoes
EndUndoRedoHistory
Fore
SplineSet
120 648 m 0
 95 648 76 668 76 692 c 0
 76 717 95 737 120 737 c 0
 144 737 164 717 164 692 c 0
 164 668 144 648 120 648 c 0
321 648 m 0
 297 648 277 668 277 692 c 0
 277 717 297 737 321 737 c 0
 346 737 365 717 365 692 c 0
 365 668 346 648 321 648 c 0
157 0 m 2
 71 0 0 70 0 157 c 2
 0 409 l 2
 0 496 71 566 157 566 c 2
 283 566 l 2
 370 566 441 496 441 409 c 2
 441 157 l 2
 441 70 370 0 283 0 c 2
 157 0 l 2
157 503 m 2
 105 503 63 461 63 409 c 2
 63 157 l 2
 63 105 105 63 157 63 c 2
 283 63 l 2
 336 63 378 105 378 157 c 2
 378 409 l 2
 378 461 336 503 283 503 c 2
 157 503 l 2
EndSplineSet
EndChar

StartChar: divide
Encoding: 247 247 153
Width: 536
Flags: HMW
LayerCount: 2
UndoRedoHistory
Layer: 1
Undoes
EndUndoes
Redoes
RedoOperation
Index: 0
Type: 3
WasModified: 0
WasOrder2: 0
Layer: 2
EndRedoOperation
EndRedoes
EndUndoRedoHistory
Fore
SplineSet
386 301 m 2
 386 309 379 315 372 315 c 2
 14 315 l 2
 6 315 0 309 0 301 c 2
 0 266 l 2
 0 258 6 252 14 252 c 2
 372 252 l 2
 379 252 386 258 386 266 c 2
 386 301 l 2
193 114 m 0
 169 114 149 133 149 158 c 0
 149 182 169 202 193 202 c 0
 217 202 237 182 237 158 c 0
 237 133 217 114 193 114 c 0
193 364 m 0
 169 364 149 383 149 408 c 0
 149 432 169 452 193 452 c 0
 217 452 237 432 237 408 c 0
 237 383 217 364 193 364 c 0
EndSplineSet
EndChar

StartChar: ugrave
Encoding: 249 249 154
Width: 591
Flags: HW
LayerCount: 2
UndoRedoHistory
Layer: 1
Undoes
EndUndoes
Redoes
RedoOperation
Index: 0
Type: 3
WasModified: 0
WasOrder2: 0
Layer: 2
EndRedoOperation
EndRedoes
EndUndoRedoHistory
Fore
SplineSet
282 670 m 0
 280 667 275 667 272 670 c 2
 123 818 l 2
 117 824 117 834 123 841 c 2
 135 852 l 2
 141 858 149 862 157 862 c 0
 168 862 177 857 183 849 c 2
 285 711 l 2
 295 698 293 681 282 670 c 0
157 0 m 2
 70 0 0 70 0 157 c 2
 0 551 l 2
 0 559 7 566 16 566 c 2
 31 566 l 2
 49 566 63 552 63 535 c 2
 63 157 l 2
 63 105 105 63 157 63 c 2
 283 63 l 2
 336 63 378 105 378 157 c 2
 378 535 l 2
 378 552 392 566 409 566 c 2
 425 566 l 2
 434 566 441 559 441 551 c 2
 441 157 l 2
 441 70 370 0 283 0 c 2
 157 0 l 2
EndSplineSet
EndChar

StartChar: uacute
Encoding: 250 250 155
Width: 591
Flags: HW
LayerCount: 2
UndoRedoHistory
Layer: 1
Undoes
EndUndoes
Redoes
RedoOperation
Index: 0
Type: 3
WasModified: 0
WasOrder2: 0
Layer: 2
EndRedoOperation
EndRedoes
EndUndoRedoHistory
Fore
SplineSet
202 670 m 0
 191 681 189 698 199 711 c 2
 301 849 l 2
 307 857 316 862 327 862 c 0
 335 862 343 858 349 852 c 2
 361 841 l 2
 367 834 367 824 361 818 c 2
 212 670 l 2
 209 667 204 667 202 670 c 0
157 0 m 2
 70 0 0 70 0 157 c 2
 0 551 l 2
 0 559 7 566 16 566 c 2
 31 566 l 2
 49 566 63 552 63 535 c 2
 63 157 l 2
 63 105 105 63 157 63 c 2
 283 63 l 2
 336 63 378 105 378 157 c 2
 378 535 l 2
 378 552 392 566 409 566 c 2
 425 566 l 2
 434 566 441 559 441 551 c 2
 441 157 l 2
 441 70 370 0 283 0 c 2
 157 0 l 2
EndSplineSet
EndChar

StartChar: ucircumflex
Encoding: 251 251 156
Width: 591
Flags: HW
LayerCount: 2
UndoRedoHistory
Layer: 1
Undoes
EndUndoes
Redoes
RedoOperation
Index: 0
Type: 3
WasModified: 0
WasOrder2: 0
Layer: 2
EndRedoOperation
EndRedoes
EndUndoRedoHistory
Fore
SplineSet
147 604 m 2
 144 601 141 599 137 599 c 2
 86 599 l 2
 81 599 78 606 82 609 c 2
 194 721 l 2
 208 736 232 736 247 721 c 2
 359 609 l 2
 363 606 360 599 355 599 c 2
 304 599 l 2
 300 599 297 601 294 604 c 2
 232 666 l 2
 225 672 215 672 209 666 c 2
 147 604 l 2
157 0 m 2
 283 0 l 2
 370 0 441 70 441 157 c 2
 441 551 l 2
 441 559 434 566 425 566 c 2
 409 566 l 2
 392 566 378 552 378 535 c 2
 378 157 l 2
 378 105 336 63 283 63 c 2
 157 63 l 2
 105 63 63 105 63 157 c 2
 63 535 l 2
 63 552 49 566 31 566 c 2
 16 566 l 2
 7 566 0 559 0 551 c 2
 0 157 l 2
 0 70 70 0 157 0 c 2
EndSplineSet
EndChar

StartChar: udieresis
Encoding: 252 252 157
Width: 591
Flags: HW
LayerCount: 2
UndoRedoHistory
Layer: 1
Undoes
EndUndoes
Redoes
RedoOperation
Index: 0
Type: 3
WasModified: 0
WasOrder2: 0
Layer: 2
EndRedoOperation
EndRedoes
EndUndoRedoHistory
Fore
SplineSet
120 648 m 0
 95 648 76 668 76 692 c 0
 76 717 95 737 120 737 c 0
 144 737 164 717 164 692 c 0
 164 668 144 648 120 648 c 0
321 648 m 0
 297 648 277 668 277 692 c 0
 277 717 297 737 321 737 c 0
 346 737 365 717 365 692 c 0
 365 668 346 648 321 648 c 0
157 0 m 2xf2
 70 0 0 70 0 157 c 2
 0 551 l 2
 0 559 7 566 16 566 c 2
 31 566 l 2
 49 566 63 552 63 535 c 2
 63 157 l 2
 63 105 105 63 157 63 c 2
 283 63 l 2
 336 63 378 105 378 157 c 2
 378 535 l 2
 378 552 392 566 409 566 c 2
 425 566 l 2
 434 566 441 559 441 551 c 2
 441 157 l 2
 441 70 370 0 283 0 c 2
 157 0 l 2xf2
EndSplineSet
EndChar

StartChar: yacute
Encoding: 253 253 158
Width: 636
Flags: HW
LayerCount: 2
UndoRedoHistory
Layer: 1
Undoes
EndUndoes
Redoes
RedoOperation
Index: 0
Type: 3
WasModified: 0
WasOrder2: 0
Layer: 2
EndRedoOperation
EndRedoes
EndUndoRedoHistory
Fore
SplineSet
203 670 m 0
 192 681 190 698 200 711 c 2
 302 849 l 2
 308 857 317 862 328 862 c 0
 336 862 344 858 350 852 c 2
 362 841 l 2
 368 834 368 824 362 818 c 2
 213 670 l 2
 210 667 205 667 203 670 c 0
162 -149 m 2
 209 -20 l 1
 2 545 l 2
 -2 556 6 566 17 566 c 2
 39 566 l 2
 52 566 64 558 69 546 c 2
 243 71 l 1
 417 546 l 2
 422 558 434 566 447 566 c 2
 469 566 l 2
 480 566 488 556 484 545 c 2
 229 -150 l 2
 224 -162 212 -171 199 -171 c 2
 176 -171 l 2
 166 -171 158 -160 162 -149 c 2
EndSplineSet
EndChar

StartChar: ydieresis
Encoding: 255 255 159
Width: 636
Flags: HW
LayerCount: 2
UndoRedoHistory
Layer: 1
Undoes
EndUndoes
Redoes
RedoOperation
Index: 0
Type: 3
WasModified: 0
WasOrder2: 0
Layer: 2
EndRedoOperation
EndRedoes
EndUndoRedoHistory
Fore
SplineSet
143 648 m 0
 118 648 99 668 99 692 c 0
 99 717 118 737 143 737 c 0
 167 737 187 717 187 692 c 0
 187 668 167 648 143 648 c 0
344 648 m 0
 320 648 300 668 300 692 c 0
 300 717 320 737 344 737 c 0
 369 737 388 717 388 692 c 0
 388 668 369 648 344 648 c 0
162 -149 m 2
 209 -20 l 1
 2 545 l 2
 -2 556 6 566 17 566 c 2
 39 566 l 2
 52 566 64 558 69 546 c 2
 243 71 l 1
 417 546 l 2
 422 558 434 566 447 566 c 2
 469 566 l 2
 480 566 488 556 484 545 c 2
 229 -150 l 2
 224 -162 212 -171 199 -171 c 2
 176 -171 l 2
 166 -171 158 -160 162 -149 c 2
EndSplineSet
EndChar

StartChar: Ydieresis
Encoding: 376 376 160
Width: 586
Flags: HMW
LayerCount: 2
UndoRedoHistory
Layer: 1
Undoes
EndUndoes
Redoes
RedoOperation
Index: 0
Type: 3
WasModified: 0
WasOrder2: 0
Layer: 2
EndRedoOperation
EndRedoes
EndUndoRedoHistory
Fore
SplineSet
484 716 m 2
 249 271 l 1
 249 16 l 2
 249 7 242 0 233 0 c 2
 201 0 l 2
 193 0 186 7 186 16 c 2
 186 271 l 1
 -48 716 l 2
 -53 726 -47 737 -36 737 c 2
 -5 737 l 2
 5 737 15 731 20 722 c 2
 218 346 l 1
 416 722 l 2
 421 731 431 737 441 737 c 2
 472 737 l 2
 482 737 489 726 484 716 c 2
120 820 m 0xfc
 95 820 76 840 76 864 c 0
 76 889 95 909 120 909 c 0
 144 909 164 889 164 864 c 0
 164 840 144 820 120 820 c 0xfc
321 820 m 0
 297 820 277 840 277 864 c 0
 277 889 297 909 321 909 c 0
 346 909 365 889 365 864 c 0
 365 840 346 820 321 820 c 0
EndSplineSet
EndChar

StartChar: circumflex
Encoding: 710 710 161
Width: 431
Flags: HMW
LayerCount: 2
UndoRedoHistory
Layer: 1
Undoes
EndUndoes
Redoes
RedoOperation
Index: 0
Type: 3
WasModified: 0
WasOrder2: 0
Layer: 2
EndRedoOperation
EndRedoes
EndUndoRedoHistory
Fore
SplineSet
67 604 m 2
 64 601 61 599 57 599 c 2
 6 599 l 2
 1 599 -2 606 2 609 c 2
 114 721 l 2
 128 736 152 736 167 721 c 2
 279 609 l 2
 283 606 280 599 275 599 c 2
 224 599 l 2
 220 599 217 601 214 604 c 2
 152 666 l 2
 145 672 135 672 129 666 c 2
 67 604 l 2
EndSplineSet
EndChar

StartChar: ring
Encoding: 730 730 162
Width: 337
Flags: HMW
LayerCount: 2
UndoRedoHistory
Layer: 1
Undoes
EndUndoes
Redoes
RedoOperation
Index: 0
Type: 3
WasModified: 0
WasOrder2: 0
Layer: 2
EndRedoOperation
EndRedoes
EndUndoRedoHistory
Fore
SplineSet
93 599 m 0
 42 599 0 641 0 693 c 0
 0 744 42 786 93 786 c 0
 145 786 187 744 187 693 c 0
 187 641 145 599 93 599 c 0
93 746 m 0
 64 746 40 722 40 693 c 0
 40 663 64 639 93 639 c 0
 123 639 147 663 147 693 c 0
 147 722 123 746 93 746 c 0
EndSplineSet
EndChar

StartChar: tilde
Encoding: 732 732 163
Width: 451
Flags: HMW
LayerCount: 2
UndoRedoHistory
Layer: 1
Undoes
EndUndoes
Redoes
RedoOperation
Index: 0
Type: 3
WasModified: 0
WasOrder2: 0
Layer: 2
EndRedoOperation
EndRedoes
EndUndoRedoHistory
Fore
SplineSet
41 642 m 2x60
 13 642 l 2
 4 642 -2 652 1 660 c 1
 1 660 l 1
 10 681 24 698 43 710 c 0
 61 721 80 727 101 727 c 0
 117 727 132 723 147 716 c 2
 175 703 l 2
 183 699 192 697 200 697 c 0
 214 697 224 702 231 706 c 1
 231 706 l 1
 235 709 243 715 249 725 c 1x60
 249 725 l 1
 252 728 256 731 260 731 c 2
 288 731 l 2
 297 731 303 722 300 713 c 1
 300 713 l 1
 291 693 277 675 258 663 c 0
 240 652 220 646 200 646 c 0
 184 646 168 650 154 657 c 2
 125 671 l 2
 117 674 109 676 101 676 c 0xa0
 87 676 77 671 70 667 c 1
 70 667 l 1
 65 664 57 658 52 649 c 1
 52 649 l 1
 49 645 45 642 41 642 c 2x60
EndSplineSet
EndChar

StartChar: endash
Encoding: 8211 8211 164
Width: 482
Flags: HMW
LayerCount: 2
UndoRedoHistory
Layer: 1
Undoes
EndUndoes
Redoes
RedoOperation
Index: 0
Type: 3
WasModified: 0
WasOrder2: 0
Layer: 2
EndRedoOperation
EndRedoes
EndUndoRedoHistory
Fore
SplineSet
332 281 m 2
 332 258 l 2
 332 247 323 238 312 238 c 2
 20 238 l 2
 9 238 0 247 0 258 c 2
 0 281 l 2
 0 292 9 301 20 301 c 2
 312 301 l 2
 323 301 332 292 332 281 c 2
EndSplineSet
EndChar

StartChar: emdash
Encoding: 8212 8212 165
Width: 697
Flags: HMW
LayerCount: 2
UndoRedoHistory
Layer: 1
Undoes
EndUndoes
Redoes
RedoOperation
Index: 0
Type: 3
WasModified: 0
WasOrder2: 0
Layer: 2
EndRedoOperation
EndRedoes
EndUndoRedoHistory
Fore
SplineSet
547 281 m 2
 547 258 l 2
 547 247 538 238 527 238 c 2
 20 238 l 2
 9 238 0 247 0 258 c 2
 0 281 l 2
 0 292 9 301 20 301 c 2
 527 301 l 2
 538 301 547 292 547 281 c 2
EndSplineSet
EndChar

StartChar: quoteleft
Encoding: 8216 8216 166
Width: 275
Flags: HMW
LayerCount: 2
UndoRedoHistory
Layer: 1
Undoes
EndUndoes
Redoes
RedoOperation
Index: 0
Type: 3
WasModified: 0
WasOrder2: 0
Layer: 2
EndRedoOperation
EndRedoes
EndUndoRedoHistory
Fore
SplineSet
97 593 m 2
 113 593 125 580 125 565 c 2
 125 496 l 2
 125 480 113 468 97 468 c 2
 28 468 l 2
 13 468 0 480 0 496 c 2
 0 627 l 2
 0 688 49 737 110 737 c 1
 110 687 l 1
 77 687 50 660 50 627 c 2
 50 593 l 1
 97 593 l 2
EndSplineSet
EndChar

StartChar: quoteright
Encoding: 8217 8217 167
Width: 275
Flags: HMW
LayerCount: 2
UndoRedoHistory
Layer: 1
Undoes
EndUndoes
Redoes
RedoOperation
Index: 0
Type: 3
WasModified: 0
WasOrder2: 0
Layer: 2
EndRedoOperation
EndRedoes
EndUndoRedoHistory
Fore
SplineSet
28 612 m 2
 12 612 0 625 0 640 c 2
 0 709 l 2
 0 725 12 737 28 737 c 2
 97 737 l 2
 112 737 125 725 125 709 c 2
 125 578 l 2
 125 517 76 468 15 468 c 1
 15 518 l 1
 48 518 75 545 75 578 c 2
 75 612 l 1
 28 612 l 2
EndSplineSet
EndChar

StartChar: quotedblleft
Encoding: 8220 8220 168
Width: 430
Flags: HMW
LayerCount: 2
UndoRedoHistory
Layer: 1
Undoes
EndUndoes
Redoes
RedoOperation
Index: 0
Type: 3
WasModified: 0
WasOrder2: 0
Layer: 2
EndRedoOperation
EndRedoes
EndUndoRedoHistory
Fore
SplineSet
280 565 m 2
 280 496 l 2
 280 480 268 468 252 468 c 2
 183 468 l 2
 168 468 155 480 155 496 c 2
 155 627 l 2
 155 688 204 737 265 737 c 1
 265 687 l 1
 232 687 205 660 205 627 c 2
 205 593 l 1
 252 593 l 2
 268 593 280 580 280 565 c 2
97 593 m 2
 113 593 125 580 125 565 c 2
 125 496 l 2
 125 480 113 468 97 468 c 2
 28 468 l 2
 13 468 0 480 0 496 c 2
 0 627 l 2
 0 688 49 737 110 737 c 1
 110 687 l 1
 77 687 50 660 50 627 c 2
 50 593 l 1
 97 593 l 2
EndSplineSet
EndChar

StartChar: quotedblright
Encoding: 8221 8221 169
Width: 430
Flags: HMW
LayerCount: 2
UndoRedoHistory
Layer: 1
Undoes
EndUndoes
Redoes
RedoOperation
Index: 0
Type: 3
WasModified: 0
WasOrder2: 0
Layer: 2
EndRedoOperation
EndRedoes
EndUndoRedoHistory
Fore
SplineSet
0 640 m 2
 0 709 l 2
 0 725 12 737 28 737 c 2
 97 737 l 2
 112 737 125 725 125 709 c 2
 125 578 l 2
 125 517 76 468 15 468 c 1
 15 518 l 1
 48 518 75 545 75 578 c 2
 75 612 l 1
 28 612 l 2
 12 612 0 625 0 640 c 2
183 612 m 2
 167 612 155 625 155 640 c 2
 155 709 l 2
 155 725 167 737 183 737 c 2
 252 737 l 2
 267 737 280 725 280 709 c 2
 280 578 l 2
 280 517 231 468 170 468 c 1
 170 518 l 1
 203 518 230 545 230 578 c 2
 230 612 l 1
 183 612 l 2
EndSplineSet
EndChar

StartChar: bullet
Encoding: 8226 8226 170
Width: 326
Flags: HMW
LayerCount: 2
UndoRedoHistory
Layer: 1
Undoes
EndUndoes
Redoes
RedoOperation
Index: 0
Type: 3
WasModified: 0
WasOrder2: 0
Layer: 2
EndRedoOperation
EndRedoes
EndUndoRedoHistory
Fore
SplineSet
88 212 m 0
 40 212 0 250 0 300 c 0
 0 348 40 388 88 388 c 0
 136 388 176 348 176 300 c 0
 176 250 136 212 88 212 c 0
EndSplineSet
EndChar

StartChar: fraction
Encoding: 8260 8260 171
Width: 350
Flags: HMW
LayerCount: 2
UndoRedoHistory
Layer: 1
Undoes
EndUndoes
Redoes
RedoOperation
Index: 0
Type: 3
WasModified: 0
WasOrder2: 0
Layer: 2
EndRedoOperation
EndRedoes
EndUndoRedoHistory
Fore
SplineSet
15 0 m 2
 5 0 -2 10 2 19 c 2
 260 728 l 2
 262 733 267 737 273 737 c 2
 310 737 l 2
 320 737 327 727 323 718 c 2
 65 9 l 2
 63 4 58 0 52 0 c 2
 15 0 l 2
EndSplineSet
EndChar

StartChar: minus
Encoding: 8722 8722 172
Width: 536
Flags: HMW
LayerCount: 2
UndoRedoHistory
Layer: 1
Undoes
EndUndoes
Redoes
RedoOperation
Index: 0
Type: 3
WasModified: 0
WasOrder2: 0
Layer: 2
EndRedoOperation
EndRedoes
EndUndoRedoHistory
Fore
SplineSet
372 315 m 2
 379 315 386 309 386 301 c 2
 386 266 l 2
 386 258 379 252 372 252 c 2
 14 252 l 2
 6 252 0 258 0 266 c 2
 0 301 l 2
 0 309 6 315 14 315 c 2
 372 315 l 2
EndSplineSet
EndChar
